<svg width="715" height="420" viewBox="0 0 715 420" fill="none" xmlns="http://www.w3.org/2000/svg">
<mask id="mask0_133_256" style="mask-type:luminance" maskUnits="userSpaceOnUse" x="0" y="0" width="715" height="420">
<path d="M715 0H0V420H715V0Z" fill="white"/>
</mask>
<g mask="url(#mask0_133_256)">
<mask id="mask1_133_256" style="mask-type:luminance" maskUnits="userSpaceOnUse" x="0" y="0" width="715" height="420">
<path d="M715 0H0V420H715V0Z" fill="white"/>
</mask>
<g mask="url(#mask1_133_256)">
<path d="M26.6224 411.92H695.328C731.921 303.963 711.148 260.485 684.087 233.37C643.636 192.839 586.994 204.772 537.731 152.044C495.199 106.52 519.986 78.9735 480.326 43.0101C430.461 -2.20463 328.735 -15.3743 256.189 20.9567C197.024 50.5876 176.683 103.417 173.328 112.658C153.674 166.697 184.259 188.447 161.101 220.604C128.213 266.275 50.6826 244.397 15.0955 285.822C-2.2779 306.05 -11.6034 335.564 26.6224 411.92Z" fill="#D9E6FF"/>
<g opacity="0.2">
<mask id="mask2_133_256" style="mask-type:luminance" maskUnits="userSpaceOnUse" x="79" y="264" width="559" height="120">
<path d="M637.93 264.339H79.9492V383.121H637.93V264.339Z" fill="white"/>
</mask>
<g mask="url(#mask2_133_256)">
<mask id="mask3_133_256" style="mask-type:luminance" maskUnits="userSpaceOnUse" x="79" y="264" width="559" height="120">
<path d="M637.931 264.339H79.9492V383.121H637.931V264.339Z" fill="white"/>
</mask>
<g mask="url(#mask3_133_256)">
<path d="M139.256 370.795V349.82H162.226V334.535H202.427V290.42H225.847V330.607H263.205V264.339H280.126V283.011H345.788V333.753H383.332V298.322H450.764V312.149H471.468V333.75H508.505V353.941H528.132V323.169H542.423V349.43H611.13V365.535H637.927V383.119H79.9492V370.795H139.256Z" fill="#43778F"/>
</g>
</g>
</g>
<path d="M224.797 349.078C213.441 347.691 209.368 357.642 205.23 361.086C202.673 363.214 198.747 364.113 196.385 361.735C193.89 359.226 193.826 353.887 190.518 353.077C186.14 352.005 167.988 382.287 167.655 383.127H274.182C273.925 382.303 239.719 350.907 224.798 349.083" fill="#96B8FF"/>
<path d="M453.951 357.445C442.31 357.445 437.668 371.016 429.383 371.016C422.83 371.016 424.347 364.832 414.302 364.832C405.511 364.832 396.701 383.124 385.747 383.124H504.174C484.322 383.124 466.204 357.451 453.948 357.451" fill="#96B8FF"/>
<path d="M138.353 337.812C139.202 333.257 140.828 328.793 140.659 324.149C140.328 314.971 133.063 306.78 134.588 297.747C136.135 288.592 145.919 283.605 148.517 274.736C149.334 271.956 149.382 268.939 150.39 266.236C151.397 263.532 153.905 261.088 156.498 261.778C159.469 262.569 160.421 266.585 160.83 269.898L163.817 294.275C164.827 302.497 165.835 310.726 166.367 319.003C166.77 325.29 166.896 331.595 167.021 337.896C167.114 342.6 167.209 347.303 167.304 352.006C167.362 354.946 167.402 357.996 166.316 360.687C163.153 368.531 150.572 370.972 144.351 366.203C137.239 360.749 136.835 345.953 138.353 337.816" fill="#96B8FF"/>
<path d="M153.26 305.697H152.508V383.122H153.26V305.697Z" fill="#F7F6F0"/>
<path d="M152.876 317.057L144.524 307.926L145.057 307.344L152.876 315.892L157.244 311.118L157.775 311.699L152.876 317.057Z" fill="#F7F6F0"/>
<path d="M152.511 339.532L146.486 332.947L147.018 332.366L152.511 338.371L162.536 327.415L163.068 327.995L152.511 339.532Z" fill="#F7F6F0"/>
<path d="M152.618 353.655L159.091 346.579L159.621 347.163L153.148 354.239L152.618 353.655Z" fill="#F7F6F0"/>
<path d="M113.779 339.624C114.199 334.929 114.859 330.1 117.125 326.088C119.392 322.076 123.66 319.061 127.909 319.872C129.653 328.018 131.397 336.165 133.141 344.312C134.338 349.279 135.154 354.348 135.581 359.466C136.247 371.009 130.268 378.678 119.37 377.757C110.263 376.99 105.221 369.386 108.762 359.921C111.392 352.895 113.095 347.263 113.783 339.612" fill="#96B8FF"/>
<path d="M121.997 339.796H121.245V383.12H121.997V339.796Z" fill="#F7F6F0"/>
<path d="M121.561 369.285L112.396 359.268L112.929 358.688L121.559 368.121L128.032 361.046L128.563 361.628L121.561 369.285Z" fill="#F7F6F0"/>
<path d="M121.811 354.838L117.581 350.214L118.112 349.634L121.811 353.677L129.218 345.577L129.749 346.157L121.811 354.838Z" fill="#F7F6F0"/>
<path d="M492.459 357.932C491.999 353.347 495.523 349.044 494.84 344.493C493.816 337.674 485.477 335.769 494.31 324.331C498.605 318.768 500.537 305.997 507.197 305.997C519.708 305.997 515.862 330.769 515.952 331.59C516.802 339.081 522.655 345.012 523.58 352.489C526.43 375.519 493.825 371.502 492.461 357.932" fill="#96B8FF"/>
<path d="M507.4 329.421H506.648V383.121H507.4V329.421Z" fill="#F7F6F0"/>
<path d="M506.813 341.4L497.791 331.538L498.322 330.958L506.813 340.236L510.774 335.907L511.305 336.489L506.813 341.4Z" fill="#F7F6F0"/>
<path d="M507.127 355.679L501.265 349.272L501.797 348.691L507.127 354.517L515.04 345.869L515.571 346.449L507.127 355.679Z" fill="#F7F6F0"/>
<path d="M571.145 352.675C571.836 350.759 572.764 348.856 572.752 346.795C572.739 344.793 571.833 342.933 571.506 340.961C571.18 338.989 571.745 336.506 573.503 335.935C575.621 335.246 577.385 337.758 578.337 339.937C581.588 347.378 583.891 355.278 585.179 363.413C585.761 367.09 585.873 371.744 582.268 373.578C579.756 374.856 575.621 374.202 573.332 372.527C567.967 368.602 569.168 358.168 571.145 352.674" fill="#96B8FF"/>
<path d="M577.856 350.158H577.104V383.123H577.856V350.158Z" fill="#F7F6F0"/>
<path d="M577.613 362.241L573.397 357.634L573.93 357.054L577.613 361.08L579.734 358.763L580.267 359.344L577.613 362.241Z" fill="#F7F6F0"/>
<path d="M569.474 334.282C569.375 334.282 569.278 334.261 569.187 334.22C569.096 334.179 569.013 334.119 568.943 334.043C568.873 333.966 568.818 333.876 568.78 333.776C568.742 333.676 568.722 333.569 568.722 333.46V328.114C568.722 327.894 568.801 327.683 568.942 327.528C569.083 327.373 569.274 327.285 569.474 327.285C569.673 327.285 569.865 327.373 570.006 327.528C570.147 327.683 570.226 327.894 570.226 328.114V333.46C570.225 333.679 570.145 333.889 570.004 334.043C569.862 334.197 569.672 334.283 569.474 334.282Z" fill="white"/>
<path d="M576.067 333.334C575.902 333.334 575.741 333.274 575.61 333.164C575.479 333.054 575.384 332.9 575.34 332.725L574.075 327.561C574.047 327.457 574.039 327.349 574.049 327.241C574.06 327.133 574.09 327.029 574.137 326.934C574.184 326.839 574.248 326.755 574.325 326.688C574.402 326.62 574.49 326.57 574.585 326.54C574.775 326.478 574.981 326.502 575.156 326.606C575.331 326.71 575.461 326.886 575.519 327.096L575.529 327.134L576.795 332.298C576.82 332.402 576.826 332.511 576.813 332.618C576.8 332.726 576.768 332.829 576.719 332.922C576.669 333.016 576.604 333.098 576.526 333.163C576.448 333.229 576.358 333.276 576.264 333.304C576.2 333.323 576.134 333.333 576.068 333.333" fill="white"/>
<path d="M582.215 330.548C582.082 330.549 581.952 330.511 581.838 330.439C581.723 330.367 581.627 330.263 581.561 330.137L579.114 325.507C579.064 325.414 579.031 325.311 579.018 325.204C579.004 325.097 579.01 324.988 579.035 324.883C579.06 324.778 579.104 324.68 579.164 324.594C579.223 324.508 579.298 324.436 579.383 324.382C579.555 324.272 579.76 324.241 579.953 324.296C580.145 324.351 580.31 324.488 580.412 324.677L580.416 324.686L582.863 329.314C582.912 329.408 582.944 329.511 582.957 329.619C582.97 329.726 582.963 329.835 582.937 329.939C582.912 330.044 582.868 330.142 582.808 330.227C582.748 330.313 582.673 330.385 582.587 330.438C582.473 330.51 582.343 330.548 582.211 330.548" fill="white"/>
<path d="M587.497 326.122C587.399 326.122 587.301 326.101 587.21 326.059C587.119 326.018 587.036 325.957 586.966 325.88L583.507 322.097C583.438 322.021 583.382 321.93 583.344 321.831C583.307 321.731 583.287 321.624 583.287 321.516C583.287 321.408 583.307 321.301 583.344 321.201C583.382 321.101 583.438 321.011 583.507 320.935C583.649 320.781 583.84 320.695 584.039 320.695C584.238 320.695 584.428 320.781 584.57 320.935L588.028 324.713C588.098 324.789 588.153 324.879 588.191 324.979C588.229 325.079 588.248 325.186 588.248 325.294C588.248 325.402 588.229 325.509 588.191 325.609C588.153 325.709 588.098 325.8 588.028 325.876C587.887 326.029 587.696 326.115 587.498 326.115" fill="white"/>
<path d="M591.543 320.355C591.411 320.355 591.281 320.317 591.167 320.244L586.932 317.571C586.847 317.518 586.771 317.447 586.711 317.362C586.65 317.277 586.605 317.18 586.579 317.076C586.553 316.972 586.545 316.863 586.557 316.755C586.57 316.648 586.601 316.544 586.649 316.451C586.749 316.26 586.912 316.121 587.104 316.063C587.296 316.005 587.501 316.032 587.674 316.14L587.684 316.147L591.924 318.82C592.009 318.873 592.084 318.945 592.144 319.03C592.204 319.116 592.248 319.214 592.274 319.319C592.299 319.423 592.306 319.532 592.293 319.64C592.28 319.747 592.248 319.85 592.198 319.944C592.131 320.069 592.036 320.173 591.921 320.245C591.806 320.317 591.676 320.354 591.544 320.354" fill="white"/>
<path d="M594.091 313.638C594.025 313.638 593.959 313.628 593.896 313.609L589.172 312.225C589.076 312.199 588.987 312.153 588.908 312.089C588.829 312.026 588.762 311.945 588.711 311.853C588.66 311.761 588.626 311.658 588.611 311.551C588.596 311.445 588.601 311.336 588.624 311.231C588.647 311.126 588.689 311.027 588.747 310.94C588.805 310.853 588.878 310.779 588.962 310.723C589.046 310.667 589.139 310.63 589.235 310.613C589.332 310.597 589.431 310.601 589.526 310.627L589.562 310.637L594.286 312.021C594.462 312.071 594.616 312.19 594.717 312.357C594.819 312.523 594.862 312.725 594.838 312.924C594.814 313.123 594.725 313.306 594.587 313.437C594.45 313.568 594.273 313.64 594.091 313.638Z" fill="white"/>
<path d="M594.957 306.423H590.066C589.868 306.423 589.678 306.336 589.538 306.182C589.398 306.028 589.319 305.819 589.319 305.6C589.319 305.382 589.398 305.173 589.538 305.019C589.678 304.865 589.868 304.778 590.066 304.778H594.957C595.155 304.778 595.345 304.865 595.485 305.019C595.625 305.173 595.704 305.382 595.704 305.6C595.704 305.819 595.625 306.028 595.485 306.182C595.345 306.336 595.155 306.423 594.957 306.423Z" fill="white"/>
<path d="M589.363 300.603C589.181 300.605 589.004 300.534 588.867 300.402C588.729 300.271 588.64 300.088 588.616 299.889C588.592 299.69 588.635 299.488 588.737 299.322C588.839 299.156 588.992 299.036 589.169 298.986L593.893 297.602C593.989 297.57 594.09 297.559 594.19 297.57C594.29 297.581 594.387 297.615 594.475 297.668C594.562 297.722 594.64 297.794 594.702 297.881C594.763 297.968 594.809 298.068 594.835 298.175C594.861 298.282 594.867 298.393 594.853 298.503C594.84 298.612 594.806 298.718 594.754 298.812C594.703 298.907 594.634 298.99 594.553 299.055C594.472 299.12 594.38 299.166 594.282 299.191L589.558 300.574C589.494 300.593 589.428 300.603 589.362 300.603" fill="white"/>
<path d="M587.308 295.172C587.144 295.174 586.984 295.115 586.853 295.005C586.722 294.896 586.628 294.741 586.585 294.567C586.542 294.392 586.552 294.206 586.615 294.039C586.678 293.872 586.789 293.732 586.931 293.641L591.166 290.968C591.338 290.858 591.543 290.826 591.736 290.881C591.929 290.935 592.095 291.072 592.197 291.26C592.247 291.353 592.28 291.457 592.293 291.564C592.307 291.671 592.301 291.78 592.276 291.885C592.251 291.989 592.208 292.087 592.148 292.173C592.089 292.259 592.014 292.331 591.929 292.385L591.919 292.393L587.683 295.065C587.569 295.138 587.44 295.176 587.309 295.176" fill="white"/>
<path d="M584.035 290.512C583.887 290.514 583.742 290.466 583.618 290.376C583.494 290.287 583.398 290.158 583.341 290.007C583.284 289.857 583.269 289.691 583.298 289.531C583.327 289.37 583.398 289.224 583.504 289.109L586.962 285.325C587.103 285.172 587.295 285.086 587.494 285.087C587.693 285.088 587.883 285.175 588.024 285.33C588.093 285.406 588.148 285.496 588.185 285.595C588.223 285.695 588.242 285.801 588.242 285.908C588.242 286.016 588.223 286.122 588.185 286.222C588.148 286.321 588.093 286.411 588.024 286.487L584.566 290.271C584.424 290.425 584.234 290.512 584.035 290.512Z" fill="white"/>
<path d="M579.767 286.933C579.636 286.935 579.506 286.898 579.391 286.826C579.276 286.755 579.181 286.651 579.114 286.526C579.048 286.4 579.013 286.257 579.013 286.112C579.013 285.967 579.047 285.824 579.114 285.699L581.559 281.07C581.659 280.88 581.822 280.741 582.014 280.684C582.206 280.626 582.411 280.654 582.584 280.762C582.67 280.815 582.746 280.886 582.806 280.971C582.867 281.056 582.912 281.153 582.938 281.258C582.964 281.362 582.971 281.471 582.959 281.578C582.947 281.685 582.915 281.789 582.866 281.883L582.862 281.892L580.416 286.522C580.349 286.648 580.254 286.752 580.139 286.824C580.024 286.896 579.894 286.934 579.762 286.933" fill="white"/>
<path d="M574.804 284.686C574.738 284.687 574.672 284.677 574.608 284.658C574.513 284.63 574.424 284.582 574.346 284.517C574.268 284.451 574.202 284.37 574.153 284.276C574.104 284.183 574.071 284.079 574.058 283.972C574.045 283.865 574.052 283.756 574.077 283.651L575.343 278.488C575.392 278.278 575.515 278.097 575.684 277.985C575.853 277.873 576.055 277.839 576.247 277.889C576.438 277.94 576.604 278.072 576.709 278.256C576.814 278.44 576.848 278.662 576.806 278.874L576.796 278.914L575.532 284.077C575.488 284.253 575.394 284.408 575.262 284.518C575.131 284.628 574.97 284.687 574.805 284.686" fill="white"/>
<path d="M569.474 283.918C569.375 283.919 569.278 283.898 569.187 283.857C569.096 283.816 569.013 283.756 568.943 283.679C568.873 283.603 568.818 283.512 568.78 283.412C568.742 283.313 568.722 283.205 568.722 283.097V277.751C568.722 277.531 568.801 277.32 568.942 277.165C569.083 277.009 569.274 276.922 569.474 276.922C569.673 276.922 569.865 277.009 570.006 277.165C570.147 277.32 570.226 277.531 570.226 277.751V283.097C570.225 283.316 570.145 283.525 570.004 283.679C569.862 283.833 569.672 283.919 569.474 283.918Z" fill="white"/>
<path d="M564.142 284.687C563.977 284.687 563.816 284.627 563.685 284.517C563.554 284.407 563.459 284.253 563.415 284.078L562.15 278.914C562.123 278.81 562.114 278.702 562.124 278.594C562.135 278.486 562.165 278.382 562.212 278.287C562.26 278.192 562.323 278.108 562.4 278.041C562.477 277.973 562.565 277.923 562.66 277.893C562.85 277.831 563.056 277.855 563.231 277.959C563.406 278.063 563.536 278.239 563.594 278.449L563.604 278.487L564.87 283.651C564.895 283.755 564.901 283.864 564.888 283.971C564.875 284.079 564.843 284.182 564.794 284.275C564.744 284.369 564.679 284.451 564.601 284.516C564.523 284.582 564.434 284.629 564.339 284.657C564.275 284.676 564.209 284.686 564.143 284.686" fill="white"/>
<path d="M559.178 286.933C559.046 286.934 558.916 286.897 558.801 286.825C558.686 286.752 558.591 286.648 558.524 286.522L556.078 281.892C556.028 281.799 555.995 281.696 555.982 281.589C555.968 281.482 555.974 281.373 555.999 281.268C556.024 281.163 556.068 281.065 556.127 280.979C556.187 280.893 556.261 280.821 556.346 280.767C556.519 280.657 556.723 280.626 556.916 280.681C557.109 280.736 557.274 280.873 557.376 281.062L557.38 281.071L559.826 285.699C559.876 285.793 559.908 285.896 559.92 286.004C559.933 286.111 559.927 286.22 559.901 286.324C559.875 286.429 559.831 286.527 559.771 286.612C559.711 286.698 559.636 286.77 559.551 286.823C559.436 286.895 559.307 286.933 559.175 286.933" fill="white"/>
<path d="M554.91 290.511C554.812 290.512 554.714 290.49 554.623 290.449C554.532 290.407 554.449 290.347 554.379 290.27L550.92 286.487C550.851 286.41 550.796 286.32 550.758 286.22C550.721 286.12 550.702 286.013 550.702 285.905C550.703 285.797 550.722 285.69 550.761 285.59C550.799 285.49 550.854 285.4 550.924 285.325C551.066 285.17 551.257 285.084 551.456 285.084C551.655 285.084 551.846 285.17 551.987 285.325L555.445 289.108C555.515 289.184 555.57 289.274 555.608 289.374C555.646 289.474 555.665 289.581 555.665 289.689C555.665 289.797 555.646 289.905 555.608 290.004C555.57 290.104 555.515 290.195 555.445 290.271C555.304 290.424 555.114 290.51 554.915 290.51" fill="white"/>
<path d="M551.636 295.174C551.504 295.174 551.375 295.136 551.26 295.063L547.025 292.39C546.939 292.337 546.864 292.266 546.803 292.181C546.743 292.096 546.698 291.999 546.672 291.895C546.645 291.791 546.638 291.682 546.65 291.574C546.662 291.467 546.694 291.363 546.742 291.27C546.841 291.079 547.005 290.94 547.197 290.882C547.389 290.824 547.594 290.851 547.767 290.959L547.778 290.966L552.013 293.639C552.099 293.692 552.174 293.764 552.234 293.849C552.294 293.935 552.338 294.033 552.363 294.138C552.389 294.242 552.395 294.351 552.382 294.459C552.37 294.566 552.337 294.669 552.288 294.763C552.221 294.888 552.125 294.992 552.011 295.064C551.896 295.136 551.766 295.173 551.634 295.173" fill="white"/>
<path d="M549.578 300.602C549.512 300.602 549.446 300.593 549.382 300.573L544.661 299.186C544.563 299.161 544.471 299.115 544.39 299.05C544.309 298.985 544.24 298.902 544.188 298.807C544.137 298.713 544.103 298.607 544.089 298.498C544.075 298.388 544.082 298.277 544.108 298.17C544.134 298.063 544.179 297.963 544.241 297.876C544.303 297.789 544.38 297.717 544.468 297.663C544.556 297.61 544.653 297.576 544.752 297.565C544.852 297.554 544.953 297.564 545.049 297.597L549.774 298.981C549.95 299.031 550.104 299.15 550.206 299.317C550.308 299.483 550.351 299.685 550.327 299.884C550.303 300.083 550.214 300.266 550.076 300.397C549.938 300.528 549.762 300.6 549.579 300.598" fill="white"/>
<path d="M548.88 306.423H543.988C543.791 306.423 543.601 306.336 543.461 306.182C543.321 306.028 543.242 305.819 543.242 305.6C543.242 305.382 543.321 305.173 543.461 305.019C543.601 304.865 543.791 304.778 543.988 304.778H548.88C549.078 304.778 549.268 304.865 549.408 305.019C549.548 305.173 549.627 305.382 549.627 305.6C549.627 305.819 549.548 306.028 549.408 306.182C549.268 306.336 549.078 306.423 548.88 306.423Z" fill="white"/>
<path d="M544.855 313.638C544.673 313.64 544.497 313.568 544.359 313.437C544.221 313.306 544.132 313.123 544.108 312.924C544.084 312.725 544.127 312.523 544.229 312.357C544.331 312.19 544.484 312.071 544.661 312.021L549.386 310.637C549.481 310.607 549.58 310.599 549.678 310.612C549.776 310.625 549.871 310.66 549.957 310.713C550.043 310.767 550.118 310.839 550.179 310.925C550.239 311.011 550.283 311.109 550.309 311.215C550.335 311.32 550.341 311.429 550.328 311.537C550.315 311.645 550.283 311.749 550.233 311.843C550.183 311.937 550.117 312.019 550.038 312.085C549.959 312.15 549.87 312.198 549.774 312.225L545.05 313.609C544.986 313.628 544.921 313.638 544.855 313.638Z" fill="white"/>
<path d="M547.405 320.354C547.24 320.355 547.08 320.296 546.949 320.186C546.819 320.077 546.724 319.922 546.681 319.748C546.638 319.573 546.649 319.387 546.712 319.22C546.774 319.053 546.885 318.913 547.028 318.822L551.263 316.15C551.435 316.039 551.64 316.007 551.833 316.062C552.026 316.116 552.192 316.253 552.294 316.441C552.344 316.534 552.376 316.638 552.39 316.745C552.404 316.852 552.398 316.961 552.373 317.066C552.348 317.17 552.304 317.268 552.245 317.354C552.185 317.44 552.111 317.512 552.026 317.566L552.016 317.574L547.78 320.246C547.666 320.319 547.536 320.357 547.405 320.357" fill="white"/>
<path d="M551.453 326.122C551.305 326.123 551.16 326.076 551.036 325.986C550.912 325.896 550.816 325.768 550.759 325.617C550.702 325.467 550.687 325.301 550.716 325.14C550.745 324.98 550.816 324.833 550.922 324.718L554.379 320.935C554.521 320.781 554.712 320.695 554.911 320.695C555.11 320.695 555.301 320.781 555.442 320.935C555.512 321.011 555.567 321.101 555.605 321.201C555.643 321.301 555.663 321.408 555.663 321.516C555.663 321.624 555.643 321.731 555.605 321.831C555.567 321.931 555.512 322.021 555.442 322.097L551.984 325.88C551.842 326.035 551.652 326.122 551.453 326.122Z" fill="white"/>
<path d="M556.727 330.549C556.595 330.551 556.466 330.514 556.351 330.443C556.236 330.371 556.141 330.268 556.074 330.142C556.008 330.017 555.973 329.875 555.973 329.73C555.972 329.584 556.007 329.442 556.073 329.316L558.52 324.688C558.619 324.498 558.783 324.359 558.975 324.301C559.167 324.244 559.372 324.272 559.545 324.38C559.631 324.432 559.706 324.503 559.767 324.588C559.827 324.673 559.872 324.771 559.898 324.875C559.925 324.979 559.932 325.088 559.919 325.196C559.907 325.303 559.876 325.407 559.827 325.5L559.823 325.509L557.377 330.139C557.31 330.265 557.215 330.369 557.1 330.441C556.985 330.514 556.855 330.551 556.723 330.55" fill="white"/>
<path d="M562.878 333.334C562.812 333.334 562.746 333.324 562.682 333.305C562.588 333.277 562.498 333.23 562.42 333.164C562.342 333.099 562.277 333.017 562.227 332.923C562.178 332.83 562.146 332.726 562.133 332.619C562.12 332.512 562.126 332.403 562.151 332.299L563.417 327.135C563.467 326.925 563.589 326.744 563.758 326.632C563.927 326.52 564.129 326.486 564.321 326.537C564.513 326.587 564.679 326.719 564.783 326.903C564.888 327.087 564.922 327.31 564.88 327.522L564.87 327.561L563.604 332.725C563.56 332.9 563.466 333.054 563.335 333.164C563.204 333.274 563.043 333.334 562.878 333.334Z" fill="white"/>
<path d="M289.045 409.481L304.094 279.974L307.079 280.392L292.03 409.898L289.045 409.481Z" fill="#7E40FF"/>
<path d="M469.337 280.38L472.323 279.962L487.365 409.477L484.38 409.894L469.337 280.38Z" fill="#7E40FF"/>
<path d="M480.198 262.755H296.211V280.173H480.198V262.755Z" fill="#C98A65"/>
<path d="M476.061 275.649H300.351V267.277H476.061V275.649ZM301.1 274.827H475.31V268.099H301.1V274.827Z" fill="#AD6E49"/>
<path d="M484.077 262.756H292.327C292.074 262.762 291.823 262.712 291.587 262.609C291.352 262.506 291.138 262.353 290.957 262.158C290.777 261.963 290.633 261.73 290.535 261.473C290.437 261.216 290.387 260.941 290.387 260.662C290.387 260.383 290.437 260.107 290.535 259.85C290.633 259.593 290.777 259.361 290.957 259.166C291.138 258.971 291.352 258.817 291.587 258.715C291.823 258.612 292.074 258.562 292.327 258.568H484.077C484.329 258.562 484.581 258.612 484.816 258.715C485.051 258.817 485.265 258.971 485.446 259.166C485.627 259.361 485.77 259.593 485.868 259.85C485.966 260.107 486.017 260.383 486.017 260.662C486.017 260.941 485.966 261.216 485.868 261.473C485.77 261.73 485.627 261.963 485.446 262.158C485.265 262.353 485.051 262.506 484.816 262.609C484.581 262.712 484.329 262.762 484.077 262.756Z" fill="#F7B690"/>
<path d="M388.58 267.377H387.828V275.239H388.58V267.377Z" fill="#AD6E49"/>
<path d="M343.459 271.464C343.461 271.812 343.37 272.153 343.197 272.444C343.023 272.735 342.775 272.962 342.484 273.098C342.193 273.233 341.872 273.27 341.562 273.204C341.252 273.138 340.966 272.971 340.742 272.726C340.518 272.481 340.365 272.168 340.302 271.827C340.24 271.486 340.27 271.132 340.391 270.81C340.511 270.488 340.716 270.213 340.978 270.019C341.241 269.826 341.549 269.722 341.865 269.723C342.074 269.722 342.28 269.766 342.473 269.853C342.666 269.94 342.841 270.068 342.989 270.23C343.137 270.391 343.255 270.583 343.335 270.795C343.416 271.007 343.458 271.234 343.459 271.464Z" fill="#F7B690"/>
<path d="M436.138 271.464C436.141 271.812 436.05 272.153 435.876 272.444C435.703 272.735 435.455 272.962 435.164 273.098C434.873 273.233 434.552 273.27 434.241 273.204C433.931 273.138 433.646 272.971 433.422 272.726C433.197 272.481 433.044 272.168 432.982 271.827C432.919 271.486 432.95 271.132 433.07 270.81C433.191 270.488 433.395 270.213 433.658 270.019C433.92 269.826 434.229 269.722 434.545 269.723C434.753 269.722 434.96 269.766 435.153 269.853C435.346 269.94 435.521 270.068 435.669 270.23C435.817 270.391 435.934 270.583 436.015 270.795C436.095 271.007 436.137 271.234 436.138 271.464Z" fill="#F7B690"/>
<path d="M320.365 230.759V149.355C320.37 148.21 320.786 147.114 321.524 146.308C322.261 145.502 323.259 145.052 324.297 145.057H434.847C435.886 145.052 436.884 145.502 437.621 146.308C438.358 147.114 438.775 148.21 438.779 149.355V230.758C438.777 231.325 438.674 231.885 438.475 232.408C438.277 232.931 437.986 233.405 437.621 233.804C437.256 234.203 436.823 234.519 436.347 234.734C435.871 234.949 435.362 235.058 434.847 235.056H324.297C323.783 235.058 323.273 234.949 322.797 234.734C322.321 234.519 321.888 234.203 321.523 233.804C321.158 233.405 320.868 232.931 320.669 232.408C320.471 231.885 320.367 231.325 320.365 230.758" fill="#7599EA"/>
<path d="M389.209 256.034V231.042H369.771V257.267C369.773 257.595 369.893 257.91 370.104 258.141C370.316 258.372 370.602 258.501 370.9 258.499H410.943C411.239 258.499 411.524 258.369 411.734 258.138C411.944 257.907 412.062 257.593 412.062 257.266C412.062 256.939 411.944 256.625 411.734 256.394C411.524 256.163 411.239 256.033 410.943 256.033L389.209 256.034Z" fill="#AEC3FF"/>
<path d="M370.535 256.034V231.042H368.279V257.267C368.281 257.595 368.4 257.909 368.611 258.14C368.823 258.371 369.109 258.501 369.407 258.499H392.273C392.57 258.499 392.855 258.369 393.065 258.138C393.274 257.907 393.392 257.593 393.392 257.266C393.392 256.939 393.274 256.625 393.065 256.394C392.855 256.163 392.57 256.033 392.273 256.033L370.535 256.034Z" fill="#7599EA"/>
<path d="M322.62 230.759V149.355C322.624 148.21 323.041 147.114 323.778 146.308C324.516 145.502 325.514 145.052 326.552 145.057H437.102C438.141 145.052 439.139 145.502 439.876 146.308C440.613 147.114 441.03 148.21 441.034 149.355V230.758C441.032 231.325 440.929 231.885 440.73 232.408C440.532 232.931 440.241 233.405 439.876 233.804C439.511 234.203 439.078 234.519 438.602 234.734C438.126 234.949 437.617 235.058 437.102 235.056H326.552C326.038 235.058 325.528 234.949 325.052 234.734C324.576 234.519 324.143 234.203 323.778 233.804C323.413 233.405 323.123 232.931 322.924 232.408C322.725 231.885 322.622 231.325 322.62 230.758" fill="#AEC3FF"/>
<path d="M436.523 149.99H327.135V226.011H436.523V149.99Z" fill="#588DFF"/>
<path d="M381.828 232.054C382.648 232.054 383.313 231.327 383.313 230.43C383.313 229.533 382.648 228.806 381.828 228.806C381.008 228.806 380.343 229.533 380.343 230.43C380.343 231.327 381.008 232.054 381.828 232.054Z" fill="#F7F6F0"/>
<path d="M389.207 237.185L370.535 238.83V235.054H389.207V237.185Z" fill="#7599EA"/>
<path d="M424.448 169.273H339.21C339.012 169.273 338.822 169.186 338.682 169.032C338.542 168.878 338.464 168.669 338.464 168.451C338.464 168.232 338.542 168.023 338.682 167.869C338.822 167.715 339.012 167.628 339.21 167.628H424.448C424.646 167.628 424.836 167.715 424.976 167.869C425.116 168.023 425.194 168.232 425.194 168.451C425.194 168.669 425.116 168.878 424.976 169.032C424.836 169.186 424.646 169.273 424.448 169.273Z" fill="#F7F6F0"/>
<path d="M424.448 179.048H339.21C339.012 179.048 338.822 178.961 338.682 178.807C338.542 178.652 338.464 178.443 338.464 178.225C338.464 178.007 338.542 177.798 338.682 177.644C338.822 177.489 339.012 177.403 339.21 177.403H424.448C424.646 177.403 424.836 177.489 424.976 177.644C425.116 177.798 425.194 178.007 425.194 178.225C425.194 178.443 425.116 178.652 424.976 178.807C424.836 178.961 424.646 179.048 424.448 179.048Z" fill="#F7F6F0"/>
<path d="M424.448 188.822H339.21C339.012 188.822 338.822 188.735 338.682 188.581C338.542 188.427 338.464 188.218 338.464 188C338.464 187.782 338.542 187.572 338.682 187.418C338.822 187.264 339.012 187.177 339.21 187.177H424.448C424.646 187.177 424.836 187.264 424.976 187.418C425.116 187.572 425.194 187.782 425.194 188C425.194 188.218 425.116 188.427 424.976 188.581C424.836 188.735 424.646 188.822 424.448 188.822Z" fill="#F7F6F0"/>
<path d="M424.448 198.597H339.21C339.012 198.597 338.822 198.51 338.682 198.356C338.542 198.202 338.464 197.992 338.464 197.774C338.464 197.556 338.542 197.347 338.682 197.193C338.822 197.038 339.012 196.952 339.21 196.952H424.448C424.646 196.952 424.836 197.038 424.976 197.193C425.116 197.347 425.194 197.556 425.194 197.774C425.194 197.992 425.116 198.202 424.976 198.356C424.836 198.51 424.646 198.597 424.448 198.597Z" fill="#F7F6F0"/>
<path d="M384.666 208.371H339.21C339.112 208.371 339.015 208.35 338.925 208.309C338.834 208.267 338.752 208.207 338.682 208.13C338.613 208.054 338.558 207.963 338.521 207.863C338.483 207.764 338.464 207.657 338.464 207.549C338.464 207.441 338.483 207.334 338.521 207.234C338.558 207.134 338.613 207.044 338.682 206.967C338.752 206.891 338.834 206.83 338.925 206.789C339.015 206.748 339.112 206.726 339.21 206.726H384.666C384.764 206.726 384.862 206.748 384.952 206.789C385.043 206.83 385.125 206.891 385.194 206.967C385.264 207.044 385.318 207.134 385.356 207.234C385.394 207.334 385.413 207.441 385.413 207.549C385.413 207.657 385.394 207.764 385.356 207.863C385.318 207.963 385.264 208.054 385.194 208.13C385.125 208.207 385.043 208.267 384.952 208.309C384.862 208.35 384.764 208.371 384.666 208.371Z" fill="#F7F6F0"/>
<path d="M380.7 81.5902L334.084 95.7517L338.533 156.015C339.174 164.58 341.603 172.866 345.63 180.226C349.658 187.585 355.174 193.82 361.748 198.443L380.696 211.809L399.645 198.443C406.219 193.82 411.736 187.585 415.763 180.226C419.79 172.866 422.219 164.58 422.861 156.015L427.31 95.7517L380.7 81.5902Z" fill="#7E40FF"/>
<path d="M380.701 208.876L362.975 196.373C356.705 191.937 351.443 185.973 347.595 178.942C343.747 171.91 341.416 163.999 340.781 155.818L336.482 97.5816L380.699 84.1525L380.901 84.2146L424.92 97.5825L420.617 155.819C419.982 164 417.65 171.911 413.802 178.942C409.954 185.973 404.692 191.937 398.422 196.373L380.701 208.876ZM363.792 194.992L380.701 206.919L397.61 194.992C403.687 190.692 408.787 184.912 412.516 178.098C416.245 171.283 418.505 163.616 419.121 155.687L423.318 98.8031L380.699 85.8604L338.082 98.8022L342.283 155.686C342.899 163.614 345.158 171.281 348.887 178.095C352.616 184.91 357.716 190.69 363.792 194.989" fill="#F7F6F0"/>
<path d="M403.901 142.106C403.939 147.171 402.61 152.134 400.083 156.366C397.557 160.598 393.946 163.907 389.71 165.874C385.474 167.841 380.803 168.377 376.291 167.414C371.778 166.451 367.626 164.032 364.362 160.465C361.099 156.898 358.87 152.343 357.96 147.378C357.049 142.413 357.498 137.262 359.248 132.578C360.999 127.894 363.972 123.889 367.792 121.07C371.611 118.252 376.104 116.747 380.701 116.747C386.829 116.72 392.716 119.376 397.067 124.132C401.418 128.887 403.876 135.353 403.901 142.106Z" fill="#F7F6F0"/>
<path d="M378.448 154.005C378.349 154.005 378.251 153.984 378.16 153.943C378.069 153.901 377.986 153.84 377.916 153.764L365.049 139.7C364.979 139.624 364.924 139.533 364.887 139.433C364.85 139.333 364.831 139.226 364.831 139.118C364.832 139.01 364.851 138.903 364.89 138.803C364.928 138.703 364.984 138.613 365.054 138.537C365.195 138.385 365.385 138.3 365.583 138.3C365.78 138.3 365.97 138.385 366.112 138.537L378.447 152.02L397.034 131.702C397.177 131.549 397.368 131.464 397.567 131.465C397.765 131.466 397.956 131.553 398.097 131.708C398.236 131.861 398.314 132.069 398.314 132.286C398.314 132.503 398.236 132.711 398.097 132.865L378.976 153.764C378.906 153.84 378.823 153.901 378.732 153.943C378.641 153.984 378.543 154.005 378.445 154.005" fill="#4266B2"/>
<path d="M459.407 253.926L431.631 249.878C431.546 249.87 431.46 249.868 431.374 249.871C431.374 249.856 377.795 249.856 377.795 249.856V258.566H459.124C459.662 258.57 460.182 258.347 460.577 257.943C460.971 257.539 461.211 256.984 461.247 256.392C461.283 255.799 461.113 255.214 460.77 254.756C460.428 254.297 459.94 254 459.406 253.924" fill="#D1D3D4"/>
<path d="M406.07 253.927L378.297 249.879C377.739 249.794 377.173 249.958 376.724 250.333C376.275 250.708 375.98 251.264 375.903 251.879C375.89 251.982 375.884 252.085 375.884 252.188V256.236C375.887 256.857 376.113 257.451 376.512 257.887C376.912 258.324 377.453 258.569 378.016 258.567H405.789C406.327 258.571 406.847 258.348 407.241 257.944C407.636 257.54 407.876 256.985 407.912 256.393C407.947 255.801 407.777 255.216 407.435 254.758C407.093 254.299 406.605 254.002 406.071 253.927" fill="#7599EA"/>
<path d="M434.209 388.879H426.847V403.127H434.209V388.879Z" fill="#F7B690"/>
<path d="M472.468 386.218L479.263 383.12L484.281 396.27L477.486 399.368L472.468 386.218Z" fill="#F7B690"/>
<path d="M483.109 391.006C482.961 390.759 482.73 390.585 482.467 390.524C482.204 390.462 481.929 390.518 481.703 390.678C481.599 390.751 481.508 390.845 481.436 390.954L480.57 392.244C480.451 392.42 480.288 392.555 480.101 392.63C479.914 392.706 479.71 392.72 479.516 392.67L476.604 391.92C476.133 391.798 475.641 391.82 475.18 391.982C474.719 392.145 474.307 392.442 473.988 392.842C472.932 394.169 474.097 398.198 471.554 401.515C469.744 403.83 467.564 405.758 465.122 407.205L462.997 408.494C462.88 408.564 462.778 408.659 462.694 408.773C462.611 408.887 462.549 409.018 462.512 409.158C462.475 409.299 462.464 409.446 462.479 409.591C462.494 409.737 462.535 409.877 462.6 410.005C462.687 410.175 462.812 410.317 462.964 410.417C463.116 410.518 463.289 410.573 463.465 410.577L465.067 410.618C467.151 410.673 469.222 410.248 471.149 409.37L480.103 405.286L481.463 398.991L483.943 403.535L486.003 402.596C486.126 402.54 486.238 402.459 486.332 402.356C486.426 402.252 486.501 402.129 486.551 401.994C486.602 401.859 486.628 401.714 486.628 401.567C486.628 401.421 486.601 401.276 486.55 401.141C486.528 401.08 486.5 401.021 486.468 400.965L483.109 391.006Z" fill="#222B54"/>
<path d="M491.901 280.174L436.522 300.008L472.132 387.335L481.091 384.349C474.842 359.021 471.152 339.285 466.794 322.605C475.982 322.005 485.847 321.009 495.765 319.794C508.728 319.794 519.238 305.156 519.238 287.099V284.796L491.901 280.174Z" fill="#7E40FF"/>
<path d="M486.031 280.174C463.201 285.398 439.64 292.088 415.461 300.009L426.219 391.931H435.583C436.488 364.49 438.69 342.372 438.409 323.169C454.119 322.884 477.276 321.575 495.77 319.795C512.291 319.795 520.871 307.2 520.871 287.101V284.798L486.031 280.174Z" fill="#7E40FF"/>
<path d="M499.842 173.368H489.447V196.887H499.842V173.368Z" fill="#F7B690"/>
<path d="M500.28 172.357L497.617 178.491C497.11 179.656 496.372 180.68 495.458 181.489C494.544 182.298 493.477 182.87 492.336 183.165L491.323 183.426C490.174 183.736 488.975 183.755 487.818 183.481C486.662 183.206 485.577 182.645 484.645 181.841C483.714 181.037 482.96 180.01 482.442 178.837C481.923 177.665 481.653 176.379 481.652 175.075V162.69C481.657 161.558 481.863 160.438 482.26 159.394C482.657 158.35 483.237 157.402 483.966 156.605C484.695 155.808 485.56 155.177 486.511 154.748C487.461 154.319 488.479 154.101 489.506 154.106H492.99C494.962 154.098 496.863 154.91 498.315 156.379C499.767 157.849 500.662 159.868 500.822 162.033L501.013 168.024C501.118 169.517 500.864 171.013 500.277 172.363" fill="#F7B690"/>
<path d="M485.097 244.605L484.279 250.19C498.702 256.702 512.916 260.569 526.851 260.989L520.537 246.612L485.095 244.603" fill="#3E609C"/>
<path d="M497.164 205.503C501.335 222.69 506.615 239.526 512.963 255.884L526.821 260.876C526.014 242.82 521.552 213.058 511.215 199.247L497.164 205.503Z" fill="#3E609C"/>
<path d="M522.378 284.798H474.426C473.751 284.799 473.084 284.632 472.475 284.31C472.082 284.134 471.723 283.875 471.421 283.546C471.118 283.217 470.878 282.825 470.714 282.393C470.549 281.962 470.464 281.498 470.463 281.03C470.462 280.562 470.545 280.098 470.707 279.665C470.768 279.505 470.84 279.35 470.921 279.201L481.006 256.5C480.245 240.709 471.815 224.635 475.238 199.257C487.239 192.561 500.825 190.896 511.219 199.257C529.294 225.479 509.214 258.102 522.375 284.805" fill="#4F74B5"/>
<path d="M477.757 237.278L487.015 222.442L480.291 249.858L477.757 237.278Z" fill="#3E609C"/>
<path d="M504.638 170.199C505.436 167.996 505.946 165.68 506.152 163.319C507.004 156.833 505.631 153.551 499.326 154.19C493.84 154.746 493.598 153.809 490.933 150.798C489.092 148.616 486.624 147.201 483.946 146.792C476.962 145.966 473.373 153.728 476.881 158.04C479.707 161.513 484.901 160.287 488.515 161.041C493.817 162.149 493.774 166.086 494.272 167.774C495.43 171.722 498.009 177.677 499.831 177.677C500.786 177.677 504.041 171.623 504.631 170.201" fill="#2C3A64"/>
<path d="M434.982 397.777C434.951 397.599 434.882 397.433 434.78 397.291C434.678 397.149 434.547 397.037 434.397 396.963C434.247 396.889 434.084 396.857 433.92 396.867C433.756 396.878 433.598 396.932 433.457 397.025L432.203 397.853C432.032 397.966 431.834 398.02 431.635 398.011C431.436 398.002 431.243 397.929 431.081 397.801L428.657 395.885C428.263 395.574 427.801 395.386 427.318 395.342C426.835 395.297 426.351 395.398 425.916 395.634C424.472 396.418 424.13 400.622 420.615 402.612C418.13 403.987 415.439 404.85 412.673 405.158L410.255 405.452C410.033 405.477 409.825 405.581 409.663 405.75C409.501 405.919 409.395 406.142 409.36 406.384C409.325 406.627 409.365 406.875 409.472 407.09C409.579 407.305 409.748 407.476 409.952 407.574L411.415 408.285C413.323 409.214 415.386 409.693 417.472 409.692H427.175L430.647 404.455L431.335 409.692H433.566C433.834 409.693 434.092 409.576 434.283 409.367C434.473 409.159 434.581 408.875 434.583 408.579C434.583 408.513 434.577 408.446 434.565 408.381L434.982 397.777Z" fill="#0A3C5F"/>
<path d="M417.956 247.42L405.78 242.946C404.969 242.648 404.097 242.617 403.27 242.855L393.229 245.754C393.089 245.795 392.959 245.867 392.846 245.967C392.734 246.067 392.641 246.192 392.575 246.333L390.994 249.729C390.932 249.861 390.893 250.004 390.881 250.151C390.869 250.299 390.884 250.448 390.924 250.589C390.964 250.73 391.03 250.861 391.116 250.975C391.203 251.088 391.309 251.181 391.428 251.249C391.67 251.388 391.952 251.415 392.212 251.327C392.472 251.238 392.69 251.039 392.818 250.774L393.954 248.468C394.023 248.331 394.116 248.211 394.228 248.115C394.341 248.019 394.47 247.95 394.608 247.913L397.705 247.051C397.839 247.014 397.979 247.007 398.116 247.03C398.253 247.053 398.384 247.106 398.502 247.187L403.093 250.299C405.056 251.627 407.316 252.325 409.619 252.315L417.457 252.281L417.956 247.42Z" fill="#F7B690"/>
<path d="M485.992 160.754C487.865 161.956 489.354 163.766 490.257 165.937C491.159 168.108 491.431 170.534 491.033 172.882C490.755 174.344 490.208 175.817 490.475 177.283C490.867 179.45 492.865 180.796 493.774 182.771C494.755 184.89 494.357 187.468 493.557 189.677C492.758 191.886 491.58 193.931 490.983 196.217C490.386 198.502 490.493 201.216 491.993 202.93C493.024 204.101 494.543 204.63 495.623 205.751C497.101 207.282 497.516 209.671 497.576 211.902C497.635 214.132 497.423 216.405 497.966 218.549C498.409 220.046 499.131 221.426 500.085 222.6C501.038 223.774 502.203 224.716 503.505 225.368C506.127 226.659 508.962 227.346 511.834 227.384C517.529 227.678 523.221 226.745 528.592 224.637C530.935 223.831 533.101 222.496 534.951 220.718C535.865 219.826 536.584 218.716 537.052 217.473C537.52 216.23 537.726 214.886 537.654 213.543C537.335 210.369 535.038 207.82 532.504 206.238C529.97 204.656 527.109 203.784 524.506 202.342C521.903 200.901 519.423 198.668 518.673 195.586C518.092 193.198 518.627 190.681 518.876 188.226C519.126 185.77 518.987 183.007 517.405 181.24C515.458 179.067 512.128 179.258 509.905 177.427C507.993 175.85 507.268 173.088 506.946 170.491C506.624 167.894 506.561 165.176 505.512 162.826C503.903 159.23 500.219 157.184 496.58 156.729C492.942 156.274 489.287 157.152 485.713 158.027L485.992 160.754Z" fill="#2C3A64"/>
<path d="M487.452 171.788C486.841 173.775 487.526 175.385 488.98 175.385C490.435 175.385 492.106 173.775 492.717 171.788C493.328 169.801 492.642 168.191 491.189 168.191C489.737 168.191 488.062 169.801 487.452 171.788Z" fill="#F7B690"/>
<path d="M416.871 246.716L416.289 252.338C430.971 258.122 445.332 261.272 459.268 260.993L452.955 246.611C441.94 246.541 429.301 246.791 416.87 246.713" fill="#4F74B5"/>
<path d="M475.236 199.249C466.798 214.433 459.353 230.261 452.957 246.613L459.269 260.992C470.618 247.84 480.407 234.582 487.725 221.151L475.236 199.249Z" fill="#4F74B5"/>
<path d="M436.143 409.481L446.403 321.182L449.388 321.6L439.128 409.898L436.143 409.481Z" fill="#7E40FF"/>
<path d="M506.406 321.592L509.391 321.174L519.646 409.474L516.661 409.891L506.406 321.592Z" fill="#7E40FF"/>
<path d="M535.382 272.915H487.352C486.961 272.917 486.574 272.834 486.213 272.671C485.851 272.507 485.522 272.267 485.245 271.964C484.967 271.661 484.747 271.3 484.596 270.903C484.445 270.506 484.367 270.08 484.365 269.649V247.876C484.367 247.445 484.445 247.019 484.596 246.622C484.747 246.224 484.967 245.864 485.245 245.561C485.522 245.257 485.851 245.017 486.213 244.854C486.574 244.691 486.961 244.608 487.352 244.609H535.382C535.773 244.608 536.16 244.691 536.521 244.854C536.883 245.017 537.212 245.257 537.489 245.56C537.766 245.863 537.987 246.223 538.138 246.62C538.289 247.018 538.367 247.443 538.369 247.874V269.648C538.367 270.079 538.289 270.505 538.138 270.902C537.987 271.299 537.767 271.66 537.489 271.963C537.212 272.266 536.883 272.506 536.521 272.67C536.16 272.833 535.773 272.917 535.382 272.915Z" fill="#F7B690"/>
<path d="M480.199 322.72C479.966 322.72 479.736 322.66 479.528 322.546C479.32 322.431 479.138 322.265 478.998 322.06C478.858 321.855 478.763 321.617 478.721 321.365C478.679 321.112 478.691 320.853 478.755 320.606L492.663 269.545C492.782 269.126 493.047 268.776 493.399 268.572C493.751 268.367 494.163 268.325 494.543 268.454C494.919 268.578 495.235 268.861 495.422 269.241C495.61 269.621 495.654 270.067 495.545 270.482L481.64 321.543C481.546 321.884 481.355 322.183 481.096 322.395C480.836 322.607 480.521 322.721 480.198 322.72" fill="#D1D3D4"/>
<path d="M515.753 322.72C515.52 322.721 515.289 322.663 515.08 322.549C514.871 322.435 514.689 322.268 514.548 322.063C514.408 321.857 514.313 321.618 514.272 321.365C514.23 321.112 514.243 320.852 514.309 320.605L528.217 269.544C528.334 269.127 528.595 268.779 528.944 268.573C529.292 268.367 529.7 268.321 530.08 268.444C530.459 268.568 530.779 268.851 530.97 269.232C531.161 269.614 531.208 270.063 531.101 270.482L517.193 321.543C517.1 321.884 516.909 322.183 516.649 322.395C516.389 322.607 516.075 322.721 515.751 322.72" fill="#D1D3D4"/>
<path d="M517.35 323.169H438.438C438.185 323.175 437.934 323.125 437.699 323.022C437.464 322.92 437.249 322.767 437.069 322.572C436.888 322.377 436.744 322.144 436.647 321.887C436.549 321.63 436.498 321.354 436.498 321.075C436.498 320.797 436.549 320.521 436.647 320.264C436.744 320.007 436.888 319.774 437.069 319.579C437.249 319.384 437.464 319.231 437.699 319.128C437.934 319.026 438.185 318.976 438.438 318.981H517.35C517.603 318.976 517.855 319.026 518.09 319.128C518.325 319.231 518.539 319.384 518.72 319.579C518.9 319.774 519.044 320.007 519.142 320.264C519.24 320.521 519.29 320.797 519.29 321.075C519.29 321.354 519.24 321.63 519.142 321.887C519.044 322.144 518.9 322.377 518.72 322.572C518.539 322.767 518.325 322.92 518.09 323.022C517.855 323.125 517.603 323.175 517.35 323.169Z" fill="#F7B690"/>
<path d="M264.884 134.195C278.661 150.523 289.985 164.599 298.476 184.55C311.692 183.591 328.461 185.271 343.354 183.728L344.649 193.456C328.473 199.327 311.32 203.172 293.466 205.558C280.604 196.883 269.923 185.081 261.293 170.393L264.884 134.195Z" fill="#7E40FF"/>
<path d="M266.828 216.851L231.648 227.825C240.367 256.07 248.984 288.659 257.442 306.84L278.024 311.827L266.828 216.851Z" fill="#163560"/>
<path d="M271.176 221.44C268.429 216.917 266.73 211.321 266.042 204.685C264.375 181.162 264.244 160.495 264.884 134.191C254.131 126.469 238.283 123.821 222.74 130.254C217.97 151.433 216.725 174.694 215.842 199.466C215.539 208.436 215.164 215.771 211.664 221.437C211.37 221.841 211.153 222.306 211.023 222.805C210.894 223.303 210.855 223.824 210.91 224.339C210.965 224.854 211.111 225.351 211.342 225.803C211.572 226.255 211.881 226.652 212.252 226.971C212.903 227.534 213.709 227.834 214.537 227.821H268.243C268.922 227.837 269.591 227.642 270.173 227.257C270.755 226.872 271.227 226.314 271.534 225.647C271.841 224.979 271.97 224.23 271.907 223.485C271.845 222.74 271.592 222.03 271.179 221.437" fill="#7E40FF"/>
<path d="M217.396 168.93L230.639 157.028L215.976 195.911L217.396 168.93Z" fill="#7E40FF"/>
<path d="M239.604 397.694L243.15 383.988L250.232 386.176L246.686 399.882L239.604 397.694Z" fill="#F7B690"/>
<path d="M259.74 406.044L257.355 405.517C255.362 405.075 253.428 404.355 251.6 403.375L248.494 398.594C248.211 398.161 247.827 397.82 247.383 397.609C246.939 397.398 246.451 397.323 245.971 397.394L243.005 397.829C242.808 397.859 242.607 397.824 242.427 397.729C242.247 397.634 242.097 397.482 241.995 397.294L241.249 395.916C241.111 395.662 240.887 395.479 240.627 395.406C240.367 395.333 240.091 395.376 239.86 395.525C239.754 395.593 239.66 395.682 239.583 395.787L235.812 400.94C235.728 401.054 235.666 401.185 235.629 401.326C235.592 401.466 235.581 401.614 235.596 401.759C235.612 401.905 235.653 402.045 235.718 402.173C235.783 402.301 235.87 402.413 235.975 402.503C236.023 402.545 236.074 402.582 236.127 402.613L239.417 404.548L240.511 403.912C242.783 406.469 245.658 408.277 248.811 409.132C251.964 409.988 255.271 409.858 258.361 408.757L259.875 408.19C260.086 408.112 260.267 407.96 260.391 407.756C260.515 407.553 260.574 407.31 260.559 407.065C260.545 406.821 260.457 406.588 260.31 406.405C260.162 406.221 259.964 406.096 259.746 406.05" fill="#222B54"/>
<path d="M257.438 306.843C250.294 328.561 247.641 350.311 241.491 387.248L250.634 389.462L278.019 311.831L257.438 306.843Z" fill="#163560"/>
<path d="M232.435 388.879H225.073V403.127H232.435V388.879Z" fill="#F7B690"/>
<path d="M251.422 227.826H214.839C216.128 257.602 218.296 286.907 221.862 306.93H242.944L251.422 227.826Z" fill="#244F8E"/>
<path d="M221.863 306.929C219.188 329.823 222.533 356.422 223.703 391.93H233.069L242.944 306.929H221.863Z" fill="#244F8E"/>
<path d="M234.275 154.953L222.74 130.263C205.388 138.01 184.787 159.775 176.501 173.591L195.805 179.987C214.285 171.255 218.964 169.56 234.275 154.956" fill="#7E40FF"/>
<path d="M213.283 222.464C205.885 208.256 202.022 192.763 195.801 179.981L176.497 173.586C179.755 196.654 195.775 215.938 207.309 229.657L213.283 222.464Z" fill="#7E40FF"/>
<path d="M213.288 222.465L217.113 220.617C219.278 219.571 221.674 219.245 224.005 219.68L229.878 220.773C229.994 220.794 230.104 220.843 230.2 220.917C230.295 220.991 230.375 221.088 230.432 221.201C230.488 221.314 230.521 221.439 230.527 221.568C230.534 221.697 230.513 221.826 230.467 221.945C230.34 222.275 230.119 222.552 229.837 222.733C229.555 222.914 229.228 222.99 228.904 222.949L222.677 222.177C222.576 222.163 222.474 222.171 222.376 222.2C222.278 222.229 222.186 222.28 222.106 222.348C222.026 222.417 221.958 222.502 221.908 222.599C221.857 222.696 221.825 222.803 221.812 222.914C221.799 223.025 221.806 223.138 221.833 223.246C221.859 223.354 221.905 223.455 221.967 223.544C222.029 223.632 222.107 223.706 222.195 223.762C222.283 223.818 222.38 223.854 222.481 223.868L236.076 225.949C236.177 225.964 236.274 226.001 236.363 226.057C236.451 226.114 236.528 226.189 236.589 226.279C236.651 226.368 236.696 226.47 236.722 226.579C236.748 226.688 236.754 226.801 236.74 226.912C236.731 226.977 236.717 227.04 236.696 227.101C235.906 229.324 234.492 231.21 232.66 232.484C230.828 233.758 228.674 234.353 226.513 234.183L220.401 233.715C217.882 233.523 215.414 232.848 213.106 231.721L207.772 229.117L213.288 222.465Z" fill="#F7B690"/>
<path d="M252.223 122.367H232.595V130.258H252.223V122.367Z" fill="#7E40FF"/>
<path d="M246.003 105.125H235.608V122.368H246.003V105.125Z" fill="#F7B690"/>
<path d="M235.172 104.121L237.835 110.255C238.342 111.419 239.08 112.444 239.994 113.252C240.908 114.061 241.975 114.634 243.117 114.928L244.129 115.19C245.279 115.5 246.477 115.519 247.634 115.244C248.791 114.97 249.876 114.409 250.807 113.605C251.738 112.8 252.492 111.773 253.01 110.601C253.529 109.429 253.799 108.142 253.8 106.838V94.4487C253.796 93.3167 253.589 92.1968 253.192 91.1528C252.795 90.1088 252.216 89.1612 251.486 88.3642C250.757 87.5671 249.892 86.9361 248.942 86.5073C247.991 86.0785 246.973 85.8602 245.946 85.8649H242.46C240.489 85.8571 238.588 86.6691 237.136 88.1386C235.685 89.6082 234.79 91.6271 234.631 93.792L234.439 99.7832C234.334 101.276 234.588 102.772 235.175 104.122" fill="#F7B690"/>
<path d="M230.806 101.955C230.008 99.7528 229.498 97.4361 229.293 95.0751C228.442 88.5894 229.813 85.3078 236.118 85.9464C241.605 86.5031 241.847 85.5654 244.511 82.5549C246.352 80.3727 248.82 78.9575 251.499 78.5482C258.483 77.7221 262.072 85.4843 258.564 89.7965C255.739 93.2699 250.543 92.043 246.926 92.7979C241.625 93.9059 241.667 97.8424 241.171 99.5305C240.013 103.479 237.434 109.434 235.612 109.434C234.656 109.434 231.401 103.38 230.812 101.957" fill="#2C3A64"/>
<path d="M241.081 103.543C241.692 105.53 241.008 107.14 239.553 107.14C238.098 107.14 236.427 105.53 235.816 103.543C235.206 101.556 235.89 99.9459 237.344 99.9459C238.798 99.9459 240.472 101.556 241.081 103.543Z" fill="#F7B690"/>
<path d="M343.353 183.728L346.658 181.334C348.616 179.918 350.82 178.969 353.13 178.547L364.597 176.457C364.85 176.408 365.11 176.468 365.325 176.625C365.539 176.781 365.691 177.022 365.749 177.298C365.807 177.574 365.767 177.864 365.637 178.109C365.506 178.353 365.296 178.533 365.049 178.612L358.117 180.845C357.918 180.908 357.742 181.037 357.612 181.214C357.483 181.392 357.406 181.609 357.392 181.836L357.16 185.63C357.544 192.686 349.956 189.735 344.441 191.924L343.353 183.728Z" fill="#F7B690"/>
<path d="M347.725 191.297L347.632 190.486L355.254 189.447C355.446 189.405 355.617 189.287 355.734 189.115C355.851 188.943 355.906 188.729 355.889 188.514C355.871 188.3 355.782 188.1 355.639 187.954C355.495 187.808 355.308 187.725 355.112 187.722H354.54C353.608 187.726 352.687 187.499 351.845 187.057C351.004 186.615 350.263 185.97 349.679 185.17L350.266 184.656C350.779 185.359 351.43 185.926 352.169 186.314C352.909 186.702 353.718 186.902 354.537 186.899H355.109C355.496 186.897 355.869 187.057 356.153 187.345C356.438 187.634 356.613 188.03 356.644 188.454C356.675 188.879 356.56 189.301 356.321 189.636C356.081 189.971 355.736 190.194 355.354 190.26L347.725 191.297Z" fill="#7E40FF"/>
<path d="M249.537 405.447L247.118 405.152C244.357 404.817 241.67 403.956 239.177 402.608L233.877 399.739C233.442 399.504 232.957 399.403 232.474 399.447C231.992 399.491 231.529 399.679 231.135 399.99L228.71 401.907C228.548 402.035 228.356 402.108 228.157 402.117C227.958 402.126 227.76 402.071 227.589 401.959L226.335 401.13C226.104 400.979 225.828 400.933 225.567 401.004C225.306 401.075 225.08 401.256 224.94 401.509C224.876 401.624 224.832 401.751 224.81 401.883L223.723 408.369C223.699 408.513 223.702 408.661 223.73 408.804C223.759 408.947 223.812 409.083 223.888 409.203C223.964 409.323 224.061 409.426 224.173 409.505C224.285 409.583 224.41 409.637 224.541 409.663C224.601 409.675 224.663 409.681 224.725 409.682H228.46L229.148 408.556L232.62 409.682H242.322C244.408 409.682 246.47 409.203 248.378 408.275L249.843 407.561C249.964 407.503 250.074 407.418 250.166 407.313C250.258 407.207 250.329 407.083 250.377 406.946C250.425 406.81 250.448 406.664 250.445 406.518C250.441 406.372 250.412 406.228 250.358 406.095C250.285 405.917 250.171 405.763 250.028 405.648C249.884 405.534 249.716 405.463 249.54 405.442" fill="#0A3C5F"/>
<path d="M424.801 53.2016H324.821C321.259 53.2016 317.843 51.6425 315.325 48.8673C312.806 46.092 311.392 42.328 311.392 38.4033C311.392 34.4785 312.806 30.7145 315.325 27.9393C317.843 25.1641 321.259 23.605 324.821 23.605H424.801C426.574 23.5745 428.334 23.9309 429.981 24.6537C431.627 25.3765 433.128 26.4514 434.396 27.8164C435.664 29.1813 436.674 30.8094 437.368 32.6066C438.062 34.4039 438.427 36.3348 438.44 38.288C438.454 40.2412 438.117 42.178 437.448 43.9869C436.779 45.7958 435.792 47.4408 434.543 48.8272C433.295 50.2136 431.809 51.3139 430.173 52.0647C428.537 52.8155 426.782 53.2019 425.009 53.2016H424.801Z" fill="white"/>
<path d="M424.8 54.0264H324.82C322.945 54.0486 321.086 53.661 319.348 52.8859C317.611 52.1108 316.03 50.9638 314.697 49.511C313.365 48.0583 312.307 46.3288 311.585 44.4226C310.863 42.5164 310.491 40.4713 310.491 38.4057C310.491 36.3401 310.863 34.2951 311.585 32.3888C312.307 30.4826 313.365 28.7531 314.697 27.3004C316.03 25.8477 317.611 24.7006 319.348 23.9255C321.086 23.1504 322.945 22.7628 324.82 22.785H424.8C426.674 22.7628 428.534 23.1504 430.271 23.9255C432.009 24.7006 433.589 25.8477 434.922 27.3004C436.255 28.7531 437.312 30.4826 438.034 32.3888C438.756 34.2951 439.128 36.3401 439.128 38.4057C439.128 40.4713 438.756 42.5164 438.034 44.4226C437.312 46.3288 436.255 48.0583 434.922 49.511C433.589 50.9638 432.009 52.1108 430.271 52.8859C428.534 53.661 426.674 54.0486 424.8 54.0264ZM324.82 24.4262C323.154 24.4262 321.505 24.7877 319.966 25.4901C318.427 26.1925 317.029 27.222 315.851 28.5198C314.674 29.8176 313.739 31.3584 313.102 33.054C312.465 34.7497 312.137 36.5672 312.137 38.4026C312.137 40.238 312.465 42.0554 313.102 43.7511C313.739 45.4468 314.674 46.9875 315.851 48.2853C317.029 49.5831 318.427 50.6126 319.966 51.315C321.505 52.0174 323.154 52.3789 324.82 52.3789H424.8C426.466 52.395 428.119 52.049 429.664 51.3608C431.209 50.6726 432.616 49.6557 433.804 48.3681C434.992 47.0805 435.938 45.5476 436.589 43.8568C437.239 42.166 437.58 40.3506 437.594 38.5143C437.607 36.678 437.292 34.8569 436.666 33.1549C436.041 31.4529 435.117 29.9034 433.947 28.5951C432.778 27.2867 431.386 26.2451 429.851 25.5298C428.316 24.8145 426.669 24.4395 425.002 24.4262C424.935 24.4262 424.867 24.4262 424.8 24.4262H324.82Z" fill="#90AFF4"/>
<path d="M337.037 46.7716C336.905 46.7726 336.775 46.7351 336.66 46.663C336.546 46.5908 336.45 46.4866 336.383 46.3608L328.412 31.2724C328.363 31.1788 328.331 31.0754 328.318 30.968C328.305 30.8606 328.312 30.7515 328.337 30.647C328.363 30.5424 328.407 30.4445 328.467 30.3589C328.527 30.2733 328.602 30.2017 328.688 30.1482C328.861 30.0388 329.065 30.009 329.258 30.0654C329.45 30.1217 329.615 30.2597 329.715 30.4491L337.685 45.5411C337.734 45.6345 337.766 45.7377 337.779 45.8449C337.792 45.9521 337.786 46.061 337.761 46.1654C337.735 46.2699 337.691 46.3677 337.632 46.4534C337.572 46.539 337.497 46.6107 337.412 46.6644C337.297 46.737 337.167 46.7752 337.034 46.7752" fill="#4266B2"/>
<path d="M329.063 46.7713C328.931 46.7733 328.801 46.7367 328.686 46.6653C328.571 46.5939 328.476 46.4902 328.409 46.3648C328.343 46.2394 328.308 46.0968 328.308 45.9515C328.307 45.8063 328.342 45.6636 328.409 45.5381L336.378 30.4461C336.479 30.2568 336.643 30.119 336.836 30.0627C337.028 30.0064 337.233 30.036 337.406 30.1452C337.491 30.1988 337.566 30.2704 337.626 30.356C337.686 30.4416 337.73 30.5395 337.756 30.644C337.782 30.7484 337.788 30.8575 337.776 30.9649C337.763 31.0722 337.731 31.1757 337.682 31.2694L329.715 46.3605C329.648 46.4863 329.553 46.5904 329.438 46.6625C329.323 46.7346 329.193 46.7722 329.061 46.7713" fill="#4266B2"/>
<path d="M340.711 39.2253H325.078C324.88 39.2253 324.691 39.1387 324.551 38.9844C324.411 38.8302 324.332 38.621 324.332 38.4029C324.332 38.1848 324.411 37.9756 324.551 37.8213C324.691 37.6671 324.88 37.5804 325.078 37.5804H340.712C340.91 37.5804 341.1 37.6671 341.24 37.8213C341.38 37.9756 341.459 38.1848 341.459 38.4029C341.459 38.621 341.38 38.8302 341.24 38.9844C341.1 39.1387 340.91 39.2253 340.712 39.2253" fill="#4266B2"/>
<path d="M361.069 46.7717C360.937 46.7726 360.807 46.7352 360.692 46.6631C360.577 46.5909 360.482 46.4867 360.415 46.3609L352.449 31.2716C352.399 31.1785 352.366 31.0753 352.353 30.9681C352.339 30.8609 352.345 30.7518 352.37 30.6472C352.395 30.5425 352.439 30.4444 352.498 30.3585C352.558 30.2725 352.633 30.2005 352.718 30.1465C352.89 30.0363 353.094 30.0052 353.287 30.06C353.48 30.1148 353.645 30.2511 353.747 30.4393L353.751 30.4483L361.721 45.5403C361.77 45.6336 361.802 45.7369 361.815 45.8441C361.828 45.9513 361.822 46.0602 361.797 46.1647C361.771 46.2692 361.727 46.3671 361.667 46.4527C361.607 46.5383 361.533 46.61 361.447 46.6636C361.333 46.7362 361.202 46.7744 361.07 46.7744" fill="#4266B2"/>
<path d="M353.097 46.767C352.965 46.769 352.835 46.7324 352.72 46.661C352.606 46.5896 352.51 46.4859 352.444 46.3605C352.377 46.2351 352.342 46.0925 352.342 45.9473C352.342 45.802 352.377 45.6594 352.443 45.5338L360.412 30.4419C360.514 30.2537 360.68 30.1174 360.872 30.0626C361.065 30.0078 361.269 30.0389 361.441 30.1491C361.612 30.2575 361.736 30.4358 361.787 30.645C361.838 30.8542 361.812 31.0772 361.714 31.2652L353.745 46.3572C353.678 46.483 353.583 46.5872 353.468 46.6593C353.353 46.7314 353.223 46.7689 353.091 46.7679" fill="#4266B2"/>
<path d="M364.744 39.2253H349.111C348.913 39.2253 348.723 39.1387 348.583 38.9844C348.443 38.8302 348.364 38.621 348.364 38.4029C348.364 38.1848 348.443 37.9756 348.583 37.8213C348.723 37.6671 348.913 37.5804 349.111 37.5804H364.744C364.942 37.5804 365.132 37.6671 365.272 37.8213C365.412 37.9756 365.491 38.1848 365.491 38.4029C365.491 38.621 365.412 38.8302 365.272 38.9844C365.132 39.1387 364.942 39.2253 364.744 39.2253" fill="#4266B2"/>
<path d="M385.097 46.7717C384.965 46.7725 384.835 46.7349 384.72 46.6628C384.605 46.5907 384.51 46.4866 384.443 46.3609L376.475 31.2716C376.425 31.1785 376.393 31.0753 376.379 30.9681C376.366 30.8609 376.372 30.7518 376.397 30.6472C376.422 30.5425 376.465 30.4444 376.525 30.3585C376.585 30.2725 376.659 30.2005 376.744 30.1465C376.916 30.0363 377.121 30.0052 377.313 30.06C377.506 30.1148 377.671 30.2511 377.773 30.4393L377.777 30.4483L385.747 45.5403C385.796 45.6337 385.828 45.737 385.841 45.8442C385.854 45.9514 385.848 46.0604 385.822 46.1648C385.797 46.2693 385.753 46.3671 385.693 46.4527C385.633 46.5383 385.558 46.61 385.473 46.6636C385.358 46.7362 385.228 46.7744 385.095 46.7744" fill="#4266B2"/>
<path d="M377.129 46.7704C376.998 46.7725 376.868 46.7359 376.753 46.6645C376.638 46.593 376.542 46.4892 376.476 46.3637C376.409 46.2381 376.374 46.0954 376.374 45.95C376.374 45.8046 376.409 45.6619 376.476 45.5363L384.445 30.4443C384.544 30.2544 384.708 30.1154 384.9 30.0577C385.092 30 385.297 30.0283 385.47 30.1363C385.556 30.1891 385.631 30.2601 385.692 30.3453C385.752 30.4304 385.797 30.5279 385.823 30.6322C385.849 30.7365 385.857 30.8455 385.844 30.9528C385.832 31.0602 385.801 31.1638 385.752 31.2578L385.748 31.2668L377.783 46.3596C377.717 46.4854 377.621 46.5897 377.507 46.6618C377.392 46.7339 377.262 46.7714 377.129 46.7704Z" fill="#4266B2"/>
<path d="M388.776 39.2253H373.143C372.945 39.2253 372.755 39.1387 372.615 38.9844C372.475 38.8302 372.396 38.621 372.396 38.4029C372.396 38.1848 372.475 37.9756 372.615 37.8213C372.755 37.6671 372.945 37.5804 373.143 37.5804H388.777C388.975 37.5804 389.164 37.6671 389.304 37.8213C389.444 37.9756 389.523 38.1848 389.523 38.4029C389.523 38.621 389.444 38.8302 389.304 38.9844C389.164 39.1387 388.974 39.2253 388.776 39.2253Z" fill="#4266B2"/>
<path d="M417.206 46.771H401.237C401.039 46.771 400.849 46.6843 400.709 46.5301C400.569 46.3758 400.49 46.1666 400.49 45.9485C400.49 45.7304 400.569 45.5212 400.709 45.367C400.849 45.2127 401.039 45.1261 401.237 45.1261H417.206C417.404 45.1261 417.593 45.2127 417.733 45.367C417.873 45.5212 417.952 45.7304 417.952 45.9485C417.952 46.1666 417.873 46.3758 417.733 46.5301C417.593 46.6843 417.404 46.771 417.206 46.771Z" fill="#4266B2"/>
<path d="M274.964 32.8199C274.997 37.2153 273.844 41.5224 271.652 45.1947C269.46 48.867 266.327 51.7389 262.652 53.4461C258.976 55.1533 254.923 55.6187 251.007 54.7834C247.09 53.9481 243.488 51.8496 240.656 48.7543C237.823 45.659 235.89 41.7064 235.099 37.398C234.309 33.0896 234.698 28.6196 236.217 24.5552C237.736 20.4908 240.316 17.0152 243.63 14.5694C246.945 12.1236 250.844 10.8179 254.833 10.8179C260.15 10.794 265.258 13.0986 269.033 17.2247C272.809 21.3508 274.942 26.9606 274.964 32.8199Z" fill="white"/>
<path d="M254.833 54.8231C257.48 54.8285 260.102 54.2591 262.55 53.1475C264.997 52.0359 267.222 50.4038 269.097 48.3445C267.819 45.3659 265.8 42.8486 263.275 41.0856C260.75 39.3226 257.822 38.3866 254.832 38.3866C251.842 38.3866 248.914 39.3226 246.389 41.0856C243.864 42.8486 241.845 45.3659 240.567 48.3445C242.442 50.404 244.667 52.0362 247.115 53.1479C249.563 54.2595 252.185 54.8287 254.833 54.8231Z" fill="#D5E5FD"/>
<path d="M260.809 25.0592C260.809 28.6624 258.134 33.9429 254.832 33.9429C251.53 33.9429 248.856 28.6642 248.856 25.0592C248.856 23.3126 249.486 21.6375 250.607 20.4024C251.728 19.1674 253.248 18.4735 254.833 18.4735C256.418 18.4735 257.938 19.1674 259.059 20.4024C260.18 21.6375 260.809 23.3126 260.809 25.0592Z" fill="#D5E5FD"/>
<path d="M484.991 95.0868C484.892 95.0873 484.795 95.0664 484.704 95.0254C484.613 94.9844 484.53 94.924 484.46 94.8477C484.391 94.7714 484.335 94.6807 484.297 94.5808C484.259 94.4808 484.239 94.3736 484.239 94.2653V82.8459C484.239 80.0124 483.217 77.295 481.399 75.2915C479.581 73.288 477.115 72.1624 474.544 72.1624C471.972 72.1624 469.506 73.288 467.688 75.2915C465.87 77.295 464.849 80.0124 464.849 82.8459V94.2644C464.849 94.4843 464.769 94.6952 464.628 94.8507C464.487 95.0062 464.296 95.0936 464.096 95.0936C463.897 95.0936 463.705 95.0062 463.564 94.8507C463.423 94.6952 463.344 94.4843 463.344 94.2644V82.8459C463.34 79.5728 464.516 76.4321 466.613 74.1145C468.71 71.7969 471.557 70.4923 474.527 70.4878C477.498 70.4833 480.348 71.7791 482.451 74.0903C484.554 76.4014 485.738 79.5386 485.742 82.8116V94.2644C485.742 94.3727 485.722 94.4799 485.684 94.5799C485.646 94.6798 485.59 94.7705 485.52 94.8468C485.451 94.9231 485.368 94.9835 485.277 95.0245C485.186 95.0655 485.088 95.0864 484.99 95.0859" fill="#90AFF4"/>
<path d="M487.421 129.295H461.663C461.251 129.297 460.843 129.21 460.462 129.038C460.081 128.866 459.734 128.613 459.442 128.294C459.149 127.975 458.917 127.595 458.758 127.177C458.598 126.758 458.515 126.309 458.514 125.856V97.7012C458.515 97.2476 458.598 96.7988 458.757 96.3803C458.916 95.9619 459.148 95.582 459.44 95.2625C459.732 94.9429 460.079 94.69 460.46 94.518C460.84 94.346 461.248 94.2584 461.66 94.2602H487.416C487.828 94.258 488.236 94.3453 488.617 94.517C488.998 94.6887 489.345 94.9415 489.638 95.2609C489.93 95.5803 490.162 95.96 490.322 96.3784C490.481 96.7968 490.564 97.2457 490.565 97.6994V125.852C490.564 126.306 490.481 126.755 490.322 127.173C490.162 127.592 489.93 127.972 489.638 128.291C489.345 128.611 488.999 128.864 488.617 129.036C488.236 129.208 487.828 129.295 487.416 129.293" fill="#90AFF4"/>
<path d="M478.776 110.006C478.782 109.138 478.568 108.285 478.159 107.544C477.749 106.803 477.16 106.202 476.457 105.81C475.755 105.418 474.967 105.249 474.182 105.323C473.397 105.398 472.647 105.712 472.016 106.231C471.384 106.75 470.897 107.452 470.608 108.26C470.319 109.067 470.241 109.947 470.381 110.801C470.522 111.655 470.876 112.449 471.404 113.093C471.932 113.738 472.612 114.207 473.369 114.448V118.524H475.72V114.448C476.598 114.174 477.371 113.592 477.922 112.79C478.474 111.989 478.773 111.012 478.776 110.006Z" fill="#D5E5FD"/>
<path d="M208.127 273.439H180.157C179.96 273.439 179.77 273.352 179.63 273.198C179.49 273.044 179.411 272.834 179.411 272.616C179.411 272.398 179.49 272.189 179.63 272.035C179.77 271.88 179.96 271.794 180.157 271.794H208.128C208.325 271.794 208.515 271.88 208.655 272.035C208.795 272.189 208.874 272.398 208.874 272.616C208.874 272.834 208.795 273.044 208.655 273.198C208.515 273.352 208.325 273.439 208.128 273.439" fill="white"/>
<path d="M194.143 288.723C194.044 288.724 193.947 288.703 193.856 288.662C193.765 288.621 193.682 288.561 193.612 288.484C193.542 288.408 193.487 288.317 193.449 288.217C193.411 288.117 193.391 288.01 193.391 287.902V257.33C193.397 257.115 193.479 256.911 193.619 256.761C193.76 256.612 193.947 256.528 194.142 256.528C194.337 256.528 194.525 256.612 194.665 256.761C194.805 256.911 194.887 257.115 194.894 257.33V287.902C194.894 288.01 194.874 288.117 194.836 288.217C194.798 288.317 194.742 288.408 194.673 288.484C194.603 288.561 194.52 288.621 194.429 288.662C194.338 288.703 194.241 288.724 194.143 288.723Z" fill="white"/>
<path d="M584.033 130.417C584.092 130.481 584.14 130.559 584.172 130.644C584.204 130.729 584.221 130.82 584.221 130.912C584.221 131.004 584.204 131.096 584.172 131.181C584.14 131.266 584.092 131.343 584.033 131.408C583.912 131.539 583.749 131.613 583.58 131.613C583.41 131.613 583.248 131.539 583.127 131.408C583.068 131.343 583.02 131.266 582.988 131.181C582.956 131.096 582.939 131.004 582.939 130.912C582.939 130.82 582.956 130.729 582.988 130.644C583.02 130.559 583.068 130.482 583.127 130.417C583.248 130.285 583.41 130.212 583.58 130.212C583.749 130.212 583.912 130.285 584.033 130.417Z" fill="#D5E5FB"/>
<path d="M581.941 132.719C582 132.783 582.048 132.861 582.08 132.946C582.112 133.031 582.129 133.122 582.129 133.214C582.129 133.306 582.112 133.398 582.08 133.483C582.048 133.568 582 133.645 581.941 133.71C581.82 133.841 581.658 133.915 581.488 133.915C581.318 133.915 581.156 133.841 581.035 133.71C580.976 133.645 580.929 133.568 580.896 133.483C580.864 133.398 580.848 133.306 580.848 133.214C580.848 133.122 580.864 133.031 580.896 132.946C580.929 132.861 580.976 132.784 581.035 132.719C581.156 132.587 581.318 132.514 581.488 132.514C581.658 132.514 581.82 132.587 581.941 132.719Z" fill="#D5E5FB"/>
<path d="M578.918 135.058C579.039 134.927 579.202 134.853 579.371 134.853C579.541 134.853 579.703 134.927 579.824 135.058C579.883 135.123 579.931 135.2 579.963 135.285C579.995 135.37 580.012 135.461 580.012 135.553C580.012 135.646 579.995 135.737 579.963 135.822C579.931 135.907 579.883 135.984 579.824 136.049C579.703 136.18 579.541 136.253 579.371 136.253C579.202 136.253 579.04 136.18 578.919 136.049C578.86 135.984 578.812 135.907 578.78 135.822C578.748 135.737 578.731 135.646 578.731 135.553C578.731 135.461 578.748 135.37 578.78 135.285C578.812 135.2 578.859 135.123 578.918 135.058Z" fill="#D5E5FB"/>
<path d="M577.709 137.386C577.768 137.45 577.816 137.527 577.848 137.613C577.88 137.698 577.897 137.789 577.897 137.881C577.897 137.973 577.88 138.064 577.848 138.149C577.816 138.235 577.768 138.312 577.709 138.376C577.588 138.508 577.426 138.581 577.256 138.581C577.086 138.581 576.924 138.508 576.803 138.376C576.744 138.312 576.696 138.235 576.664 138.149C576.632 138.064 576.615 137.973 576.615 137.881C576.615 137.789 576.632 137.698 576.664 137.613C576.696 137.527 576.744 137.45 576.803 137.386C576.924 137.254 577.086 137.181 577.256 137.181C577.426 137.181 577.588 137.254 577.709 137.386Z" fill="#D5E5FB"/>
<path d="M575.623 139.694C575.683 139.759 575.73 139.836 575.762 139.921C575.794 140.006 575.811 140.097 575.811 140.189C575.811 140.281 575.794 140.372 575.762 140.457C575.73 140.542 575.683 140.62 575.623 140.685C575.503 140.816 575.339 140.89 575.169 140.89C574.999 140.89 574.836 140.816 574.715 140.685C574.656 140.62 574.608 140.543 574.576 140.458C574.544 140.373 574.527 140.281 574.527 140.189C574.527 140.097 574.544 140.006 574.576 139.921C574.608 139.836 574.656 139.758 574.715 139.694C574.836 139.562 574.999 139.489 575.169 139.489C575.338 139.489 575.501 139.562 575.622 139.694" fill="#D5E5FB"/>
<path d="M572.6 142.029C572.72 141.898 572.883 141.824 573.053 141.824C573.222 141.824 573.385 141.898 573.506 142.029C573.565 142.094 573.612 142.171 573.645 142.256C573.677 142.341 573.693 142.433 573.693 142.525C573.693 142.617 573.677 142.708 573.645 142.793C573.612 142.878 573.565 142.955 573.506 143.02C573.385 143.151 573.222 143.224 573.053 143.224C572.884 143.224 572.721 143.151 572.601 143.02C572.541 142.955 572.494 142.878 572.462 142.793C572.43 142.708 572.413 142.617 572.413 142.525C572.413 142.433 572.43 142.341 572.462 142.256C572.494 142.171 572.54 142.094 572.6 142.029Z" fill="#D5E5FB"/>
<path d="M571.476 144.266C571.536 144.331 571.583 144.408 571.615 144.493C571.647 144.578 571.664 144.669 571.664 144.761C571.664 144.854 571.647 144.945 571.615 145.03C571.583 145.115 571.536 145.192 571.476 145.257C571.355 145.388 571.193 145.462 571.023 145.462C570.854 145.462 570.691 145.388 570.57 145.257C570.511 145.192 570.464 145.115 570.432 145.03C570.399 144.945 570.383 144.854 570.383 144.761C570.383 144.669 570.399 144.578 570.432 144.493C570.464 144.408 570.511 144.331 570.57 144.266C570.691 144.135 570.854 144.061 571.023 144.061C571.193 144.061 571.355 144.135 571.476 144.266Z" fill="#D5E5FB"/>
<path d="M569.389 146.568C569.448 146.633 569.495 146.71 569.528 146.795C569.56 146.88 569.576 146.971 569.576 147.063C569.576 147.155 569.56 147.247 569.528 147.332C569.495 147.417 569.448 147.494 569.389 147.559C569.268 147.691 569.105 147.764 568.935 147.764C568.765 147.764 568.602 147.691 568.481 147.559C568.421 147.494 568.374 147.417 568.342 147.332C568.31 147.247 568.293 147.156 568.293 147.063C568.293 146.971 568.31 146.88 568.342 146.795C568.374 146.71 568.421 146.633 568.481 146.568C568.601 146.437 568.764 146.363 568.934 146.363C569.103 146.363 569.266 146.437 569.387 146.568" fill="#D5E5FB"/>
<path d="M566.366 148.908C566.486 148.777 566.649 148.703 566.818 148.703C566.988 148.703 567.151 148.777 567.271 148.908C567.331 148.973 567.378 149.05 567.41 149.135C567.443 149.22 567.459 149.312 567.459 149.404C567.459 149.496 567.443 149.587 567.41 149.672C567.378 149.757 567.331 149.834 567.271 149.899C567.151 150.031 566.988 150.104 566.818 150.104C566.649 150.104 566.486 150.031 566.366 149.899C566.306 149.834 566.259 149.757 566.227 149.672C566.194 149.587 566.178 149.496 566.178 149.404C566.178 149.312 566.194 149.22 566.227 149.135C566.259 149.05 566.306 148.973 566.366 148.908Z" fill="#D5E5FB"/>
<path d="M565.157 151.234C565.217 151.299 565.264 151.376 565.296 151.461C565.328 151.546 565.345 151.637 565.345 151.729C565.345 151.821 565.328 151.913 565.296 151.998C565.264 152.083 565.217 152.16 565.157 152.225C565.037 152.356 564.874 152.43 564.705 152.43C564.535 152.43 564.372 152.356 564.252 152.225C564.192 152.16 564.145 152.083 564.113 151.998C564.08 151.913 564.063 151.821 564.063 151.729C564.063 151.637 564.08 151.546 564.113 151.461C564.145 151.376 564.192 151.298 564.252 151.234C564.372 151.102 564.535 151.028 564.705 151.028C564.874 151.028 565.037 151.102 565.157 151.234Z" fill="#D5E5FB"/>
<path d="M563.067 153.541C563.126 153.605 563.174 153.683 563.206 153.768C563.238 153.853 563.255 153.944 563.255 154.036C563.255 154.128 563.238 154.219 563.206 154.305C563.174 154.39 563.126 154.467 563.067 154.531C562.946 154.663 562.784 154.737 562.614 154.737C562.445 154.737 562.282 154.663 562.161 154.531C562.102 154.467 562.055 154.39 562.022 154.304C561.99 154.219 561.974 154.128 561.974 154.036C561.974 153.944 561.99 153.853 562.022 153.768C562.055 153.683 562.102 153.605 562.161 153.541C562.282 153.409 562.445 153.336 562.614 153.336C562.784 153.336 562.946 153.409 563.067 153.541Z" fill="#D5E5FB"/>
<path d="M560.042 155.878C560.162 155.747 560.325 155.673 560.494 155.673C560.664 155.673 560.827 155.747 560.947 155.878C561.007 155.943 561.054 156.02 561.086 156.105C561.119 156.191 561.135 156.282 561.135 156.374C561.135 156.466 561.119 156.557 561.086 156.642C561.054 156.727 561.007 156.805 560.947 156.869C560.827 157 560.664 157.074 560.495 157.074C560.326 157.074 560.163 157 560.042 156.869C559.983 156.805 559.936 156.727 559.903 156.642C559.871 156.557 559.854 156.466 559.854 156.374C559.854 156.282 559.871 156.191 559.903 156.105C559.936 156.02 559.983 155.943 560.042 155.878" fill="#D5E5FB"/>
<path d="M585.299 112.447C585.725 109.43 586.955 106.621 588.833 104.376C590.71 102.132 593.151 100.552 595.845 99.839C598.539 99.1257 601.364 99.3107 603.963 100.37C606.561 101.43 608.815 103.317 610.438 105.791C612.062 108.265 612.981 111.214 613.08 114.266C613.179 117.317 612.453 120.331 610.995 122.927C609.536 125.522 607.41 127.582 604.887 128.843C602.364 130.105 599.558 130.512 596.825 130.013C593.19 129.351 589.939 127.135 587.78 123.845C585.621 120.555 584.729 116.458 585.299 112.447Z" fill="#C6DCF7"/>
<path d="M594.607 108.802C594.599 107.822 594.857 106.862 595.345 106.044C595.834 105.225 596.532 104.585 597.352 104.205C598.171 103.824 599.075 103.721 599.947 103.907C600.82 104.093 601.623 104.561 602.255 105.251C602.886 105.941 603.317 106.822 603.493 107.782C603.669 108.742 603.583 109.739 603.244 110.645C602.906 111.551 602.331 112.326 601.592 112.871C600.853 113.416 599.984 113.707 599.095 113.708C597.91 113.712 596.771 113.198 595.93 112.278C595.089 111.358 594.613 110.108 594.608 108.802" fill="#EBF3FA"/>
<path d="M599.096 113.706C598.068 113.701 597.05 113.919 596.1 114.348C595.149 114.777 594.285 115.408 593.556 116.205C592.826 117.002 592.247 117.95 591.85 118.994C591.453 120.038 591.246 121.157 591.242 122.289H606.951C606.947 121.157 606.741 120.038 606.344 118.994C605.947 117.95 605.367 117.002 604.638 116.205C603.909 115.408 603.044 114.777 602.094 114.348C601.143 113.919 600.125 113.701 599.098 113.706" fill="#EBF3FA"/>
<path d="M548.472 162.094L547.954 160.69C547.679 159.953 547.212 159.323 546.611 158.879C546.01 158.436 545.303 158.201 544.58 158.202H535.021V193.132H574.561V164.835H552.185C551.389 164.836 550.61 164.576 549.949 164.088C549.288 163.6 548.774 162.905 548.472 162.094Z" fill="#C6DCF7"/>
<path d="M560.708 174.15H559.388C559.427 173.913 559.447 173.672 559.447 173.43V172.936C559.443 171.837 559.042 170.784 558.334 170.01C557.626 169.236 556.667 168.803 555.67 168.806H553.348C552.351 168.803 551.393 169.237 550.685 170.011C549.977 170.785 549.577 171.837 549.572 172.936V173.43C549.572 173.671 549.591 173.913 549.63 174.15H548.158C547.976 174.15 547.796 174.188 547.628 174.264C547.46 174.34 547.307 174.452 547.178 174.593C547.049 174.734 546.946 174.901 546.876 175.086C546.806 175.271 546.769 175.469 546.769 175.669V182.296C546.772 183.191 546.935 184.077 547.249 184.903C547.563 185.729 548.021 186.478 548.598 187.109C549.175 187.74 549.859 188.239 550.611 188.578C551.363 188.918 552.169 189.09 552.981 189.087H556.65C558.191 189.094 559.672 188.426 560.767 187.23C561.861 186.034 562.48 184.408 562.487 182.71V176.096C562.485 175.578 562.297 175.083 561.963 174.718C561.63 174.353 561.178 174.149 560.708 174.15ZM555.075 180.816V183.895C555.068 184.02 555.018 184.137 554.936 184.222C554.853 184.308 554.744 184.356 554.631 184.356C554.518 184.356 554.409 184.308 554.326 184.222C554.244 184.137 554.194 184.02 554.187 183.895V180.816C553.693 180.696 553.257 180.379 552.963 179.926C552.668 179.473 552.535 178.916 552.59 178.362C552.645 177.808 552.884 177.296 553.261 176.924C553.637 176.552 554.125 176.346 554.631 176.346C555.137 176.346 555.625 176.552 556.001 176.924C556.378 177.296 556.616 177.808 556.671 178.362C556.726 178.916 556.594 179.473 556.299 179.926C556.004 180.379 555.569 180.696 555.075 180.816ZM557.936 173.425C557.936 173.67 557.903 173.913 557.837 174.146H551.18C551.115 173.913 551.081 173.67 551.081 173.425V172.932C551.084 172.272 551.325 171.64 551.75 171.176C552.175 170.711 552.75 170.451 553.348 170.453H555.671C556.27 170.451 556.845 170.711 557.27 171.176C557.695 171.64 557.935 172.272 557.938 172.932L557.936 173.425Z" fill="#EBF3FA"/>
</g>
</g>
</svg>
