<svg width="715" height="420" viewBox="0 0 715 420" fill="none" xmlns="http://www.w3.org/2000/svg">
<path d="M5.6398 420L245.236 418.864L309.099 418.847H330.257L394.255 418.823L686.587 418.751C686.587 418.751 753.453 340.58 682.031 266.336C607.975 189.356 571.968 252.048 549.207 143.691C491.899 -129.056 -74.5914 29.6908 73.9932 261.787C127.495 345.357 -31.3188 300.939 5.6398 420Z" fill="#C6D7FF"/>
<path d="M226.061 363.076L224.765 362.428C224.1 362.096 223.607 361.537 223.394 360.873C223.181 360.21 223.266 359.497 223.63 358.89L229.581 348.982C229.946 348.376 230.56 347.926 231.288 347.733C232.016 347.539 232.799 347.616 233.464 347.948L235.32 348.873C235.388 348.903 235.449 348.945 235.499 348.997C235.549 349.049 235.587 349.11 235.611 349.175C235.634 349.241 235.643 349.31 235.636 349.379C235.63 349.448 235.608 349.515 235.572 349.576C235.536 349.637 235.486 349.69 235.427 349.733C235.368 349.776 235.299 349.808 235.226 349.826C235.153 349.844 235.077 349.848 235.002 349.839C234.927 349.829 234.854 349.806 234.79 349.77L232.934 348.842C232.529 348.64 232.053 348.594 231.61 348.712C231.167 348.83 230.794 349.104 230.572 349.473L224.611 359.374C224.39 359.743 224.339 360.177 224.468 360.581C224.598 360.985 224.898 361.325 225.303 361.527L226.599 362.175C227.004 362.376 227.48 362.423 227.923 362.305C228.366 362.186 228.739 361.913 228.961 361.544L232.91 354.966C232.943 354.903 232.989 354.848 233.046 354.802C233.103 354.756 233.169 354.722 233.241 354.7C233.313 354.679 233.39 354.671 233.465 354.677C233.541 354.683 233.614 354.703 233.681 354.736C233.747 354.769 233.806 354.814 233.853 354.868C233.9 354.922 233.935 354.984 233.955 355.051C233.975 355.118 233.98 355.187 233.969 355.256C233.959 355.324 233.933 355.39 233.894 355.449L229.941 362.032C229.762 362.333 229.519 362.599 229.227 362.814C228.935 363.029 228.599 363.19 228.238 363.287C227.878 363.384 227.5 363.415 227.127 363.379C226.753 363.343 226.391 363.24 226.061 363.076Z" fill="#49B4D6"/>
<path d="M220.537 373.482L218.215 372.325C216.06 371.247 215.334 368.658 216.598 366.551L225.547 351.653C225.579 351.59 225.625 351.534 225.682 351.489C225.739 351.443 225.806 351.409 225.878 351.387C225.95 351.366 226.026 351.358 226.101 351.364C226.177 351.37 226.25 351.39 226.317 351.423C226.384 351.456 226.442 351.501 226.49 351.555C226.537 351.609 226.571 351.671 226.591 351.738C226.611 351.804 226.616 351.874 226.606 351.943C226.595 352.011 226.569 352.077 226.53 352.136L217.581 367.034C216.611 368.646 217.139 370.616 218.753 371.421L221.075 372.581C222.689 373.388 224.786 372.731 225.761 371.131L235.953 354.159C236.923 352.547 236.396 350.577 234.782 349.772C234.659 349.705 234.569 349.596 234.532 349.47C234.494 349.344 234.511 349.209 234.579 349.094C234.647 348.979 234.761 348.892 234.898 348.852C235.034 348.811 235.182 348.82 235.312 348.876C237.467 349.954 238.193 352.542 236.929 354.649L226.732 371.616C225.478 373.721 222.695 374.56 220.537 373.482Z" fill="#49B4D6"/>
<path opacity="0.6" d="M444.271 66.6752H159.189C152.181 66.6752 146.5 71.8545 146.5 78.2436V296.389C146.5 302.778 152.181 307.957 159.189 307.957H444.271C451.279 307.957 456.96 302.778 456.96 296.389V78.2436C456.96 71.8545 451.279 66.6752 444.271 66.6752Z" fill="white"/>
<path d="M155.974 66.6752H447.487C449.999 66.6752 452.409 67.5851 454.185 69.2049C455.962 70.8247 456.96 73.0216 456.96 75.3122V93.4371H146.5V75.3122C146.5 73.0216 147.498 70.8247 149.275 69.2049C151.052 67.5851 153.461 66.6752 155.974 66.6752Z" fill="#0582C1" stroke="black" stroke-miterlimit="10"/>
<path d="M159.054 79.9014C159.053 79.268 159.259 78.6486 159.645 78.1217C160.03 77.5949 160.579 77.1841 161.22 76.9413C161.862 76.6986 162.568 76.6349 163.25 76.7581C163.931 76.8814 164.557 77.1862 165.049 77.6339C165.54 78.0816 165.875 78.6522 166.011 79.2734C166.146 79.8946 166.077 80.5385 165.811 81.1238C165.545 81.709 165.095 82.2092 164.518 82.5612C163.94 82.9131 163.261 83.101 162.566 83.101C161.635 83.101 160.742 82.764 160.084 82.164C159.425 81.564 159.055 80.7502 159.054 79.9014Z" fill="#DDE7FE"/>
<path d="M173.792 79.9014C173.791 79.2679 173.997 78.6484 174.383 78.1215C174.768 77.5946 175.317 77.1838 175.959 76.9411C176.601 76.6985 177.307 76.6348 177.988 76.7583C178.67 76.8818 179.296 77.1868 179.787 77.6348C180.279 78.0827 180.613 78.6535 180.749 79.2749C180.884 79.8962 180.814 80.5402 180.548 81.1254C180.282 81.7106 179.831 82.2107 179.254 82.5624C178.676 82.914 177.996 83.1015 177.301 83.101C176.371 83.1004 175.478 82.7631 174.82 82.1631C174.162 81.5632 173.792 80.7498 173.792 79.9014Z" fill="#DDE7FE"/>
<path d="M188.527 79.9014C188.527 79.2679 188.732 78.6484 189.118 78.1215C189.504 77.5946 190.052 77.1838 190.694 76.9411C191.336 76.6985 192.042 76.6348 192.724 76.7583C193.405 76.8818 194.031 77.1868 194.523 77.6348C195.014 78.0827 195.349 78.6535 195.484 79.2749C195.62 79.8962 195.55 80.5402 195.284 81.1254C195.017 81.7106 194.567 82.2107 193.989 82.5624C193.411 82.914 192.731 83.1015 192.037 83.101C191.106 83.1004 190.214 82.7631 189.556 82.1631C188.898 81.5632 188.528 80.7498 188.527 79.9014Z" fill="#DDE7FE"/>
<path opacity="0.5" d="M259.11 114.691H171.104V194.926H259.11V114.691Z" fill="#CDE0FB"/>
<path opacity="0.5" d="M353.04 120.672H283.038C282.601 120.673 282.168 120.595 281.765 120.443C281.361 120.29 280.994 120.067 280.685 119.786C280.376 119.504 280.131 119.17 279.964 118.802C279.797 118.434 279.711 118.04 279.711 117.642C279.711 116.838 280.061 116.066 280.685 115.497C281.309 114.929 282.155 114.609 283.038 114.609H353.04C353.476 114.609 353.909 114.688 354.312 114.84C354.716 114.992 355.082 115.216 355.391 115.498C355.7 115.779 355.945 116.114 356.111 116.482C356.278 116.85 356.364 117.244 356.364 117.642C356.364 118.04 356.278 118.434 356.111 118.802C355.944 119.17 355.7 119.504 355.391 119.786C355.082 120.067 354.716 120.29 354.312 120.442C353.909 120.595 353.476 120.673 353.04 120.672Z" fill="#7C9AF2"/>
<path opacity="0.5" d="M436.746 116.605H366.747C366.31 116.606 365.877 116.528 365.474 116.375C365.07 116.223 364.703 116 364.394 115.719C364.085 115.437 363.84 115.103 363.673 114.735C363.506 114.367 363.42 113.973 363.42 113.575C363.42 112.771 363.77 111.999 364.394 111.43C365.018 110.862 365.864 110.542 366.747 110.542H436.746C437.628 110.542 438.474 110.862 439.098 111.43C439.722 111.999 440.073 112.771 440.073 113.575C440.073 113.973 439.987 114.367 439.819 114.735C439.652 115.103 439.407 115.437 439.098 115.719C438.789 116 438.422 116.223 438.019 116.375C437.615 116.528 437.183 116.606 436.746 116.605Z" fill="#7C9AF2"/>
<g opacity="0.3">
<path d="M366.895 144.015H281.866C281.583 144.015 281.302 143.965 281.04 143.866C280.779 143.767 280.541 143.623 280.34 143.44C280.14 143.258 279.981 143.041 279.873 142.803C279.764 142.564 279.708 142.308 279.708 142.05C279.708 141.792 279.764 141.536 279.873 141.298C279.981 141.059 280.14 140.843 280.34 140.66C280.541 140.478 280.779 140.333 281.04 140.234C281.302 140.136 281.583 140.085 281.866 140.085H366.892C367.175 140.085 367.455 140.136 367.717 140.235C367.978 140.334 368.216 140.478 368.416 140.661C368.616 140.843 368.775 141.06 368.883 141.298C368.991 141.537 369.047 141.792 369.047 142.05C369.047 142.571 368.821 143.07 368.417 143.439C368.013 143.807 367.466 144.014 366.895 144.015Z" fill="#BDD1F9"/>
<path d="M399.22 144.015H376.774C376.202 144.015 375.654 143.808 375.25 143.439C374.846 143.071 374.619 142.571 374.619 142.05C374.619 141.529 374.846 141.029 375.25 140.661C375.654 140.292 376.202 140.085 376.774 140.085H399.22C399.792 140.085 400.34 140.292 400.744 140.661C401.148 141.029 401.375 141.529 401.375 142.05C401.375 142.571 401.148 143.071 400.744 143.439C400.34 143.808 399.792 144.015 399.22 144.015Z" fill="#BDD1F9"/>
<path d="M313.939 156.204H281.866C281.583 156.205 281.302 156.154 281.04 156.056C280.779 155.957 280.541 155.812 280.34 155.63C280.14 155.447 279.981 155.231 279.873 154.992C279.764 154.754 279.708 154.498 279.708 154.24C279.707 153.981 279.762 153.724 279.87 153.485C279.978 153.246 280.137 153.028 280.338 152.845C280.538 152.662 280.776 152.516 281.039 152.417C281.301 152.318 281.582 152.267 281.866 152.268H313.939C314.222 152.268 314.503 152.319 314.764 152.417C315.025 152.516 315.263 152.661 315.463 152.843C315.663 153.026 315.822 153.242 315.93 153.481C316.039 153.719 316.094 153.974 316.094 154.232C316.095 154.491 316.04 154.747 315.933 154.987C315.825 155.226 315.666 155.443 315.466 155.626C315.266 155.81 315.028 155.955 314.766 156.054C314.504 156.153 314.223 156.204 313.939 156.204Z" fill="#BDD1F9"/>
<path d="M365.914 156.204H321.952C321.381 156.204 320.833 155.997 320.429 155.629C320.024 155.26 319.797 154.761 319.797 154.24C319.797 153.719 320.024 153.219 320.429 152.85C320.833 152.482 321.381 152.275 321.952 152.275H365.914C366.486 152.275 367.034 152.482 367.438 152.85C367.842 153.219 368.069 153.719 368.069 154.24C368.069 154.761 367.842 155.26 367.438 155.629C367.034 155.997 366.486 156.204 365.914 156.204Z" fill="#BDD1F9"/>
<path d="M399.22 156.204H376.774C376.203 156.204 375.654 155.997 375.25 155.629C374.846 155.26 374.619 154.761 374.619 154.24C374.619 153.719 374.846 153.219 375.25 152.85C375.654 152.482 376.203 152.275 376.774 152.275H399.22C399.792 152.275 400.34 152.482 400.744 152.85C401.148 153.219 401.375 153.719 401.375 154.24C401.375 154.761 401.148 155.26 400.744 155.629C400.34 155.997 399.792 156.204 399.22 156.204Z" fill="#BDD1F9"/>
<path d="M325.398 166.743H281.866C281.583 166.744 281.302 166.693 281.04 166.595C280.779 166.496 280.541 166.351 280.34 166.169C280.14 165.986 279.981 165.77 279.873 165.531C279.764 165.293 279.708 165.037 279.708 164.779C279.708 164.52 279.764 164.265 279.873 164.026C279.981 163.788 280.14 163.571 280.34 163.389C280.541 163.206 280.779 163.061 281.04 162.963C281.302 162.864 281.583 162.814 281.866 162.814H325.396C325.679 162.814 325.959 162.864 326.221 162.963C326.483 163.061 326.721 163.206 326.921 163.389C327.122 163.571 327.281 163.788 327.389 164.026C327.497 164.265 327.553 164.52 327.553 164.779C327.553 165.3 327.326 165.8 326.922 166.168C326.518 166.536 325.97 166.743 325.398 166.743Z" fill="#BDD1F9"/>
<path d="M408.526 166.743H337.329C336.757 166.743 336.209 166.536 335.805 166.168C335.401 165.8 335.174 165.3 335.174 164.779C335.174 164.258 335.401 163.758 335.805 163.389C336.209 163.021 336.757 162.814 337.329 162.814H408.526C408.809 162.814 409.09 162.865 409.351 162.964C409.613 163.062 409.85 163.207 410.05 163.389C410.25 163.572 410.409 163.788 410.517 164.027C410.626 164.265 410.681 164.521 410.681 164.779C410.681 165.3 410.454 165.8 410.05 166.168C409.646 166.536 409.098 166.743 408.526 166.743Z" fill="#BDD1F9"/>
</g>
<g opacity="0.3">
<path d="M366.895 182.739H281.866C281.294 182.739 280.745 182.532 280.34 182.163C279.936 181.794 279.708 181.294 279.708 180.772C279.708 180.514 279.764 180.258 279.873 180.02C279.981 179.781 280.14 179.564 280.34 179.382C280.541 179.199 280.779 179.055 281.04 178.956C281.302 178.858 281.583 178.807 281.866 178.807H366.892C367.175 178.807 367.455 178.858 367.717 178.957C367.978 179.056 368.216 179.2 368.416 179.383C368.616 179.565 368.775 179.782 368.883 180.02C368.991 180.258 369.047 180.514 369.047 180.772C369.047 181.293 368.821 181.792 368.417 182.161C368.014 182.53 367.466 182.738 366.895 182.739Z" fill="#BDD1F9"/>
<path d="M399.22 182.739H376.774C376.202 182.738 375.654 182.531 375.25 182.162C374.846 181.793 374.619 181.293 374.619 180.772C374.619 180.251 374.846 179.751 375.25 179.383C375.654 179.014 376.202 178.807 376.774 178.807H399.22C399.792 178.807 400.34 179.014 400.744 179.383C401.148 179.751 401.375 180.251 401.375 180.772C401.375 181.293 401.148 181.793 400.744 182.162C400.34 182.531 399.792 182.738 399.22 182.739Z" fill="#BDD1F9"/>
<path d="M313.939 194.926H281.866C281.583 194.927 281.302 194.876 281.04 194.777C280.779 194.679 280.541 194.534 280.34 194.352C280.14 194.169 279.981 193.953 279.873 193.714C279.764 193.475 279.708 193.22 279.708 192.962C279.708 192.703 279.764 192.448 279.873 192.209C279.981 191.971 280.14 191.754 280.34 191.571C280.541 191.389 280.779 191.244 281.04 191.146C281.302 191.047 281.583 190.997 281.866 190.997H313.939C314.222 190.997 314.503 191.048 314.764 191.146C315.025 191.245 315.263 191.39 315.463 191.572C315.663 191.755 315.822 191.971 315.93 192.21C316.039 192.448 316.094 192.704 316.094 192.962C316.094 193.22 316.039 193.475 315.93 193.713C315.822 193.952 315.663 194.168 315.463 194.351C315.263 194.533 315.025 194.678 314.764 194.777C314.503 194.875 314.222 194.926 313.939 194.926Z" fill="#BDD1F9"/>
<path d="M365.914 194.926H321.952C321.381 194.926 320.833 194.719 320.429 194.351C320.024 193.982 319.797 193.483 319.797 192.962C319.797 192.44 320.024 191.941 320.429 191.572C320.833 191.204 321.381 190.997 321.952 190.997H365.914C366.486 190.997 367.034 191.204 367.438 191.572C367.842 191.941 368.069 192.44 368.069 192.962C368.069 193.483 367.842 193.982 367.438 194.351C367.034 194.719 366.486 194.926 365.914 194.926Z" fill="#BDD1F9"/>
</g>
<path d="M210.562 126.651H219.651L244.205 177.884H233.841L228.181 165.6H201.791L196.052 177.884H186.006L210.562 126.651ZM224.592 157.686L214.946 137.335L205.38 157.686H224.592Z" fill="#BDD1F9"/>
<path d="M256.486 215.987H229.449C228.905 215.987 228.383 215.79 227.999 215.44C227.614 215.09 227.398 214.615 227.397 214.119C227.398 213.623 227.614 213.148 227.999 212.798C228.383 212.448 228.905 212.251 229.449 212.251H256.486C257.029 212.251 257.55 212.448 257.935 212.798C258.319 213.149 258.535 213.624 258.535 214.119C258.535 214.615 258.319 215.09 257.935 215.44C257.55 215.79 257.029 215.987 256.486 215.987Z" fill="#BDD1F9"/>
<path d="M247.372 222.573H229.438C228.894 222.573 228.373 222.376 227.988 222.026C227.603 221.675 227.387 221.2 227.386 220.704C227.387 220.209 227.603 219.734 227.988 219.383C228.373 219.033 228.894 218.836 229.438 218.836H247.372C247.916 218.836 248.437 219.033 248.821 219.384C249.206 219.734 249.421 220.209 249.421 220.704C249.421 221.2 249.206 221.675 248.821 222.025C248.437 222.376 247.916 222.573 247.372 222.573Z" fill="#BDD1F9"/>
<path d="M256.486 260.724H229.449C228.905 260.724 228.383 260.527 227.999 260.177C227.614 259.827 227.398 259.352 227.397 258.856C227.398 258.36 227.614 257.885 227.999 257.535C228.383 257.185 228.905 256.988 229.449 256.988H256.486C257.029 256.988 257.55 257.185 257.935 257.535C258.319 257.885 258.535 258.361 258.535 258.856C258.535 259.351 258.319 259.827 257.935 260.177C257.55 260.527 257.029 260.724 256.486 260.724Z" fill="#BDD1F9"/>
<path d="M247.372 267.312H229.438C228.894 267.312 228.373 267.115 227.988 266.765C227.603 266.415 227.387 265.939 227.386 265.444C227.387 264.948 227.603 264.472 227.988 264.122C228.373 263.771 228.894 263.574 229.438 263.573H247.372C247.916 263.574 248.437 263.771 248.821 264.122C249.206 264.473 249.421 264.948 249.421 265.444C249.421 265.939 249.206 266.414 248.821 266.765C248.437 267.115 247.916 267.312 247.372 267.312Z" fill="#BDD1F9"/>
<path d="M370.436 322.904H524.285C530.256 322.904 535.983 325.067 540.205 328.916C544.428 332.766 546.8 337.987 546.8 343.431V355.031C546.801 357.788 546.206 360.518 545.049 363.065C543.893 365.613 542.197 367.927 540.059 369.877C537.922 371.827 535.384 373.374 532.59 374.429C529.797 375.485 526.803 376.029 523.779 376.029H370.436V322.904Z" fill="#FCECDB"/>
<path d="M678.338 344.758V352.747C678.353 356.835 677.241 360.86 675.104 364.454C670.972 371.37 663.287 376.017 654.49 376.017H365.713C363.801 376.017 362.267 374.507 362.267 372.646V371.438C362.267 369.574 363.815 368.054 365.713 368.054H541.748C542.699 366.922 543.526 365.708 544.218 364.429C545.926 361.273 546.81 357.799 546.8 354.28V344.13C546.803 342.308 546.563 340.493 546.087 338.724C545.322 335.871 543.933 333.188 542.005 330.836H365.713C363.801 330.836 362.267 329.325 362.267 327.452V326.259C362.267 324.395 363.815 322.875 365.713 322.875H655.945C666.171 322.875 674.797 329.565 677.474 338.707C678.053 340.68 678.344 342.715 678.338 344.758Z" fill="#699DEE"/>
<path d="M677.474 338.736H546.087C545.322 335.883 543.933 333.2 542.005 330.848H365.713C363.801 330.848 362.267 329.337 362.267 327.464V326.271C362.267 324.407 363.815 322.887 365.713 322.887H655.945C666.171 322.904 674.797 329.593 677.474 338.736Z" fill="#548EE2"/>
<path d="M370.436 349.461L391.819 350.355L370.436 350.891V349.461Z" fill="#F4D2B8"/>
<path d="M370.436 357.796L421.306 358.687L370.436 359.226V357.796Z" fill="#F4D2B8"/>
<path d="M498.555 417.221H348.03C342.265 417.221 336.736 415.133 332.66 411.417C328.584 407.7 326.294 402.66 326.294 397.404V394.533C326.294 389.598 328.444 384.865 332.272 381.376C336.1 377.886 341.291 375.925 346.704 375.925H498.555V417.25V417.221Z" fill="#ED701B"/>
<path d="M662.866 417.221H491.31C485.679 417.221 480.279 415.181 476.297 411.551C472.315 407.921 470.078 402.997 470.078 397.864V394.848C470.078 389.827 472.266 385.012 476.159 381.462C480.053 377.912 485.334 375.918 490.841 375.918H662.866V417.243V417.221Z" fill="#FCECDB"/>
<path d="M458.738 417.221H668.649C670.391 417.221 671.804 415.933 671.804 414.345V413.917C671.804 412.329 670.391 411.041 668.649 411.041H458.738C456.996 411.041 455.584 412.329 455.584 413.917V414.345C455.584 415.933 456.996 417.221 458.738 417.221Z" fill="#ED701B"/>
<path d="M458.738 382.085H668.649C670.391 382.085 671.804 380.798 671.804 379.21V378.782C671.804 377.194 670.391 375.906 668.649 375.906H458.738C456.996 375.906 455.584 377.194 455.584 378.782V379.21C455.584 380.798 456.996 382.085 458.738 382.085Z" fill="#ED701B"/>
<path d="M662.861 396.563L639.487 397.259L662.861 397.678V396.563Z" fill="#F4D2B8"/>
<path d="M662.861 387.056L607.252 387.75L662.861 388.168V387.056Z" fill="#F4D2B8"/>
<path d="M607.824 387.612C609.365 388.859 610.471 390.491 611.005 392.305C611.15 392.84 611.233 393.388 611.252 393.939C611.384 397.806 611.252 406.59 611.252 406.59L618.286 402.202L625.303 406.59V394.698C625.303 392.448 624.701 390.261 623.583 388.83C623.052 388.134 622.385 387.622 621.64 387.622L607.824 387.612Z" fill="#B5DFEA"/>
<path d="M607.824 387.612C609.365 388.859 610.471 390.491 611.005 392.305L625.104 392.479C625.104 392.479 624.55 388.301 621.64 387.612H607.824Z" fill="#49B4D6"/>
<path d="M133.342 317.646C133.342 317.646 163.711 329.709 169.222 329.487C174.733 329.265 208.717 320.062 208.717 320.062L207.851 325.379C207.851 325.379 181.638 339.125 172.474 339.905C163.462 340.671 132.597 332.522 129.621 330.802C126.644 329.081 124.68 319.388 133.342 317.646Z" fill="#F98D3D"/>
<path d="M128.78 273.271C128.78 273.271 117.576 271.338 111.996 275.045C101.884 281.775 101.354 304.975 97.5579 308.431C93.7621 311.887 84.6384 310.413 83.8273 328.296C83.0162 346.179 87.4614 347.672 82.1627 355.655C76.8639 363.637 84.4052 371.626 84.4052 371.626C84.4052 371.626 81.3171 367.221 82.6398 364.04C82.6398 364.04 83.9254 371.049 88.8186 372.704C93.7118 374.359 94.4328 375.556 95.2147 377.97C95.2147 377.97 136.942 358.475 136.987 344.647C137.032 330.819 145.204 317.124 141.188 311.133C141.188 311.133 142.975 313.694 143.195 316.546C143.195 316.546 145.599 312.343 141.43 308.431C137.26 304.518 146.323 296.42 144.981 287.044C144.059 280.606 139.105 273.552 128.78 273.271Z" fill="#233862"/>
<path d="M137.032 330.821C134.365 332.513 131.02 333.898 126.824 334.782C111.087 338.098 105.054 325.971 102.79 317.646C104.434 316.817 106.25 316.308 108.121 316.152C109.258 316.031 110.456 315.949 111.447 315.911C113.213 314.676 115.848 309.627 116.428 301.783L117.17 301.964L129.573 305.06C129.573 305.06 129.003 308.653 128.725 312.051C128.51 314.709 128.476 317.252 129.029 317.873C129.997 318.064 130.578 318.189 130.578 318.189C133.167 322.202 135.328 326.432 137.032 330.821Z" fill="#F98D3D"/>
<path d="M129.573 305.057C129.573 305.057 129.003 308.648 128.727 312.049C121.7 311.408 118.437 305.309 117.168 301.962L129.573 305.057Z" fill="#ED701B"/>
<path d="M131.67 308.431C131.67 308.431 114.991 307.592 115.726 298.131C116.46 288.67 114.798 282.181 125.478 282.324C136.157 282.467 137.936 286.191 138.543 289.417C139.15 292.643 136.027 308.404 131.67 308.431Z" fill="#F98D3D"/>
<path d="M138.464 284.124C136.112 281.108 134.119 281.606 132.961 282.392C124.213 277.232 117.817 283.6 117.817 283.6C116.169 290.316 110.493 293.854 110.493 293.854C110.493 293.854 113.393 295.761 120.524 294.579C122.7 294.216 124.72 292.955 126.474 291.382C124.411 294.009 121.963 296.367 119.198 298.39C127.837 295.413 132.03 285.031 132.452 283.931C133.403 284.83 135.267 286.771 135.739 288.583C136.38 291.046 139.145 294.898 140.743 294.833C140.74 294.83 141.989 288.644 138.464 284.124Z" fill="#233862"/>
<path d="M98.0402 361.737C96.532 354.729 91.6229 326.672 96.532 317.646C98.2974 314.405 105.218 314.112 112.81 314.395C115.174 315.787 124.176 321.041 127.876 320.386L128.083 320.343C129.825 319.944 130.469 318.83 129.029 317.868C131.85 317.7 134.683 317.863 137.459 318.351C140.096 318.803 147.213 322.16 147.213 322.16C147.213 322.16 143.63 328.061 138.347 330.099C139.245 337.426 137.909 340.657 129.57 357.581C122.527 371.873 130.511 384.748 130.511 384.748C130.511 384.748 89.0385 415.15 88.8079 399.671C88.6462 388.021 99.9646 370.708 98.0402 361.737Z" fill="#F9DDBF"/>
<path d="M132.579 417.808C133.693 417.694 134.767 417.359 135.725 416.827C136.682 416.296 137.501 415.579 138.124 414.729C138.326 414.456 138.538 414.161 138.766 413.85C143.487 407.325 145.323 387.38 155.942 366.123C158.529 360.949 167.812 360.019 170.343 354.168C170.343 354.168 176.572 335.207 158.415 334.647C140.258 334.086 109.791 387.407 109.306 392.999C108.845 398.414 97.3061 421.435 132.579 417.808Z" fill="#FF9F50"/>
<path d="M204.731 417.373H178.9C178.9 417.373 177.935 413.615 179.631 411.059C181.132 408.797 180.556 407.509 179.443 405.636C180.815 406.177 182.302 406.432 183.796 406.382C185.084 406.315 186.446 405.783 187.639 405.15C188.752 406.307 193.516 411.228 195.003 412.202C196.691 413.306 204.222 412.912 204.731 417.373Z" fill="#00668E"/>
<path d="M170.934 340.13C172.49 350.763 178.566 384.335 189.285 400.713C192.731 405.993 180.578 408.954 180.514 408.93C178.881 408.54 176.164 406.17 174.91 405.14C166.208 397.997 148.536 377.74 148.536 361.517C148.536 353.603 148.382 338.484 154.696 334.644C158.59 332.279 170.317 335.903 170.934 340.13Z" fill="#FF9F50"/>
<path d="M117.168 417.373C117.168 417.373 118.125 416.165 119.794 413.852C121.783 411.107 123.983 405.706 126.649 398.782C129.451 391.515 132.778 382.573 136.934 373.269C138.217 370.396 139.585 367.489 141.027 364.589C143.614 359.412 150.728 360.128 153.259 354.277C153.259 354.277 163.136 333.997 144.981 333.438C126.827 332.88 92.3227 387.689 90.34 392.999C88.1691 398.808 77.5795 422.931 117.168 417.373Z" fill="#FFBF4D"/>
<path d="M185.773 417.373H159.934C159.934 417.373 158.969 413.615 160.665 411.059C162.168 408.797 161.591 407.509 160.48 405.636C161.852 406.177 163.339 406.432 164.832 406.382C166.121 406.315 167.483 405.783 168.676 405.15C169.787 406.307 174.55 411.228 176.037 412.202C177.72 413.306 185.251 412.912 185.773 417.373Z" fill="#00668E"/>
<path d="M126.649 398.78C129.451 391.515 132.778 382.574 136.934 373.269C135.85 366.22 133.509 360.053 129.57 357.561C129.57 357.569 120.023 384.541 126.649 398.78Z" fill="#FF9F50"/>
<path d="M155.849 339.376C157.405 350.009 159.597 384.326 170.317 400.713C173.763 405.993 161.609 408.954 161.543 408.929C159.913 408.54 157.193 406.17 155.942 405.14C147.24 397.989 129.573 377.743 129.573 361.51C129.573 353.596 139.762 339.113 146.074 335.27C149.962 332.912 155.232 335.149 155.849 339.376Z" fill="#FFBF4D"/>
<path d="M134.792 302.989C134.792 302.989 133.215 302.421 128.78 302.747C128.78 302.747 129.016 304.325 132.287 304.48C134.14 304.572 134.792 302.989 134.792 302.989Z" fill="white"/>
<path d="M211.946 308.912L206.589 300.099L194.997 329.586L201.836 336.278L211.946 308.912Z" fill="#0582C1"/>
<path d="M183.971 314.074L173.196 342.133L201.836 336.278L211.946 308.912L183.971 314.074Z" fill="#0582C1"/>
<path d="M173.768 340.72L173.267 339.92L183.462 313.363L183.971 314.074L173.768 340.72Z" fill="#0582C1"/>
<path d="M183.462 313.363L210.613 308.547L211.946 308.912L183.971 314.074L183.462 313.363Z" fill="#0582C1"/>
<path d="M211.946 308.912L206.152 300.529L202.459 309.992L210.613 308.547L211.946 308.912Z" fill="#EFDECE"/>
<path d="M192.238 318.139C191.308 317.974 189.322 317.288 187.286 316.781C187.891 316.353 188.561 315.828 188.75 315.289C189.11 314.25 189.351 313.914 188.148 314.243C186.944 314.572 182.735 316.333 182.735 316.333C180.35 316.969 178.142 320.053 178.142 320.053C178.142 320.053 148.536 329.545 144.981 329.71C139.468 329.951 102.79 317.646 102.79 317.646C94.1331 319.388 96.0761 329.086 99.0555 330.807C102.035 332.527 128.425 341.28 144.067 341.44C151.99 341.524 180.808 324.637 180.808 324.637C180.808 324.637 184.177 323.233 186.825 323.67C189.473 324.108 195.607 323.67 196.93 321.696C198.252 319.722 193.802 318.412 192.238 318.139Z" fill="#F98D3D"/>
<path d="M121.687 323.719C121.687 323.719 118.408 333.187 107.14 335.343C107.14 335.343 88.535 330.116 97.7991 318.562C97.7991 318.562 106.957 312.356 121.687 323.719Z" fill="#F9DDBF"/>
<path d="M211.463 318.852C211.472 318.592 211.439 318.334 211.365 318.083C211.365 318.083 208.715 314.255 207.84 314.098C205.189 313.615 205.189 316.8 205.756 318.852C206.154 320.178 206.907 321.393 207.946 322.39L207.84 325.384C212.312 323.144 211.463 318.852 211.463 318.852Z" fill="#F98D3D"/>
<path d="M498.989 312.365C503.856 320.215 510.03 323.274 510.03 323.274L535.813 323.438C535.813 323.438 495.276 306.377 498.989 312.365Z" fill="#00668E"/>
<path d="M518.323 372.984C518.988 373.69 519.068 374.475 518.729 375.311C518.101 376.856 516.057 378.574 513.692 380.285C513.39 380.505 513.12 380.705 512.897 380.892L512.714 381.037L512.574 381.15C510.36 382.987 511.185 383.415 507.204 387.143C502.66 391.389 499.556 391.447 498.676 391.051C497.934 390.715 499.471 388.456 501.171 385.918C501.253 385.795 501.332 385.676 501.417 385.548C501.645 385.21 501.868 384.867 502.093 384.529C504.089 381.474 503.593 380.031 503.153 375.461C502.803 371.749 496.982 354.695 496.982 354.695L505.632 353.393C505.632 353.393 508.129 366.96 510.978 369.067C512.502 370.188 514.22 370.212 515.686 371.046C515.789 371.104 515.89 371.165 515.991 371.225C516.85 371.714 517.635 372.306 518.323 372.984Z" fill="#F98D3D"/>
<path d="M518.323 372.984C518.989 373.69 519.068 374.475 518.729 375.311C517.963 376.853 515.97 378.562 513.674 380.27C513.375 380.493 513.109 380.698 512.879 380.892L512.696 381.037L512.555 381.15C510.342 382.987 511.167 383.415 507.185 387.143C502.642 391.389 499.538 391.447 498.658 391.051C497.916 390.715 499.453 388.456 501.152 385.918C504.314 384.816 507.1 382.972 509.229 380.573C511.967 377.431 513.809 373.385 515.675 371.046C515.779 371.104 515.879 371.165 515.98 371.225C516.844 371.714 517.632 372.305 518.323 372.984Z" fill="#00668E"/>
<path d="M448.703 367.617C448.152 370.046 444.353 369.615 440.115 368.642C435.876 367.668 436.876 368.799 430.837 368.158C424.799 367.518 422.983 365.442 422.806 364.623C422.647 363.898 425.634 363.656 428.839 363.342C429.244 363.303 429.634 363.26 430.053 363.216C433.674 362.827 436.338 360.715 439.635 358.99C442.76 357.356 447.457 350.642 447.457 350.642L455.741 351.293C455.741 351.293 451.343 357.288 449.644 359.896C448.642 361.43 448.679 363.468 448.791 365.041C448.888 365.899 448.859 366.766 448.703 367.617Z" fill="#F98D3D"/>
<path d="M440.112 368.642C435.871 367.675 436.873 368.799 430.835 368.158C424.796 367.518 422.981 365.442 422.803 364.623C422.644 363.898 425.631 363.656 428.836 363.342L428.868 363.397C431.445 364.929 434.429 365.796 437.504 365.906C441.602 366.024 445.954 364.98 448.785 365.041C448.884 365.901 448.856 366.77 448.7 367.624C448.152 370.046 444.353 369.616 440.112 368.642Z" fill="#00668E"/>
<path d="M480.843 319.499L488.442 338.557L498.367 363.448C500.172 363.582 501.989 363.442 503.745 363.035C506.17 362.414 508.959 360.763 508.959 360.763C508.959 360.763 506.356 334.096 501.235 318.765C499.909 314.828 498.443 311.643 496.795 309.845C488.739 301.039 480.843 319.499 480.843 319.499Z" fill="#00668E"/>
<path d="M488.953 289.366C494.04 287.916 508.502 289.915 523.025 292.604L526.108 288.047L557.537 286.012C557.537 286.012 567.74 307.037 561.964 320.352C561.113 322.31 559.048 323.124 556.217 323.148C556.217 323.148 537.469 323.446 531.396 323.407C515.776 323.305 498.411 313.404 496.158 312.977C492.471 312.281 490.941 319.004 487.193 326.051C483.445 333.098 452.241 357.136 452.241 357.136C452.241 357.136 447.47 357.15 445.509 356.464C443.388 355.725 442.63 354.772 442.63 354.772C442.63 354.772 477.487 292.66 488.953 289.366Z" fill="#0582C1"/>
<path d="M526.596 248.607C537.729 254.293 560.342 266.079 560.461 266.007C560.461 266.007 568.779 268.926 573.535 266.091C581.458 261.367 585.786 248.542 571.449 237.389C564.292 231.831 559.197 230.451 558.489 221.637C558.105 216.857 551.067 201.04 539.139 202.423C538.146 202.551 537.142 202.606 536.139 202.585C534.018 202.51 531.919 202.99 530.087 203.967C523.344 207.58 509.844 246.326 526.596 248.607Z" fill="#233862"/>
<path d="M536.009 243.887C535.961 243.916 541.501 245.681 545.225 244.204C548.729 242.819 551.415 237.597 551.364 237.594C549.774 237.517 548.04 236.239 546.763 227.928L546.084 228.145L534.686 231.804C534.686 231.804 535.481 235.139 535.993 238.31C536.412 240.958 536.634 243.515 536.009 243.887Z" fill="#F98D3D"/>
<path d="M534.678 231.795C534.678 231.795 535.163 234.131 535.839 237.471C542.381 236.439 545.138 231.352 546.084 228.136L534.678 231.795Z" fill="#ED701B"/>
<path d="M532.958 235.088C532.958 235.088 548.538 233.283 547.155 224.455C545.771 215.627 546.853 209.448 536.849 210.226C526.845 211.004 525.451 214.624 525.114 217.674C524.778 220.724 528.868 235.33 532.958 235.088Z" fill="#F98D3D"/>
<path d="M525.729 212.843C525.729 212.843 535.632 220.736 542.405 221.41C549.178 222.084 551.759 220.117 551.759 220.117C549.072 217.893 546.915 215.19 545.422 212.174C545.081 211.464 544.54 210.85 543.853 210.395C543.165 209.94 542.357 209.661 541.512 209.586C536.666 209.175 527.495 208.94 525.729 212.843Z" fill="#233862"/>
<path d="M531.956 212.181C531.956 212.181 528.598 215.1 527.532 217.275C526.504 219.371 526.159 224.4 526.952 226.403C526.952 226.403 521.828 217.162 524.805 212.708C527.959 207.981 531.956 212.181 531.956 212.181Z" fill="#233862"/>
<path d="M522.742 264.707C522.989 293.436 522.694 287.423 526.119 290.181C526.946 290.843 529.276 291.249 532.348 291.452C542.005 292.099 559.001 290.758 559.65 289.134C561.925 283.515 560.363 281.756 562.301 273.143C562.5 272.227 562.749 271.236 563.038 270.159C564.628 264.245 566.16 262.239 560.732 252.689C555.812 244.037 550.686 237.01 550.216 237.258C537.003 244.296 535.988 238.302 535.988 238.302C535.988 238.302 522.617 250.695 522.742 264.707Z" fill="#F9DDBF"/>
<path d="M488.442 338.562L498.367 363.453C500.172 363.587 501.989 363.447 503.745 363.04C506.17 362.419 508.959 360.768 508.959 360.768C508.959 360.768 506.356 334.1 501.235 318.769L488.442 338.562Z" fill="#0582C1"/>
<path d="M535.985 238.3C535.985 238.3 522.429 240.306 520.797 245.61C519.164 250.915 509.568 282.102 509.568 282.102C509.568 282.102 516.442 283.274 519.641 280.395C522.84 277.517 530.914 253.571 530.914 253.571L535.985 238.3Z" fill="#F9DDBF"/>
<path d="M532.356 291.452C542.013 292.099 559.009 290.758 559.659 289.134C561.933 283.515 560.372 281.756 562.309 273.143L557.742 261.149C557.742 261.149 558.407 274.477 554.071 277.955C549.734 281.432 536.375 284.605 534.26 287.52C533.226 288.917 532.55 290.323 532.356 291.452Z" fill="#F2CCAA"/>
<path d="M543.462 285.92C543.462 285.92 533.944 283.924 532.401 284.685C530.858 285.446 527.076 288.23 526.599 289.207C526.122 290.183 530.029 288.482 531.296 288.184C532.12 287.989 534.273 288.687 535.341 289.018C539.828 290.415 542.59 289.729 542.59 289.729L543.462 285.92Z" fill="#F98D3D"/>
<path d="M550.222 237.251C550.222 237.251 563.014 238.054 567.401 243.716C573.577 251.691 585.691 285.565 578.563 290.026C570.539 295.053 542.209 291.121 542.209 291.121C542.209 291.121 541.297 287.095 542.625 285.156C543.953 283.218 565.315 280.214 566.306 279.323C567.297 278.431 554.131 261.737 554.153 259.045C554.174 256.352 550.222 237.251 550.222 237.251Z" fill="#F9DDBF"/>
<path d="M531.921 287.102C531.921 287.102 529.904 289.436 529.249 289.714C528.918 289.875 528.542 289.945 528.168 289.917L529.533 287.718L531.921 287.102Z" fill="#F98D3D"/>
<path d="M532.401 284.685L526.569 287.22C526.569 287.22 526.813 287.59 527.529 287.563C528.245 287.537 530.052 286.949 530.052 286.949L532.401 284.685Z" fill="#F98D3D"/>
<path d="M530.492 293.503L484.559 293.209L470.984 261.795L516.847 262.09L530.492 293.503Z" fill="#FFBF4D"/>
<path d="M484.031 291.983L544.684 292.375L544.676 293.595L484.559 293.209L484.031 291.983Z" fill="#FF9F50"/>
<path d="M496.275 277.621C495.936 276.517 496.643 275.63 497.849 275.637C499.056 275.644 500.312 276.546 500.649 277.648C500.985 278.75 500.28 279.642 499.074 279.632C497.868 279.622 496.612 278.723 496.275 277.621Z" fill="white"/>
<path d="M281.336 260.659C281.336 260.659 283.835 270.548 291.122 270.548C297.37 270.548 305.937 257.674 305.937 257.674L281.336 260.659Z" fill="#F98D3D"/>
<path d="M365.005 406.718L360.327 409.654C360.327 409.654 337.812 387.774 332.375 366.8C331.408 363.057 331.015 359.364 331.429 355.86C331.429 355.86 331.1 354.91 330.525 353.231C330.501 353.156 330.474 353.081 330.448 353.006C330.183 352.269 329.897 351.401 329.56 350.42C328.468 347.252 326.968 342.914 325.261 337.977C321.324 326.619 312.325 301.002 308.479 290.33L336.12 281.212C336.12 281.212 339.262 287.737 343.773 305.48C344.467 307.795 345.162 310.357 345.814 313.146C346.551 316.307 347.237 319.763 347.81 323.496C348.883 330.535 349.437 337.632 349.467 344.739C349.483 347.912 349.398 351.205 349.202 354.601C349.051 357.09 349.467 360.401 350.219 364.185C353.7 381.445 365.005 406.718 365.005 406.718Z" fill="#FFBF4D"/>
<path d="M379.732 417.262H357.384C357.384 417.262 356.549 414.014 358.015 411.803C359.314 409.845 358.81 408.731 357.856 407.112C359.042 407.58 360.328 407.801 361.62 407.757C362.733 407.699 363.91 407.24 364.944 406.692C365.904 407.692 370.023 411.948 371.306 412.791C372.785 413.748 379.282 413.407 379.732 417.262Z" fill="#00668E"/>
<path d="M347.807 323.496L330.445 353.006C330.18 352.269 329.894 351.401 329.557 350.42C328.465 347.252 326.965 342.914 325.258 337.977C321.322 326.619 312.322 301.002 308.476 290.33L336.118 281.212C336.118 281.212 339.259 287.737 343.77 305.48C344.465 307.795 345.159 310.357 345.811 313.146C346.543 316.307 347.235 319.763 347.807 323.496Z" fill="#FF9F50"/>
<path d="M308.026 410.884C308.026 410.884 306.48 414.345 307.935 417.262H320.092C320.092 417.262 320.357 414.633 315.933 411.58C312.593 409.27 308.026 410.884 308.026 410.884Z" fill="#00668E"/>
<path d="M321.255 185.617C321.255 185.064 321.573 179.117 331.487 178.587C331.487 178.587 326.623 179.225 325.83 181.2C325.83 181.2 329.088 178.711 331.813 179.428C334.538 180.146 336.242 184.431 336.298 185.852C336.354 187.273 334.973 191.893 333.263 192.316C332.58 192.458 331.872 192.475 331.182 192.365C331.691 193.052 332.155 193.766 332.571 194.503C336.727 201.826 333.144 210.453 329.769 209.728C327.606 209.262 326.292 212.681 326.292 212.681L305.489 196.371C305.489 196.371 312.778 181.727 321.255 185.617Z" fill="#2C3A64"/>
<path d="M308.179 235.171C310.486 236.62 313.377 237.829 317.006 238.597C330.615 241.463 335.826 230.978 337.79 223.778C336.369 223.061 334.799 222.622 333.181 222.488C332.197 222.382 331.161 222.312 330.305 222.273C328.778 221.207 326.498 216.838 325.997 210.057L325.356 210.214L314.631 212.891C314.631 212.891 315.122 215.999 315.363 218.933C315.548 221.231 315.578 223.428 315.098 223.967C314.26 224.131 313.759 224.24 313.759 224.24C311.519 227.712 309.651 231.372 308.179 235.171Z" fill="#F98D3D"/>
<path d="M314.631 212.891C314.631 212.891 315.124 215.997 315.363 218.933C321.438 218.38 324.258 213.104 325.356 210.211L314.631 212.891Z" fill="#ED701B"/>
<path d="M314.507 217.558C314.507 217.558 328.494 214.279 326.122 206.369C323.749 198.459 323.956 192.705 314.925 194.462C305.894 196.219 305.07 199.67 305.158 202.488C305.245 205.306 310.806 218.206 314.507 217.558Z" fill="#F98D3D"/>
<path d="M304.246 197.986C305.683 195.069 307.466 195.182 308.593 195.67C315.055 189.948 321.661 194.361 321.661 194.361C324.312 199.803 329.769 201.93 329.769 201.93C329.769 201.93 327.649 203.996 321.396 204.088C319.482 204.117 317.539 203.363 315.758 202.292C317.991 204.205 320.501 205.831 323.217 207.125C315.339 205.917 309.863 197.768 309.301 196.901C308.662 197.809 307.445 199.743 307.376 201.352C307.289 203.527 308.225 207.763 306.846 207.954C306.865 207.949 302.093 202.362 304.246 197.986Z" fill="#2C3A64"/>
<path d="M310.493 223.585C310.493 223.585 333.989 218.384 344.205 226.067L339.089 290.983L293.137 280.859C293.137 280.859 294.43 276.751 303.241 265.83C312.052 254.91 308.219 238.887 310.493 223.585Z" fill="#F98D3D"/>
<path d="M324.179 283.759C324.179 283.759 324.152 283.979 324.105 284.4C324.084 284.579 324.057 284.799 324.028 285.052C323.829 286.744 323.455 289.963 322.968 294.161C321.706 305.171 319.728 322.853 318.379 336.812C317.319 347.725 316.654 356.363 317.017 357.75C318.104 361.923 317.017 411.812 317.017 411.812C313.11 413.521 307.188 411.812 307.188 411.812C307.188 411.812 296.787 366.863 298.242 360.606C299.697 354.349 297.269 349.023 297.269 349.023C289.195 314.729 290.083 295.719 291.673 286.633C291.982 284.751 292.444 282.894 293.054 281.075C293.208 280.609 293.393 280.153 293.609 279.709C311.437 275.328 324.179 283.759 324.179 283.759Z" fill="#FFBF4D"/>
<path d="M347.362 244.583C346.227 252.394 341.689 261.952 340.07 267.094C340.07 267.094 342.779 284.956 340.192 289.859C339.898 290.417 339.534 290.809 339.089 290.985C329.507 294.791 292.193 291.096 290.619 280.11C290.046 276.123 304.832 262.097 305.693 260.395C306.051 259.69 306.43 257.408 304.696 252.679C302.239 259.586 288.678 257.599 288.678 257.599C290.269 255.117 294.245 237.938 298.663 230.183C301.993 224.354 310.88 223.51 310.88 223.51C310.88 223.51 314.591 228.858 323.527 228.102C332.462 227.345 334.111 222.35 334.111 222.35C334.111 222.35 342.045 223.317 344.491 225.11C344.915 225.431 348.849 234.351 347.362 244.583Z" fill="#0582C1"/>
<path d="M340.07 267.094C340.07 267.094 342.779 284.956 340.192 289.859C333.212 286.664 327.71 278.017 328.979 268.394C329.918 261.28 331.315 259.656 335.489 255.586C338.559 252.594 345.652 252.425 345.096 253.849C343.441 258.085 340.926 264.378 340.07 267.094Z" fill="#00668E"/>
<path d="M310.931 245.975L326.93 269.376H299.705L284.461 246.48L310.931 245.975Z" fill="#FFBF4D"/>
<path d="M326.098 268.201L326.374 267.384L311.233 245.238L310.931 245.975L326.098 268.201Z" fill="#FFBF4D"/>
<path d="M311.233 245.238L285.587 245.903L284.461 246.48L310.931 245.975L311.233 245.238Z" fill="#FFBF4D"/>
<path d="M284.461 246.48L270.076 239.38L286.847 263.392L299.705 269.376L284.461 246.48Z" fill="#FFBF4D"/>
<path d="M360.591 262.88C359.051 263.522 355.096 267.768 353.684 268.196C347.322 270.13 320.319 264.98 320.319 264.98L321.157 260.666C321.157 260.666 347.664 261.306 350.58 260.596C351.128 260.461 353.994 256.376 355.086 255.789L360.591 262.88Z" fill="#F98D3D"/>
<path d="M321.16 260.669C321.16 260.669 317.963 258.298 315.803 258.834C313.642 259.371 310.462 261.862 309.282 262.459C308.102 263.056 304.895 265.159 306.52 266.435C308.145 267.711 313.205 266.613 315.212 265.637C317.218 264.661 320.325 264.992 320.325 264.992L321.16 260.669Z" fill="#F98D3D"/>
<path d="M316.415 258.757C316.415 258.757 312.529 258.334 311.466 258.353C310.403 258.373 310.695 258.595 311.281 259.334C311.866 260.074 313.889 260.374 313.982 260.637C314.074 260.9 316.415 258.757 316.415 258.757Z" fill="#F98D3D"/>
<path d="M334.111 222.35C334.111 222.35 345.636 223.597 348.809 228.102C352.82 233.8 362.288 256.488 361.983 262.205C361.983 262.205 355.059 272.947 331.322 271.227C331.322 271.227 328.852 263.274 333.846 260.649C333.846 260.649 346.039 258.672 347.441 257.544L337.501 241.074L334.111 222.35Z" fill="#0582C1"/>
<path d="M288.148 255.035C287.79 253.711 284.625 254.537 283.557 255.301C283.242 255.553 282.969 255.845 282.746 256.169C282.711 255.949 282.685 255.736 282.666 255.572C282.608 254.948 281.813 253.834 281.606 254.668C281.399 255.502 281.076 259.018 281.076 259.018C281.036 261.841 283.027 263.005 284.305 262.087C285.582 261.169 288.493 256.36 288.148 255.035Z" fill="#F98D3D"/>
<path d="M220.264 211.089H171.104V237.046H220.264V211.089Z" fill="#CDE0FB"/>
<path d="M220.264 255.826H171.104V281.783H220.264V255.826Z" fill="#CDE0FB"/>
</svg>
