<svg width="785" height="536" viewBox="0 0 785 536" fill="none" xmlns="http://www.w3.org/2000/svg">
<path d="M752.993 535.858C706.777 535.858 33.5159 536.034 33.125 534.755L33.0593 534.592C33.0265 534.516 33.0044 534.436 32.9936 534.354C32.7372 533.729 -70.7414 353.891 90.1279 228.707C153.07 179.727 86.1872 147.401 136.241 92.8631C193.763 30.2008 256.539 99.5209 320.501 71.1074C331.804 66.1039 343.145 58.017 354.498 45.6272C360.778 38.7836 367.782 32.6414 375.387 27.3082C376.538 26.5014 377.699 25.7123 378.871 24.9409C383.358 22.0085 388.012 19.3407 392.81 16.951C396.032 15.3478 399.313 13.8645 402.653 12.501C407.983 10.3233 413.43 8.44413 418.969 6.87214C426.951 4.62071 435.082 2.93618 443.302 1.83113C446.921 1.33287 450.57 0.939889 454.248 0.65219C525.716 -5.0205 606.148 26.8986 647.657 73.5528C656.014 82.9344 694.014 131.559 664.058 198.374C645.145 240.556 724.376 280.847 752.53 329.018C824.108 451.509 753.65 534.263 752.993 535.858Z" fill="#C6D7FF"/>
<path d="M306.646 204.603C306.646 204.603 313.214 136.059 265.049 111.942C265.049 111.942 255.629 107.401 248.686 117.114C241.743 126.827 261.259 133.532 271.861 141.985C282.464 150.437 304.366 178.441 306.646 204.603Z" fill="#D7F0F9"/>
<path d="M310.834 178.488C310.834 178.488 327.579 129.704 296.716 103.749C296.716 103.749 290.648 98.7952 283.893 104.659C277.137 110.522 290.182 118.812 296.431 126.818C302.68 134.823 313.742 159.034 310.834 178.488Z" fill="#D7F0F9"/>
<path d="M688.284 484.41C711.099 456.222 667.598 414.696 667.598 414.696C667.598 414.696 594.413 418.017 586.407 409.402C578.4 400.786 648.395 394.344 648.395 394.344C636.914 374.718 580.674 344.197 580.674 344.197C580.674 344.197 524.891 389.016 519.23 378.696C513.569 368.376 570.656 341.545 570.656 341.545C552.516 327.635 519.849 326.012 519.849 326.012C471.19 329.64 478.434 391.955 478.434 391.955C478.434 391.955 458.761 407.066 426.732 411.29C426.732 411.29 420.452 411.562 411.157 413.936L414.653 418.777C416.236 418.237 417.8 417.771 419.345 417.379C419.354 417.376 419.364 417.376 419.373 417.379L419.442 417.363C420.427 417.154 421.834 416.863 423.557 416.522H423.573C427.533 415.897 430.391 415.368 432.39 414.887H432.408C444.684 412.76 461.123 410.599 466.68 413.067C467.052 412.127 467.546 411.24 468.147 410.427L466.68 413.067C454.933 434.159 481.908 477.718 503.313 497.378C524.718 517.039 523.955 502.285 525.519 482.237C527.083 462.188 505.503 438.143 504.077 427.477C502.65 416.81 514.92 425.05 524.853 441.286C534.786 457.523 524.978 476.311 540.572 502.892C556.166 529.473 616.544 514.656 616.544 514.656C598.826 501.341 586.05 463.736 591.104 458.282C596.158 452.829 628.494 498.82 635.397 504.643C642.299 510.466 665.478 512.598 688.284 484.41Z" fill="#D7F0F9"/>
<path d="M166.253 475.86C151.416 457.529 179.701 430.516 179.701 430.516C179.701 430.516 227.287 432.677 232.504 427.076C237.721 421.476 192.19 417.282 192.19 417.282C199.658 404.517 236.232 384.669 236.232 384.669C236.232 384.669 272.512 413.808 276.196 407.094C279.88 400.38 242.753 382.933 242.753 382.933C254.553 373.889 275.796 372.832 275.796 372.832C307.437 375.19 302.727 415.719 302.727 415.719C302.727 415.719 315.519 425.544 336.352 428.293C336.352 428.293 340.439 428.468 346.482 430.013L344.208 433.162C343.179 432.809 342.159 432.502 341.149 432.252H341.105C340.461 432.117 339.542 431.939 338.425 431.705C335.851 431.307 333.993 430.954 332.692 430.641C324.708 429.259 314.018 427.855 310.405 429.459C310.163 428.847 309.842 428.27 309.448 427.742L310.405 429.459C318.046 443.178 300.5 471.504 286.583 484.291C272.665 497.078 273.159 487.481 272.137 474.444C271.114 461.407 285.157 445.777 286.082 438.831C287.008 431.886 279.03 437.268 272.571 447.813C266.113 458.358 272.49 470.597 262.347 487.872C252.205 505.146 212.932 495.521 212.932 495.521C224.457 486.862 232.767 462.404 229.477 458.858C226.186 455.312 205.163 485.223 200.672 489.007C196.18 492.791 181.09 494.195 166.253 475.86Z" fill="#D7F0F9"/>
<path d="M546.918 73.7059C570.503 73.9624 573.28 112.974 573.28 112.974C573.28 112.974 541.288 148.255 542.264 155.844C543.24 163.434 575.51 131.024 575.51 131.024C580.586 144.912 572.567 185.749 572.567 185.749C572.567 185.749 526.986 195.131 529.81 202.242C532.634 209.353 569.749 191.876 569.749 191.876C569.199 206.736 556.473 223.773 556.473 223.773C534.48 246.648 506.26 217.184 506.26 217.184C506.26 217.184 490.534 220.777 475.137 235.071C475.137 235.071 472.394 238.105 467.353 241.779L466.377 238.026C467.303 237.457 468.186 236.865 469.026 236.25L469.06 236.222C469.573 235.815 470.311 235.231 471.19 234.508C473.139 232.779 474.596 231.572 475.666 230.756C481.821 225.486 489.718 218.147 490.788 214.341C491.413 214.543 492.061 214.663 492.717 214.698L490.788 214.341C475.347 211.483 464.7 179.908 463.718 161.035C462.736 142.163 469.817 148.661 480.517 156.185C491.216 163.709 494.306 184.489 499.069 189.627C503.833 194.765 504.78 185.202 500.761 173.494C496.742 161.786 483.247 158.906 476.41 140.083C469.573 121.261 502.009 97.141 502.009 97.141C501.337 111.526 514.885 133.532 519.714 133.26C524.543 132.988 514.898 97.7195 514.845 91.8498C514.792 85.9801 523.327 73.4526 546.918 73.7059Z" fill="#D7F0F9"/>
<path d="M150.903 158.324C160.01 136.572 197.206 148.674 197.206 148.674C197.206 148.674 217.848 191.588 225.27 193.527C232.692 195.466 214.771 153.393 214.771 153.393C229.552 153.915 264.371 176.706 264.371 176.706C264.371 176.706 255.926 222.459 263.567 222.519C271.208 222.578 268.987 181.622 268.987 181.622C282.548 187.723 293.548 205.923 293.548 205.923C306.471 234.899 268.552 249.966 268.552 249.966C268.552 249.966 265.963 265.886 273.419 285.528C273.419 285.528 275.201 289.209 276.709 295.263L272.859 294.753C272.681 293.681 272.465 292.636 272.208 291.626C272.21 291.623 272.21 291.62 272.21 291.617C272.21 291.614 272.21 291.61 272.208 291.607V291.564C272.024 290.938 271.755 290.041 271.42 288.946C270.548 286.491 269.978 284.69 269.638 283.395C267.067 275.712 263.239 265.633 260.111 263.213C260.536 262.71 260.892 262.154 261.171 261.558L260.111 263.213C251.667 276.444 218.392 274.427 200.534 268.235C182.676 262.043 191.361 257.915 202.357 250.848C213.354 243.78 233.774 248.721 240.329 246.242C246.885 243.762 238.378 239.287 226.014 238.605C213.651 237.923 205.91 249.337 185.891 248.596C165.871 247.855 155.722 208.709 155.722 208.709C168.811 214.748 194.285 210.47 195.849 205.895C197.413 201.32 161.105 196.985 155.66 194.818C150.215 192.651 141.792 180.077 150.903 158.324Z" fill="#D7F0F9"/>
<path d="M158.218 304.77C157.53 302.69 167.642 309.067 179.695 305.026C190.082 301.546 180.715 294.766 183.364 286.166C185.24 280.04 184.652 263.588 168.595 262.928C168.595 262.928 164.736 260.592 159.16 262.444C146.477 266.653 120.106 307.772 158.218 304.77Z" fill="#163560"/>
<path d="M175.814 342.471C177.04 344.763 178.476 346.937 180.105 348.963C183.439 353.138 200.944 343.225 199.436 342.471C197.929 341.717 189.403 317.522 185.797 313.235C183.706 310.818 180.912 309.113 177.806 308.36L175.814 342.471Z" fill="#F5FCFF"/>
<path d="M116.74 513.361C116.74 513.361 111.911 517.768 112.853 520.901C113.794 524.034 118.17 526.12 118.745 529.951C119.321 533.782 121.691 535.868 123.812 535.868H133.923C133.923 535.868 135.487 533.172 131.715 532.362C127.943 531.552 126.523 527.046 126.758 522.874C126.993 518.703 126.405 513.127 126.405 513.127L118.392 511.288L116.74 513.361Z" fill="#00668E"/>
<path d="M157.633 515.231C157.633 515.231 155.894 533.907 158.018 534.951L185.162 534.895C185.162 534.895 185.162 531.768 180.802 531.067C176.442 530.367 168.783 527.818 167.485 522.136C166.187 516.454 157.633 515.231 157.633 515.231Z" fill="#00668E"/>
<path d="M136.754 329.875C136.51 334.052 136.51 338.24 136.754 342.418C137.023 346.955 141.611 353.031 142.261 354.532C143.894 358.285 145.736 358.91 145.736 358.91L159.988 362.403L164.992 363.629L180.793 358.91C180.793 358.91 187.986 338.821 185.103 327.514C182.219 316.206 177.797 308.353 177.797 308.353C177.797 308.353 167.057 305.939 148.11 307.281L136.754 329.875Z" fill="#F5FCFF"/>
<path d="M135.396 342.577C135.662 347.112 141.611 353.031 142.261 354.532C143.894 358.285 145.736 358.91 145.736 358.91L159.988 362.403L163.792 357.047C163.792 357.047 140.719 350.63 145.089 330.291L135.396 342.577Z" fill="#00668E"/>
<path d="M179.798 361.966C179.798 361.966 187.617 386.32 188.127 394.613C188.637 402.907 173.174 512.417 172.549 516.239C171.961 519.838 167.488 522.136 167.488 522.136C167.488 522.136 165.43 523.35 162.484 522.518C158.418 521.37 157.12 519.991 157.12 519.991C157.12 519.991 151.031 441.89 154.8 413.98C157.094 396.729 158.368 379.358 158.615 361.956L179.798 361.966Z" fill="#F98D3D"/>
<path d="M146.64 361.237C146.64 361.237 134.705 377.255 133.592 388.078C132.478 398.901 131.843 436.93 129.473 447.494C127.102 458.058 118.392 478.359 118.392 511.288C118.392 511.288 119.296 513.165 122.092 514.181C123.16 514.539 124.247 514.839 125.347 515.078C126.468 515.334 127.642 515.206 128.68 514.713C129.718 514.221 130.56 513.393 131.071 512.364C136.96 500.506 155.722 462.267 156.683 454.327C157.364 448.698 163.288 411.531 176.208 389.716C179.31 384.478 174.303 363.651 174.303 363.651L146.64 361.237Z" fill="#FABC05"/>
<path d="M181.049 358.204C181.049 358.204 177.922 360.705 171.667 360.815C164.211 360.965 145.739 358.914 145.739 358.914C145.23 360.434 144.964 362.026 144.951 363.629C144.951 363.629 167.513 369.318 180.583 364.461C180.583 364.461 182.269 361.287 181.049 358.204Z" fill="#5C7DE5"/>
<path d="M170.047 363.389C170.047 361.265 171.573 359.539 173.449 359.539C175.326 359.539 176.849 361.265 176.849 363.389C176.849 365.512 175.323 367.238 173.449 367.238C171.576 367.238 170.047 365.512 170.047 363.389ZM171.173 363.389C171.173 364.89 172.195 366.112 173.449 366.112C174.704 366.112 175.723 364.89 175.723 363.389C175.723 361.888 174.7 360.668 173.449 360.668C172.198 360.668 171.179 361.888 171.179 363.389H171.173Z" fill="white"/>
<path d="M157.155 374.243L191.067 374.559L207.753 335.35L173.843 335.035L157.155 374.243Z" fill="#163560"/>
<path d="M161.602 356.521L164.089 353.469C164.089 353.469 165.771 351.968 166.991 351.712C168.211 351.455 170.788 349.973 171.038 350.392C171.288 350.811 169.058 353.798 169.058 353.798H168.946C171.504 355.724 177.969 354.023 178.766 354.808C179.733 355.746 177.434 357.819 176.202 358.973C174.969 360.127 171.445 362.057 168.696 361.2C166.685 360.574 163.523 359.949 163.523 359.949L161.602 356.521Z" fill="#F98D3D"/>
<path d="M205.2 342.246C205.2 342.246 203.071 339.825 201.713 340.995C200.356 342.164 202.07 347.875 203.361 347.29C204.653 346.705 205.942 342.956 205.2 342.246Z" fill="#F98D3D"/>
<path d="M148.119 307.287C148.119 307.287 136.813 308.081 132.481 318.617C128.15 329.152 120.174 346.486 121.882 353.757C122.564 356.653 130.802 366.685 165.158 360.324C165.158 360.324 164.877 356.731 162.556 355.045C162.556 355.045 138.352 347.274 138.393 345.729C138.471 342.806 141.664 340.279 155.184 326.757C158.866 323.067 148.119 307.287 148.119 307.287Z" fill="#F5FCFF"/>
<path d="M155.591 307.8C155.256 307.353 155.685 305.924 156.217 303.272C156.698 300.867 157.518 297.146 157.502 292.952L158.215 293.071L170.247 295.094C170.247 295.094 169.975 298.312 169.965 301.349V301.424C169.965 304.054 170.675 308.031 169.787 308.55C165.233 311.224 156.873 309.523 155.591 307.8Z" fill="#F98D3D"/>
<path d="M170.25 295.104C170.25 295.104 170.012 299.638 170.003 302.668C163.269 302.509 159.682 295.973 158.218 293.08L170.25 295.104Z" fill="#ED701B"/>
<path d="M170.985 300.517C170.985 300.517 155.213 298.272 156.764 288.471C158.315 278.67 157.324 271.781 167.457 272.801C177.59 273.82 178.954 277.87 179.232 281.266C179.511 284.662 175.12 300.845 170.985 300.517Z" fill="#F98D3D"/>
<path d="M174.65 273.701C174.65 273.701 168.514 284.509 161.633 285.156C154.753 285.803 152.166 283.574 152.166 283.574C152.166 283.574 157.877 280.356 160.051 273.492C160.038 273.492 172.273 267.713 174.65 273.701Z" fill="#163560"/>
<path d="M173.437 274.464C173.437 274.464 176.439 276.165 177.384 278.705C178.538 281.677 178.778 284.926 178.075 288.036C178.075 288.036 182.566 280.74 179.639 275.74C176.502 270.44 173.437 274.464 173.437 274.464Z" fill="#163560"/>
<path d="M534.505 149.346H247.225V535.255H534.505V149.346Z" fill="#23569E"/>
<path d="M525.099 157H259V524.671H525.099V157Z" fill="#EBF2FF"/>
<path d="M330.103 143.179C328.669 143.18 327.294 143.75 326.281 144.764C325.268 145.778 324.698 147.153 324.698 148.586V159.043C324.698 167.799 332.317 174.911 341.719 174.911H433.153C442.554 174.911 450.173 167.806 450.173 159.043V148.042C450.173 146.752 449.661 145.515 448.749 144.604C447.837 143.692 446.6 143.179 445.31 143.179H330.103Z" fill="#407CFF"/>
<path d="M409.753 422.567H356V368.839H409.753V422.567ZM358.549 420.037H407.22V371.372H358.533L358.549 420.037Z" fill="#94B5FF"/>
<path d="M448.779 397.472H318V401.884H448.779V397.472Z" fill="#94B5FF"/>
<path d="M448.779 417.176H318V421.588H448.779V417.176Z" fill="#94B5FF"/>
<path d="M401.424 407.325H365V411.737H401.424V407.325Z" fill="#94B5FF"/>
<path d="M423.935 407.325H343V411.737H423.935V407.325Z" fill="#94B5FF"/>
<path d="M448.779 468.249H318V472.661H448.779V468.249Z" fill="#94B5FF"/>
<path d="M448.779 487.953H318V492.365H448.779V487.953Z" fill="#94B5FF"/>
<path d="M401.424 478.102H365V482.515H401.424V478.102Z" fill="#94B5FF"/>
<path d="M423.935 478.102H343V482.515H423.935V478.102Z" fill="#94B5FF"/>
<path d="M465.451 265.527H402.875V269.939H465.451V265.527Z" fill="#94B5FF"/>
<path d="M409.753 509.781H356V456.05H409.753V509.781ZM358.549 507.248H407.22V458.583H358.533L358.549 507.248Z" fill="#94B5FF"/>
<path d="M390.359 271.903C390.359 271.903 328.552 294.628 298.533 355.167L318.944 351.668L327.585 366.193C327.585 366.193 351.48 311.731 400.63 295.404L390.359 271.903Z" fill="#F5FCFF"/>
<path d="M369.857 275.143C369.857 275.143 433.566 291.814 469.27 349.185L448.628 347.665L441.435 362.957C441.435 362.957 412.408 311.046 361.913 299.522L369.857 275.143Z" fill="#F5FCFF"/>
<path d="M442.795 313.774C473.685 282.888 473.685 232.811 442.795 201.925C411.905 171.038 361.822 171.038 330.932 201.925C300.041 232.811 300.041 282.887 330.932 313.774C361.822 344.66 411.905 344.66 442.795 313.774Z" fill="#407CFF"/>
<path d="M386.862 328.808C347.73 328.808 315.891 296.974 315.891 257.846C315.891 218.719 347.73 186.885 386.862 186.885C425.994 186.885 457.836 218.719 457.836 257.846C457.836 296.974 425.997 328.808 386.862 328.808ZM386.862 189.052C348.922 189.052 318.056 219.911 318.056 257.85C318.056 295.788 348.918 326.647 386.862 326.647C424.806 326.647 455.668 295.788 455.668 257.85C455.668 219.911 424.799 189.052 386.862 189.052Z" fill="#EBF2FF"/>
<path d="M376.719 301.239C375.836 301.237 374.965 301.039 374.167 300.661C373.37 300.282 372.666 299.732 372.106 299.05L345.963 267.428C345.45 266.823 345.063 266.123 344.823 265.368C344.582 264.613 344.495 263.818 344.565 263.028C344.634 262.239 344.86 261.471 345.229 260.77C345.598 260.069 346.102 259.447 346.713 258.943C347.324 258.438 348.029 258.059 348.787 257.829C349.546 257.598 350.342 257.521 351.13 257.6C351.919 257.68 352.684 257.916 353.38 258.293C354.077 258.671 354.692 259.183 355.189 259.8L375.925 284.88L413.434 221.934C413.828 221.243 414.356 220.638 414.987 220.154C415.618 219.67 416.339 219.316 417.109 219.114C417.878 218.911 418.68 218.864 419.467 218.975C420.255 219.086 421.013 219.353 421.696 219.76C422.379 220.167 422.974 220.706 423.447 221.346C423.92 221.986 424.26 222.713 424.448 223.486C424.636 224.258 424.669 225.061 424.543 225.846C424.418 226.632 424.137 227.384 423.717 228.06L381.864 298.299C381.372 299.124 380.689 299.818 379.873 300.324C379.057 300.83 378.13 301.132 377.173 301.204C377.025 301.227 376.874 301.239 376.719 301.239Z" fill="white"/>
<path d="M378.338 411.769C377.779 411.769 377.227 411.646 376.721 411.408C376.215 411.17 375.768 410.823 375.411 410.393L358.835 390.335C358.211 389.558 357.918 388.566 358.02 387.574C358.121 386.582 358.609 385.67 359.377 385.035C360.146 384.399 361.133 384.092 362.127 384.178C363.12 384.265 364.039 384.739 364.686 385.498L377.822 401.406L401.623 361.497C402.138 360.632 402.976 360.007 403.953 359.759C404.929 359.512 405.964 359.663 406.829 360.178C407.694 360.694 408.319 361.532 408.566 362.508C408.813 363.484 408.662 364.519 408.147 365.384L381.6 409.933C381.288 410.456 380.856 410.895 380.339 411.216C379.822 411.536 379.235 411.728 378.629 411.775L378.338 411.769Z" fill="#407CFF"/>
<path d="M378.338 498.98C377.779 498.98 377.227 498.856 376.721 498.618C376.215 498.381 375.768 498.034 375.411 497.604L358.835 477.546C358.211 476.768 357.918 475.776 358.02 474.785C358.121 473.793 358.609 472.881 359.377 472.245C360.146 471.61 361.133 471.303 362.127 471.389C363.12 471.476 364.039 471.95 364.686 472.708L377.822 488.616L401.613 448.692C402.129 447.827 402.967 447.202 403.943 446.955C404.92 446.707 405.954 446.858 406.819 447.374C407.684 447.889 408.309 448.727 408.557 449.703C408.804 450.679 408.653 451.714 408.138 452.579L381.591 497.128C381.279 497.651 380.846 498.09 380.329 498.411C379.812 498.731 379.226 498.923 378.62 498.97C378.53 498.977 378.436 498.98 378.338 498.98Z" fill="#407CFF"/>
<path d="M378.338 411.769C377.779 411.769 377.227 411.646 376.721 411.408C376.215 411.17 375.768 410.823 375.411 410.393L358.835 390.335C358.211 389.558 357.918 388.566 358.02 387.574C358.121 386.582 358.609 385.67 359.377 385.035C360.146 384.399 361.133 384.092 362.127 384.178C363.12 384.265 364.039 384.739 364.686 385.498L377.822 401.406L401.623 361.497C402.138 360.632 402.976 360.007 403.953 359.759C404.929 359.512 405.964 359.663 406.829 360.178C407.694 360.694 408.319 361.532 408.566 362.508C408.813 363.484 408.662 364.519 408.147 365.384L381.6 409.933C381.288 410.456 380.856 410.895 380.339 411.216C379.822 411.536 379.235 411.728 378.629 411.775L378.338 411.769Z" fill="#407CFF"/>
<path d="M307 352H453V436H307V352Z" fill="#EBF2FF"/>
<path d="M307 445H453V517H307V445Z" fill="#EBF2FF"/>
<path d="M328.25 414H275V361.06H328.25V414ZM277.525 411.507H325.74V363.556H277.51L277.525 411.507Z" fill="#94B5FF"/>
<path d="M277.479 363.401H326.121V411.777H277.479V363.401Z" fill="#EBF2FF"/>
<path d="M302.94 403.361C302.386 403.361 301.839 403.239 301.338 403.005C300.837 402.77 300.394 402.429 300.04 402.005L283.619 382.242C283.001 381.475 282.712 380.498 282.812 379.521C282.913 378.543 283.396 377.645 284.157 377.019C284.918 376.393 285.897 376.09 286.881 376.175C287.865 376.26 288.775 376.727 289.416 377.475L302.429 393.149L326.007 353.826C326.517 352.974 327.348 352.358 328.315 352.114C329.282 351.871 330.307 352.019 331.164 352.527C332.021 353.035 332.64 353.861 332.885 354.823C333.13 355.785 332.98 356.804 332.47 357.656L306.172 401.552C305.863 402.066 305.434 402.5 304.922 402.816C304.41 403.131 303.829 403.32 303.228 403.367L302.94 403.361Z" fill="#407CFF"/>
<path d="M509.33 371H345V376.545H509.33V371Z" fill="#94B5FF"/>
<path d="M509.33 395.763H345V401.308H509.33V395.763Z" fill="#94B5FF"/>
<path d="M509.327 383.383H463.559V388.928H509.327V383.383Z" fill="#94B5FF"/>
<path d="M446.699 383.383H345V388.928H446.699V383.383Z" fill="#94B5FF"/>
<path d="M328.25 498H275V445.06H328.25V498ZM277.525 495.507H325.74V447.556H277.51L277.525 495.507Z" fill="#94B5FF"/>
<path d="M277.479 447.401H326.121V495.777H277.479V447.401Z" fill="#EBF2FF"/>
<path d="M302.94 487.361C302.386 487.361 301.839 487.239 301.338 487.005C300.837 486.77 300.394 486.429 300.04 486.005L283.619 466.242C283.001 465.475 282.712 464.498 282.812 463.521C282.913 462.543 283.396 461.645 284.157 461.019C284.918 460.393 285.897 460.09 286.881 460.175C287.865 460.26 288.775 460.727 289.416 461.475L302.429 477.149L326.007 437.826C326.517 436.974 327.348 436.358 328.315 436.114C329.282 435.871 330.307 436.019 331.164 436.527C332.021 437.035 332.64 437.861 332.885 438.823C333.13 439.785 332.98 440.804 332.47 441.656L306.172 485.552C305.863 486.066 305.434 486.5 304.922 486.816C304.41 487.131 303.829 487.32 303.228 487.367L302.94 487.361Z" fill="#407CFF"/>
<path d="M509.33 455H345V460.545H509.33V455Z" fill="#94B5FF"/>
<path d="M509.33 479.763H345V485.308H509.33V479.763Z" fill="#94B5FF"/>
<path d="M509.327 467.383H463.559V472.928H509.327V467.383Z" fill="#94B5FF"/>
<path d="M446.699 467.383H345V472.928H446.699V467.383Z" fill="#94B5FF"/>
</svg>
