<svg width="715" height="420" viewBox="0 0 715 420" fill="none" xmlns="http://www.w3.org/2000/svg">
<path fill-rule="evenodd" clip-rule="evenodd" d="M50.1283 420C50.1283 420 -36.7223 320.198 35.8693 212.079C99.3869 116.436 174.571 121.98 229.015 160.792C252.348 177.426 319.754 163.564 376.79 66.5346C455.863 -67.9208 726.786 13.8613 677.527 219.01C652.898 317.426 750.119 321.584 700.86 420H50.1283ZM536.233 113.663L525.862 121.98L515.492 115.049C516.788 110.891 521.974 108.119 525.862 108.119C529.751 108.119 533.64 110.891 536.233 113.663ZM525.862 88.7128C515.492 88.7128 505.122 94.2574 499.937 102.574L506.418 108.119C510.307 101.188 518.085 97.0297 525.862 97.0297C533.64 97.0297 540.121 101.188 545.307 108.119L551.788 102.574C545.307 94.2574 536.233 88.7128 525.862 88.7128ZM525.862 51.2871C502.529 51.2871 483.085 62.3762 471.419 81.7822L477.9 85.9406C488.27 70.693 506.418 59.6039 525.862 59.6039C545.307 59.6039 562.158 70.693 573.825 85.9406L580.306 80.396C567.343 62.3762 547.899 51.2871 525.862 51.2871ZM525.862 72.0792C510.307 72.0792 496.048 80.396 486.974 92.8713L493.455 98.4158C501.233 87.3267 512.9 80.396 525.862 80.396C538.825 80.396 550.492 87.3267 558.269 98.4158L564.751 92.8713C555.677 80.396 541.418 72.0792 525.862 72.0792ZM107.165 377.03V381.188C107.165 385.347 104.572 389.505 100.683 389.505L73.4613 393.663C72.165 393.663 72.165 392.277 72.165 392.277C72.165 392.277 72.165 390.891 73.4613 390.891L100.683 388.119C103.276 386.733 105.868 383.96 105.868 381.188L104.572 377.03C104.572 374.257 101.979 372.871 99.3869 372.871L66.9799 377.03C64.3874 377.03 61.7948 379.802 63.0911 382.574V386.733C63.0911 388.119 64.3874 389.505 65.6836 388.119L83.8315 386.733C86.4241 386.733 86.4241 385.347 86.4241 382.574V381.188C86.4241 379.802 85.1278 378.416 83.8315 378.416L70.8688 379.802C69.5725 378.416 70.8688 378.416 70.8688 378.416L83.8315 377.03C85.1278 375.644 87.7204 378.416 87.7204 381.188V382.574C89.0167 385.347 86.4241 388.119 85.1278 388.119L65.6836 390.891C64.3874 390.891 61.7948 389.505 61.7948 386.733L60.4985 382.574C60.4985 379.802 63.0911 375.644 66.9799 375.644L99.3869 371.485C103.276 370.099 105.868 372.871 107.165 377.03ZM73.4613 293.861L70.8688 295.248C68.2762 296.634 65.6836 295.248 64.3874 293.861L54.0171 277.228V275.842L65.6836 292.475C66.9799 295.248 68.2762 295.248 70.8688 293.861L72.165 292.475C73.4613 291.089 74.7576 288.317 73.4613 286.931L60.4985 267.525C59.2023 266.139 57.906 266.139 55.3134 266.139L54.0171 267.525C52.7209 268.911 52.7209 270.297 54.0171 270.297L60.4985 281.386C61.7948 282.772 63.0911 282.772 63.0911 282.772L64.3874 281.386C65.6836 281.386 65.6836 280 65.6836 278.614L60.4985 271.683V270.297C60.4985 270.297 60.4985 270.297 61.7948 270.297L65.6836 278.614C66.9799 280 66.9799 281.386 65.6836 282.772H64.3874C63.0911 284.158 60.4985 284.158 60.4985 282.772L52.7209 271.683C51.4246 270.297 52.7209 267.525 54.0171 267.525L55.3134 266.139C57.906 264.752 60.4985 264.752 61.7948 267.525L73.4613 286.931C76.0539 288.317 74.7576 292.475 73.4613 293.861Z" fill="#C6D7FF"/>
<path fill-rule="evenodd" clip-rule="evenodd" d="M300.31 24.9505L343.087 31.8812L314.569 11.0891L313.273 18.0198L302.902 19.4059L300.31 24.9505Z" fill="#9EC3F6"/>
<path fill-rule="evenodd" clip-rule="evenodd" d="M343.087 31.8812L306.791 12.4752L273.088 11.0891L343.087 31.8812Z" fill="#CDE0FB"/>
<path fill-rule="evenodd" clip-rule="evenodd" d="M314.569 11.0891L343.087 31.8812L321.05 0L314.569 11.0891Z" fill="#CDE0FB"/>
<path fill-rule="evenodd" clip-rule="evenodd" d="M249.755 225.941C243.274 232.871 235.496 239.802 227.718 243.96C209.571 230.099 188.83 217.624 168.09 206.535C170.682 200.99 174.571 195.446 177.164 188.515C196.608 191.287 214.756 194.059 231.607 194.059C235.496 194.059 240.681 194.059 244.57 194.059C254.94 194.059 264.014 192.673 273.088 191.287C266.607 205.149 258.829 216.238 249.755 225.941ZM130.498 257.822C139.571 252.277 147.349 241.188 155.127 231.485C157.719 225.941 161.608 219.01 165.497 213.465C184.941 223.168 204.385 234.257 222.533 248.119C192.719 264.753 159.016 267.525 130.498 257.822ZM56.6097 184.356C65.6836 184.356 82.5352 185.743 103.276 191.287C105.868 191.287 107.165 191.287 108.461 192.673C107.165 199.604 105.868 205.149 105.868 212.079C104.572 223.168 104.572 237.03 108.461 246.733C98.0906 241.188 90.3129 234.257 82.5352 225.941C70.8687 213.465 61.7948 199.604 56.6097 184.356ZM111.053 176.04C111.053 178.812 109.757 181.584 109.757 185.743C108.461 184.356 107.165 184.356 105.868 184.356C81.239 178.812 61.7948 177.426 54.0171 176.04C51.4246 170.495 50.1283 163.564 48.832 155.248C65.6836 162.178 85.1278 169.109 111.053 176.04ZM35.8692 142.772C12.5362 131.683 2.16597 119.208 7.35109 110.891C11.2399 105.347 24.2027 101.188 44.9432 98.4159C41.0543 113.663 39.758 130.297 41.0543 145.545C38.4618 144.158 37.1655 144.158 35.8692 142.772ZM60.4985 80.3961C74.7576 99.802 96.7943 119.208 121.424 137.228C117.535 148.317 114.942 159.406 112.35 170.495C91.6092 164.951 66.9799 158.02 48.832 148.317C46.2394 131.683 48.832 115.05 52.7208 98.4159C55.3134 91.4852 57.9059 85.9406 60.4985 80.3961ZM50.1283 26.3367C54.0171 19.406 63.0911 15.2476 74.7576 15.2476C81.239 15.2476 87.7203 16.6337 94.2017 18.0199C96.7943 19.406 100.683 19.406 103.276 20.7921C85.1278 30.4951 70.8687 47.1288 59.2022 65.1486V66.5347C48.832 48.5149 44.9432 34.6535 50.1283 26.3367ZM165.497 9.70303C174.571 9.70303 182.349 11.0892 190.126 12.4753C181.052 16.6337 171.978 29.109 164.201 40.1981C156.423 51.2872 149.942 65.1486 142.164 80.3961C124.016 69.307 105.868 52.6733 98.0906 33.2674C117.535 18.0199 140.868 9.70303 165.497 9.70303ZM249.755 47.1288C265.31 63.7624 275.681 83.1684 280.866 103.96C253.644 105.347 227.718 105.347 205.682 102.574C209.571 85.9406 212.163 72.0793 213.459 59.604C213.459 44.3565 213.459 27.7228 208.274 18.0199C223.83 24.9506 238.089 34.6535 249.755 47.1288ZM197.904 108.119C194.015 120.594 191.423 133.069 186.238 145.545C184.941 151.089 182.349 155.248 181.052 160.792C164.201 153.861 147.349 145.545 129.201 133.069C130.498 130.297 131.794 127.525 133.09 124.753C136.979 112.277 140.868 101.188 146.053 90.0991C161.608 98.4159 179.756 103.96 197.904 108.119ZM199.2 18.0199C203.089 19.406 204.385 24.9506 205.682 30.4951C206.978 37.4258 206.978 47.1288 205.682 58.2179C205.682 70.6931 203.089 85.9406 199.2 101.188C182.349 97.0298 164.201 92.8713 148.645 84.5545C155.127 69.307 162.904 55.4456 169.386 44.3565C175.867 34.6535 182.349 27.7228 187.534 22.1783C190.126 20.7921 194.015 18.0199 196.608 18.0199C197.904 18.0199 197.904 18.0199 199.2 18.0199ZM91.6092 37.4258C101.979 58.2179 120.127 76.2377 139.571 87.3268C134.386 98.4159 130.498 110.891 126.609 121.98C125.312 124.753 125.312 127.525 124.016 128.911C99.3868 112.277 77.3501 91.4852 64.3873 72.0793C70.8687 59.604 81.239 47.1288 91.6092 37.4258ZM134.386 176.04C129.201 174.654 124.016 173.267 118.831 171.881C121.424 162.178 124.016 151.089 127.905 140C144.757 152.475 161.608 160.792 178.46 167.723C175.867 173.267 174.571 177.426 171.978 182.97C159.016 181.584 147.349 178.812 134.386 176.04ZM161.608 203.762C147.349 196.832 131.794 191.287 116.238 187.129C116.238 184.356 117.535 180.198 117.535 177.426C122.72 178.812 126.609 180.198 130.498 180.198C144.757 182.97 157.719 185.743 169.386 188.515C166.793 194.059 164.201 199.604 161.608 203.762ZM120.127 252.277C116.238 250.891 113.646 245.347 113.646 241.188C112.35 234.257 111.053 224.554 112.35 212.079C113.646 206.535 113.646 200.99 114.942 194.059C129.201 198.218 144.757 203.762 159.016 210.693C155.127 216.238 152.534 221.782 148.645 227.327C143.46 237.03 136.979 243.96 131.794 248.119C127.905 250.891 124.016 253.663 120.127 252.277ZM275.681 185.743C266.607 187.129 256.237 188.515 243.274 188.515C225.126 188.515 201.793 187.129 178.46 184.356C181.052 178.812 182.349 174.654 184.941 170.495C191.423 171.881 199.2 174.654 205.682 176.04C213.459 177.426 219.941 178.812 226.422 178.812C241.977 178.812 252.348 173.267 257.533 164.951C257.533 163.564 258.829 162.178 258.829 160.792H251.051C247.163 167.723 239.385 170.495 226.422 170.495C221.237 170.495 214.756 170.495 206.978 169.109C200.497 167.723 194.015 164.951 187.534 163.564C188.83 158.02 191.423 153.861 192.719 148.317C196.608 134.455 200.497 121.98 204.385 109.505C230.311 112.277 256.237 113.663 282.162 110.891C283.458 119.208 284.755 127.525 284.755 137.228C284.755 153.861 280.866 170.495 275.681 185.743ZM305.495 163.564H295.125C299.014 167.723 299.014 171.881 297.717 174.654C295.125 178.812 291.236 181.584 283.458 184.356C288.643 169.109 292.532 152.475 292.532 137.228C292.532 101.188 279.57 67.9208 254.94 41.5842C231.607 16.6337 200.497 2.77234 165.497 2.77234C147.349 2.77234 127.905 6.93075 111.053 15.2476C105.868 13.8614 100.683 12.4753 95.498 11.0892C70.8687 5.54462 51.4246 9.70303 44.9432 22.1783C37.1655 33.2674 41.0543 51.2872 55.3134 73.4654C52.7208 79.01 48.832 85.9406 47.5357 92.8713C20.3139 95.6436 7.35109 99.802 2.16597 109.505C-4.31542 119.208 3.46225 133.069 29.3878 146.931C33.2767 148.317 37.1655 151.089 41.0543 152.475C44.9432 181.584 56.6097 209.307 77.3501 231.485C89.0166 243.96 101.979 253.663 117.535 260.594C162.904 281.386 217.348 271.683 254.94 231.485C266.607 220.396 275.681 205.149 280.866 189.901C293.829 187.129 302.903 182.97 305.495 177.426C308.088 173.267 308.088 169.109 305.495 163.564Z" fill="#ADCBF9"/>
<path fill-rule="evenodd" clip-rule="evenodd" d="M247.162 184.356L230.31 406.139C230.31 406.139 227.718 420 236.792 420C252.347 420 313.272 420 313.272 420C313.272 420 301.606 417.228 301.606 410.297C302.902 403.366 322.346 182.97 322.346 182.97L247.162 184.356Z" fill="#4D4D4D"/>
<path fill-rule="evenodd" clip-rule="evenodd" d="M318.458 415.842C315.866 415.842 257.533 415.842 241.978 415.842C235.496 415.842 234.2 408.911 234.2 404.753C234.2 403.366 235.496 401.98 235.496 401.98V396.436L236.793 381.188L238.089 368.713L239.385 352.079V338.218L252.348 180.198L327.532 178.812C327.532 178.812 319.755 270.297 313.273 338.218C311.977 345.149 311.977 352.079 310.681 359.01C310.681 361.782 310.681 363.168 310.681 365.941C310.681 371.485 309.384 377.03 309.384 382.574C309.384 385.347 308.088 388.119 308.088 390.891C308.088 399.208 306.792 404.753 306.792 406.139C306.792 407.525 306.792 407.525 306.792 407.525C308.088 414.455 317.162 415.842 318.458 415.842Z" fill="#B3B3B3"/>
<path fill-rule="evenodd" clip-rule="evenodd" d="M64.3873 63.7623L107.165 246.733L112.35 271.683L131.794 356.238H498.641L426.049 63.7623H64.3873Z" fill="#B3B3B3"/>
<path fill-rule="evenodd" clip-rule="evenodd" d="M64.387 63.7623L57.9056 66.5346L124.016 361.782L131.793 356.238L64.387 63.7623Z" fill="#999999"/>
<path fill-rule="evenodd" clip-rule="evenodd" d="M124.016 361.782H488.27L498.641 356.238H131.794L124.016 361.782Z" fill="#4D4D4D"/>
<path fill-rule="evenodd" clip-rule="evenodd" d="M252.348 420H331.421V415.842H252.348V420Z" fill="#B3B3B3"/>
<path fill-rule="evenodd" clip-rule="evenodd" d="M310.68 361.782V365.941L236.792 381.188L238.089 368.713V361.782H310.68Z" fill="#4D4D4D"/>
<path fill-rule="evenodd" clip-rule="evenodd" d="M278.274 415.842H260.126C252.348 415.842 245.867 415.842 241.978 415.842C235.496 415.842 234.2 408.911 234.2 404.752L308.088 390.891C308.088 399.208 306.792 404.752 306.792 406.139C306.792 407.525 306.792 407.525 306.792 407.525C308.088 414.455 317.162 415.842 318.458 415.842C317.162 415.842 297.718 415.842 278.274 415.842Z" fill="#808080"/>
<path fill-rule="evenodd" clip-rule="evenodd" d="M131.794 356.238L112.35 271.683L292.533 296.634L131.794 356.238Z" fill="#808080"/>
<path fill-rule="evenodd" clip-rule="evenodd" d="M64.3873 63.7623H426.049L484.382 299.406H117.535L64.3873 63.7623Z" fill="url(#paint0_linear_16_177)"/>
<path fill-rule="evenodd" clip-rule="evenodd" d="M324.939 328.515C323.643 322.97 318.458 317.426 313.272 317.426C308.087 317.426 304.198 322.97 305.495 328.515C306.791 334.059 311.976 338.218 317.161 338.218C322.346 338.218 326.235 334.059 324.939 328.515Z" fill="#4D4D4D"/>
<path fill-rule="evenodd" clip-rule="evenodd" d="M467.53 288.317H129.201L90.313 124.752L87.7205 112.277L85.1279 102.574L82.5354 92.8713L78.6465 77.6238H413.086L416.975 92.8713L419.568 102.574L422.16 112.277L426.049 124.752L467.53 288.317Z" fill="#E9F3FE"/>
<path fill-rule="evenodd" clip-rule="evenodd" d="M467.53 289.703H129.201L90.313 126.139L87.7205 113.663L85.1279 102.574L82.5354 94.2574L78.6465 77.6238H413.086V79.0099L416.975 94.2574L419.568 102.574L422.16 113.663L426.049 126.139L467.53 289.703Z" fill="#E9F3FE"/>
<path fill-rule="evenodd" clip-rule="evenodd" d="M416.975 92.8713H82.5354L78.6465 77.6238H413.086L416.975 92.8713Z" fill="#AFCDFB"/>
<path fill-rule="evenodd" clip-rule="evenodd" d="M89.0173 85.9406C87.721 83.1684 89.0173 81.7822 90.3136 81.7822C92.9061 81.7822 94.2024 83.1684 94.2024 85.9406C94.2024 87.3268 94.2024 88.7129 91.6098 88.7129C90.3136 88.7129 89.0173 87.3268 89.0173 85.9406Z" fill="#E9F3FE"/>
<path fill-rule="evenodd" clip-rule="evenodd" d="M98.0906 85.9406C98.0906 83.1684 99.3869 81.7822 100.683 81.7822C101.979 81.7822 103.276 83.1684 104.572 85.9406C104.572 87.3268 103.276 88.7129 101.979 88.7129C100.683 88.7129 98.0906 87.3268 98.0906 85.9406Z" fill="#E9F3FE"/>
<path fill-rule="evenodd" clip-rule="evenodd" d="M108.461 85.9406C108.461 83.1684 109.757 81.7822 111.053 81.7822C112.349 81.7822 113.646 83.1684 114.942 85.9406C114.942 87.3268 113.646 88.7129 112.349 88.7129C111.053 88.7129 108.461 87.3268 108.461 85.9406Z" fill="#E9F3FE"/>
<path fill-rule="evenodd" clip-rule="evenodd" d="M234.2 289.703H200.497C200.497 286.931 200.497 284.158 200.497 280C199.201 274.456 199.201 268.911 199.201 263.366C199.201 260.594 199.201 259.208 199.201 257.822C199.201 256.436 199.201 255.05 199.201 252.277C199.201 249.505 197.904 246.733 197.904 242.574C197.904 238.416 197.904 234.257 197.904 230.099C197.904 230.099 197.904 228.713 197.904 227.327C197.904 225.941 197.904 225.941 197.904 224.555C197.904 216.238 197.904 206.535 199.201 198.218C199.201 180.198 199.201 166.337 200.497 158.02C200.497 155.248 200.497 153.861 200.497 153.861C200.497 153.861 200.497 153.861 201.793 153.861C201.793 153.861 203.09 155.248 204.386 155.248C204.386 155.248 205.682 155.248 206.978 155.248C208.275 156.634 209.571 156.634 210.867 158.02C213.46 159.406 216.052 162.178 217.349 164.951C217.349 167.723 219.941 180.198 222.534 198.218V199.604C223.83 209.307 225.126 220.396 226.423 230.099C227.719 241.188 230.311 253.663 231.608 264.753C232.904 273.069 232.904 281.386 234.2 289.703Z" fill="#2B478B"/>
<path fill-rule="evenodd" clip-rule="evenodd" d="M225.126 289.703H186.238C184.942 285.545 184.942 282.772 183.645 280C182.349 270.297 181.053 263.366 181.053 260.594C181.053 257.822 182.349 256.436 182.349 256.436C183.645 255.049 184.942 255.049 186.238 253.663C188.83 252.277 194.015 252.277 199.201 252.277C200.497 252.277 201.793 253.663 203.089 253.663C213.46 255.049 221.237 256.436 221.237 256.436C221.237 256.436 222.534 259.208 222.534 263.366C223.83 267.525 223.83 271.683 223.83 275.842C225.126 280 225.126 282.772 225.126 285.545C225.126 286.931 225.126 288.317 225.126 289.703Z" fill="#233862"/>
<path fill-rule="evenodd" clip-rule="evenodd" d="M206.978 260.594V263.366L204.385 277.228V280L203.089 289.703H162.904C162.904 282.772 161.608 277.228 161.608 271.683C161.608 271.683 161.608 271.683 161.608 270.297C161.608 263.366 162.904 257.822 164.2 256.436C166.793 253.663 174.571 255.049 182.348 256.436C183.645 256.436 184.941 256.436 184.941 256.436C190.126 256.436 195.311 257.822 199.2 257.822C200.496 259.208 203.089 259.208 204.385 259.208C205.681 259.208 206.978 260.594 206.978 260.594Z" fill="#C65447"/>
<path fill-rule="evenodd" clip-rule="evenodd" d="M161.608 160.792C161.608 160.792 183.645 145.545 200.496 153.861C203.089 155.247 205.681 158.02 208.274 160.792C213.459 167.723 225.126 275.842 225.126 275.842C225.126 275.842 192.719 288.317 161.608 271.683V160.792Z" fill="white"/>
<path fill-rule="evenodd" clip-rule="evenodd" d="M201.793 153.861C201.793 153.861 223.83 163.564 227.718 170.495C230.311 178.812 240.681 225.941 240.681 231.485C240.681 235.644 222.533 231.485 219.941 223.168C217.348 216.238 209.571 192.673 205.682 178.812L201.793 153.861Z" fill="#1F3B7A"/>
<path fill-rule="evenodd" clip-rule="evenodd" d="M196.607 160.792C191.422 162.178 184.941 160.792 179.756 156.634C182.348 151.089 182.348 146.931 183.645 142.772C183.645 141.386 183.645 140 183.645 140H196.607C196.607 140 199.2 141.386 199.2 142.772V144.158C199.2 145.545 199.2 146.931 199.2 148.317C200.496 152.475 200.496 153.861 200.496 153.861C200.496 153.861 201.792 159.406 196.607 160.792Z" fill="#FFB27D"/>
<path fill-rule="evenodd" clip-rule="evenodd" d="M199.201 148.317C190.127 149.703 184.941 144.158 183.645 142.772C182.349 142.772 182.349 142.772 182.349 142.772H183.645C186.238 141.386 195.312 142.772 199.201 144.158C199.201 145.544 199.201 146.931 199.201 148.317Z" fill="#E2915A"/>
<path fill-rule="evenodd" clip-rule="evenodd" d="M179.757 137.228C181.053 146.931 194.016 146.931 199.201 145.545C200.497 145.545 201.793 145.545 201.793 145.545C203.09 145.545 204.386 142.772 204.386 138.614C205.682 131.683 204.386 120.594 203.09 119.208C200.497 115.05 197.905 109.505 186.238 113.663C173.275 116.436 177.164 124.753 179.757 137.228Z" fill="#FFB27D"/>
<path fill-rule="evenodd" clip-rule="evenodd" d="M203.089 113.664C201.793 110.891 197.904 108.119 195.311 105.347C187.534 101.188 179.756 105.347 179.756 105.347C169.386 110.891 166.793 119.208 171.978 131.683C177.163 144.159 182.349 142.772 182.349 142.772C182.349 142.772 182.349 142.772 182.349 138.614C182.349 137.228 182.349 137.228 182.349 137.228C182.349 137.228 182.349 135.842 181.052 135.842C179.756 134.456 179.756 130.297 179.756 128.911C181.052 128.911 183.645 130.297 183.645 130.297C184.941 131.683 184.941 131.683 186.237 131.683C188.83 128.911 187.534 124.753 190.126 121.98C192.719 120.594 199.2 121.98 203.089 120.594C209.57 117.822 204.385 115.05 203.089 113.664Z" fill="#233862"/>
<path fill-rule="evenodd" clip-rule="evenodd" d="M204.386 289.703H156.423C156.423 278.614 157.72 266.139 157.72 252.277C157.72 249.505 157.72 245.347 157.72 242.574C157.72 241.188 157.72 239.802 157.72 238.416C159.016 209.307 160.312 182.97 160.312 181.584C160.312 178.812 161.608 176.04 161.608 173.267C162.905 166.337 165.497 162.178 169.386 159.406C169.386 159.406 173.275 158.02 175.867 156.634C178.46 155.248 181.053 153.861 181.053 153.861C181.053 153.861 182.349 153.861 182.349 155.248C182.349 156.634 183.645 158.02 183.645 159.406C186.238 166.337 188.83 174.654 190.127 181.584C191.423 187.129 192.719 189.901 192.719 191.287C192.719 192.673 192.719 196.832 194.015 200.99C194.015 206.535 195.312 214.852 196.608 224.555C196.608 225.941 196.608 225.941 196.608 227.327C196.608 228.713 196.608 230.099 196.608 230.099C196.608 231.485 197.904 231.485 197.904 231.485C197.904 235.644 197.904 239.802 197.904 242.574C199.2 246.733 203.089 248.119 203.089 252.277C203.089 252.277 203.089 252.277 203.089 253.663C204.386 255.05 204.386 256.436 204.386 259.208C204.386 260.594 204.386 261.98 204.386 263.366C204.386 268.911 204.386 274.456 204.386 277.228C204.386 278.614 204.386 278.614 204.386 280C204.386 282.772 204.386 285.545 204.386 289.703Z" fill="#1F3B7A"/>
<path fill-rule="evenodd" clip-rule="evenodd" d="M171.979 194.059C171.979 194.059 170.682 223.168 191.423 225.941C212.163 230.099 197.904 230.099 197.904 230.099C197.904 230.099 160.312 228.713 159.016 227.327L171.979 194.059Z" fill="#233862"/>
<path fill-rule="evenodd" clip-rule="evenodd" d="M188.83 238.416C188.83 238.416 188.83 238.416 187.534 239.802C184.941 241.188 175.867 248.119 161.608 250.891C160.312 252.277 159.016 252.277 157.719 252.277C157.719 249.505 157.719 245.346 157.719 242.574C156.423 242.574 153.83 242.574 152.534 241.188C152.534 241.188 152.534 241.188 152.534 239.802C155.127 239.802 156.423 238.416 157.719 238.416C159.016 237.03 160.312 237.03 161.608 237.03C168.089 234.257 171.978 232.871 171.978 232.871L187.534 238.416H188.83Z" fill="#233862"/>
<path fill-rule="evenodd" clip-rule="evenodd" d="M194.015 238.416C194.015 238.416 191.423 238.416 187.534 239.802C182.349 241.188 170.682 242.574 161.608 242.574C160.312 242.574 159.016 242.574 157.72 242.574C156.423 242.574 153.831 242.574 152.534 241.188C149.942 241.188 146.053 239.802 144.757 237.03C130.498 223.168 152.534 167.723 156.423 163.564C161.608 156.634 171.979 155.248 177.164 153.861C179.756 153.861 181.053 153.861 181.053 153.861C181.053 153.861 179.756 155.248 179.756 158.02C179.756 158.02 178.46 159.406 178.46 160.792C175.867 171.881 169.386 194.059 166.793 206.535C165.497 212.079 164.201 214.852 165.497 216.238C165.497 220.396 177.164 223.168 184.941 223.168C187.534 224.555 190.126 224.555 190.126 224.555V225.941L191.423 230.099L192.719 234.257L194.015 238.416Z" fill="#1F3B7A"/>
<path fill-rule="evenodd" clip-rule="evenodd" d="M231.607 264.753L184.941 261.98L194.015 198.218L241.977 200.99L231.607 264.753Z" fill="#B3B3B3"/>
<path fill-rule="evenodd" clip-rule="evenodd" d="M190.126 224.555C190.126 224.555 199.2 223.168 200.497 225.941C200.497 231.485 191.423 235.644 188.83 235.644C186.237 235.644 187.534 223.168 190.126 224.555Z" fill="#FFB27D"/>
<path fill-rule="evenodd" clip-rule="evenodd" d="M239.385 213.465C239.385 213.465 230.311 210.693 229.015 213.465C227.719 217.624 235.497 224.554 238.089 224.554C240.682 224.554 240.682 213.465 239.385 213.465Z" fill="#FFB27D"/>
<path fill-rule="evenodd" clip-rule="evenodd" d="M181.052 149.703C181.052 149.703 177.164 152.475 175.867 155.248C175.867 155.248 190.126 182.97 190.126 181.584C190.126 181.584 184.941 153.861 181.052 149.703Z" fill="#233862"/>
<path fill-rule="evenodd" clip-rule="evenodd" d="M199.201 151.089C200.497 151.089 203.09 153.861 204.386 155.248L205.682 178.812C205.682 178.812 201.793 162.178 200.497 153.861C199.201 152.475 200.497 151.089 199.201 151.089Z" fill="#233862"/>
<path fill-rule="evenodd" clip-rule="evenodd" d="M209.57 199.604C209.57 199.604 210.867 198.218 212.163 198.218C214.756 198.218 226.422 198.218 226.422 198.218C226.422 198.218 229.015 198.218 229.015 199.604H209.57Z" fill="#4D4D4D"/>
<path fill-rule="evenodd" clip-rule="evenodd" d="M196.607 140C196.607 140 197.904 141.386 200.496 140C201.793 140 203.089 138.614 203.089 138.614C203.089 138.614 199.2 137.228 196.607 140Z" fill="white"/>
<path fill-rule="evenodd" clip-rule="evenodd" d="M422.16 159.406H385.864L375.494 112.277H410.494L422.16 159.406Z" fill="white"/>
<path fill-rule="evenodd" clip-rule="evenodd" d="M401.419 119.208H387.16V117.822H401.419V119.208Z" fill="#ADCBF9"/>
<path fill-rule="evenodd" clip-rule="evenodd" d="M404.012 120.594H385.864H384.568L404.012 119.208V120.594Z" fill="#ADCBF9"/>
<path fill-rule="evenodd" clip-rule="evenodd" d="M409.197 130.297H384.568V128.911H409.197V130.297Z" fill="#ADCBF9"/>
<path fill-rule="evenodd" clip-rule="evenodd" d="M409.197 131.683L385.864 133.069V131.683H409.197Z" fill="#ADCBF9"/>
<path fill-rule="evenodd" clip-rule="evenodd" d="M410.494 137.228H387.161L385.864 135.842H410.494V137.228Z" fill="#ADCBF9"/>
<path fill-rule="evenodd" clip-rule="evenodd" d="M413.086 149.703H389.753V148.317H413.086V149.703Z" fill="#ADCBF9"/>
<path fill-rule="evenodd" clip-rule="evenodd" d="M414.383 153.861H391.05L414.383 152.475V153.861Z" fill="#ADCBF9"/>
<path fill-rule="evenodd" clip-rule="evenodd" d="M436.419 217.624H400.124L389.753 170.495H424.753L436.419 217.624Z" fill="white"/>
<path fill-rule="evenodd" clip-rule="evenodd" d="M415.679 176.04L401.42 177.426L400.124 176.04H415.679Z" fill="#ADCBF9"/>
<path fill-rule="evenodd" clip-rule="evenodd" d="M418.271 178.812H400.123L398.827 177.426H418.271V178.812Z" fill="#ADCBF9"/>
<path fill-rule="evenodd" clip-rule="evenodd" d="M423.456 188.515H398.827V187.129H423.456V188.515Z" fill="#ADCBF9"/>
<path fill-rule="evenodd" clip-rule="evenodd" d="M424.753 195.446H400.124V194.059H424.753V195.446Z" fill="#ADCBF9"/>
<path fill-rule="evenodd" clip-rule="evenodd" d="M427.345 205.148H402.716V203.762H427.345V205.148Z" fill="#ADCBF9"/>
<path fill-rule="evenodd" clip-rule="evenodd" d="M427.345 207.921H404.012V206.535H427.345V207.921Z" fill="#ADCBF9"/>
<path fill-rule="evenodd" clip-rule="evenodd" d="M428.641 212.079H405.308V210.693H428.641V212.079Z" fill="#ADCBF9"/>
<path fill-rule="evenodd" clip-rule="evenodd" d="M450.678 275.842H414.382L404.012 228.713H439.012L450.678 275.842Z" fill="white"/>
<path fill-rule="evenodd" clip-rule="evenodd" d="M429.938 235.643H415.679L414.383 234.257H429.938V235.643Z" fill="#ADCBF9"/>
<path fill-rule="evenodd" clip-rule="evenodd" d="M437.715 246.733H413.086V245.347H437.715V246.733Z" fill="#ADCBF9"/>
<path fill-rule="evenodd" clip-rule="evenodd" d="M437.715 249.505H414.382L413.086 248.119H437.715V249.505Z" fill="#ADCBF9"/>
<path fill-rule="evenodd" clip-rule="evenodd" d="M439.012 253.663H414.383V252.277H439.012V253.663Z" fill="#ADCBF9"/>
<path fill-rule="evenodd" clip-rule="evenodd" d="M441.604 266.139H418.271V264.752H441.604V266.139Z" fill="#ADCBF9"/>
<path fill-rule="evenodd" clip-rule="evenodd" d="M404.012 275.842L280.866 277.228L245.866 131.683L261.422 113.663L363.828 112.277L404.012 275.842Z" fill="white"/>
<path fill-rule="evenodd" clip-rule="evenodd" d="M330.125 137.228H286.051V135.842H330.125V137.228Z" fill="#ADCBF9"/>
<path fill-rule="evenodd" clip-rule="evenodd" d="M336.606 142.772H282.162V141.386H336.606V142.772Z" fill="#ADCBF9"/>
<path fill-rule="evenodd" clip-rule="evenodd" d="M352.161 170.495H280.866V169.109H350.865L352.161 170.495Z" fill="#ADCBF9"/>
<path fill-rule="evenodd" clip-rule="evenodd" d="M353.457 177.426H283.458L282.162 176.04H353.457V177.426Z" fill="#ADCBF9"/>
<path fill-rule="evenodd" clip-rule="evenodd" d="M354.753 184.356H284.754L283.458 182.97L354.753 181.584V184.356Z" fill="#ADCBF9"/>
<path fill-rule="evenodd" clip-rule="evenodd" d="M357.346 191.287H286.051V188.515H356.05L357.346 191.287Z" fill="#ADCBF9"/>
<path fill-rule="evenodd" clip-rule="evenodd" d="M358.643 198.218H287.347V195.446H357.346L358.643 198.218Z" fill="#ADCBF9"/>
<path fill-rule="evenodd" clip-rule="evenodd" d="M362.531 213.465L291.236 214.852V212.079H362.531V213.465Z" fill="#ADCBF9"/>
<path fill-rule="evenodd" clip-rule="evenodd" d="M363.827 220.396H293.828L292.532 219.01H363.827V220.396Z" fill="#ADCBF9"/>
<path fill-rule="evenodd" clip-rule="evenodd" d="M365.124 227.327H295.125V225.941L365.124 224.554V227.327Z" fill="#ADCBF9"/>
<path fill-rule="evenodd" clip-rule="evenodd" d="M367.717 234.257H296.421V232.871L366.42 231.485L367.717 234.257Z" fill="#ADCBF9"/>
<path fill-rule="evenodd" clip-rule="evenodd" d="M369.013 241.188H297.718V238.416H369.013V241.188Z" fill="#ADCBF9"/>
<path fill-rule="evenodd" clip-rule="evenodd" d="M245.866 131.683H265.31L261.422 113.664L245.866 131.683Z" fill="#ADCBF9"/>
<path fill-rule="evenodd" clip-rule="evenodd" d="M541.418 389.505H441.604V352.079H541.418C549.195 352.079 555.677 359.01 555.677 367.327V374.257C555.677 382.574 549.195 389.505 541.418 389.505Z" fill="#FCECDB"/>
<path fill-rule="evenodd" clip-rule="evenodd" d="M641.231 367.327V372.871C641.231 375.644 641.231 378.416 639.935 381.188C637.343 386.733 632.157 389.505 625.676 389.505H439.012C437.716 389.505 436.419 388.119 436.419 386.733C436.419 385.347 437.716 383.96 439.012 383.96H553.084C553.084 383.96 554.381 382.574 554.381 381.188C555.677 379.802 555.677 377.03 555.677 374.257V367.327C555.677 365.941 555.677 364.554 555.677 363.168C555.677 361.782 554.381 359.01 553.084 357.624H439.012C437.716 357.624 436.419 356.238 436.419 354.852C436.419 353.465 437.716 352.079 439.012 352.079H626.972C633.454 352.079 639.935 356.238 641.231 363.168C641.231 364.554 641.231 365.941 641.231 367.327Z" fill="#699DEE"/>
<path fill-rule="evenodd" clip-rule="evenodd" d="M641.231 363.168H555.677C555.677 361.782 554.381 359.01 553.084 357.624H439.012C437.716 357.624 436.419 356.238 436.419 354.852C436.419 353.465 437.716 352.079 439.012 352.079H626.972C633.454 352.079 639.935 356.238 641.231 363.168Z" fill="#548EE2"/>
<path fill-rule="evenodd" clip-rule="evenodd" d="M441.604 377.03H474.011L441.604 378.416V377.03Z" fill="#F4D2B8"/>
<path fill-rule="evenodd" clip-rule="evenodd" d="M464.937 418.614H572.528V389.505H464.937C457.16 389.505 450.678 396.436 450.678 403.366C450.678 411.683 457.16 418.614 464.937 418.614Z" fill="#2B478B"/>
<path fill-rule="evenodd" clip-rule="evenodd" d="M566.047 418.614H687.897V389.505H566.047C558.269 389.505 551.788 396.436 551.788 404.753C551.788 413.069 558.269 418.614 566.047 418.614Z" fill="#FCECDB"/>
<path fill-rule="evenodd" clip-rule="evenodd" d="M544.01 418.614H691.786C693.082 418.614 693.082 418.614 693.082 417.228C693.082 415.842 693.082 414.456 691.786 414.456H544.01C542.714 414.456 541.418 415.842 541.418 417.228C541.418 418.614 542.714 418.614 544.01 418.614Z" fill="#2B478B"/>
<path fill-rule="evenodd" clip-rule="evenodd" d="M544.01 393.663H691.786C693.082 393.663 693.082 393.663 693.082 392.277C693.082 390.891 693.082 389.505 691.786 389.505H544.01C542.714 389.505 541.418 390.891 541.418 392.277C541.418 393.663 542.714 393.663 544.01 393.663Z" fill="#2B478B"/>
<path fill-rule="evenodd" clip-rule="evenodd" d="M649.009 397.822C649.009 397.822 650.305 399.208 650.305 401.98C651.602 401.98 651.602 401.98 651.602 401.98C651.602 404.753 651.602 411.683 651.602 411.683L655.49 408.911L660.676 411.683V403.366C660.676 401.98 660.676 400.594 659.379 399.208C659.379 397.822 659.379 397.822 658.083 397.822H649.009Z" fill="#2B478B"/>
<path fill-rule="evenodd" clip-rule="evenodd" d="M649.009 397.822C649.009 397.822 650.305 399.208 650.305 401.98H660.676C660.676 401.98 660.676 397.822 658.083 397.822H649.009Z" fill="#2B478B"/>
<path fill-rule="evenodd" clip-rule="evenodd" d="M553.084 352.079H661.971V309.109H553.084C544.01 309.109 537.529 316.04 537.529 325.743V334.06C537.529 343.763 544.01 352.079 553.084 352.079Z" fill="#FCECDB"/>
<path fill-rule="evenodd" clip-rule="evenodd" d="M540.121 325.743V335.446C540.121 338.218 541.418 342.376 545.306 343.763C546.603 345.149 547.899 345.149 550.491 345.149H668.453C669.749 345.149 671.045 346.535 671.045 347.921V349.307C671.045 350.693 669.749 352.079 668.453 352.079H463.641C458.456 352.079 453.271 349.307 449.382 343.763C448.086 340.99 446.789 336.832 446.789 334.06V325.743C446.789 322.971 446.789 320.198 448.086 318.812C450.678 313.268 455.863 309.109 462.345 309.109H668.453C669.749 309.109 671.045 310.495 671.045 311.881C671.045 314.654 669.749 314.654 668.453 314.654H549.195C546.603 314.654 544.01 316.04 542.714 318.812C541.418 320.198 540.121 322.971 540.121 325.743Z" fill="#7E40FF"/>
<path fill-rule="evenodd" clip-rule="evenodd" d="M661.971 329.901L647.712 331.287H661.971V329.901Z" fill="#F4D2B8"/>
<path fill-rule="evenodd" clip-rule="evenodd" d="M661.972 320.198L626.972 321.584H661.972V320.198Z" fill="#F4D2B8"/>
<path fill-rule="evenodd" clip-rule="evenodd" d="M626.972 321.584C626.972 321.584 629.565 322.97 629.565 324.357C629.565 325.743 629.565 325.743 629.565 325.743C630.861 328.515 629.565 335.446 629.565 335.446L637.342 332.673L643.824 335.446V327.129C643.824 324.357 643.824 322.97 642.528 321.584C642.528 321.584 641.231 321.584 639.935 321.584H626.972Z" fill="#7E40FF"/>
<path fill-rule="evenodd" clip-rule="evenodd" d="M626.972 321.584C626.972 321.584 629.565 322.97 629.565 324.357H643.824C643.824 324.357 643.824 321.584 639.935 321.584H626.972Z" fill="#7E40FF"/>
<path fill-rule="evenodd" clip-rule="evenodd" d="M555.677 292.475C562.158 304.95 569.936 309.109 569.936 309.109H602.343C602.343 309.109 550.492 284.158 555.677 292.475Z" fill="#233862"/>
<path fill-rule="evenodd" clip-rule="evenodd" d="M580.306 382.574C581.603 383.961 581.603 385.347 581.603 385.347C580.306 388.119 577.714 390.891 575.121 393.663C573.825 393.663 573.825 393.663 573.825 393.663C573.825 395.05 573.825 395.05 573.825 395.05C569.936 397.822 571.232 397.822 566.047 403.366C560.862 410.297 556.973 410.297 555.677 408.911C554.381 408.911 556.973 406.139 558.27 401.98C559.566 401.98 559.566 401.98 559.566 401.98C559.566 400.594 559.566 400.594 559.566 399.208C562.158 395.05 562.158 393.663 560.862 386.733C560.862 381.188 553.084 356.238 553.084 356.238L564.751 353.465C564.751 353.465 567.344 374.258 571.232 377.03C572.529 378.416 575.121 378.416 577.714 379.802C579.01 381.188 579.01 381.188 580.306 382.574Z" fill="#FFB27D"/>
<path fill-rule="evenodd" clip-rule="evenodd" d="M580.306 382.574C581.602 383.96 581.602 385.347 581.602 385.347C580.306 388.119 577.714 390.891 575.121 393.663C573.825 393.663 573.825 393.663 573.825 393.663C573.825 395.05 573.825 395.05 573.825 395.05C569.936 397.822 571.232 397.822 566.047 403.366C560.862 410.297 556.973 410.297 555.677 408.911C554.38 408.911 556.973 406.139 558.269 401.98C559.566 401.98 564.751 399.208 568.64 393.663C572.528 389.505 575.121 382.574 577.714 379.802C579.01 381.188 579.01 381.188 580.306 382.574Z" fill="#233862"/>
<path fill-rule="evenodd" clip-rule="evenodd" d="M492.159 375.643C492.159 378.416 486.974 378.416 481.789 377.03C476.604 375.643 477.9 377.03 470.122 375.643C462.345 375.643 459.752 372.871 459.752 371.485C459.752 370.099 463.641 370.099 467.53 368.713C467.53 368.713 467.53 368.713 468.826 368.713C472.715 368.713 476.604 364.554 480.492 363.168C484.381 360.396 490.863 350.693 490.863 350.693H501.233C501.233 350.693 496.048 360.396 493.455 363.168C492.159 365.94 492.159 368.713 492.159 371.485C492.159 372.871 492.159 374.257 492.159 375.643Z" fill="#FFB27D"/>
<path fill-rule="evenodd" clip-rule="evenodd" d="M481.789 377.03C476.604 375.644 477.9 377.03 470.122 375.644C462.345 375.644 459.752 372.871 459.752 371.485C459.752 370.099 463.641 370.099 467.53 368.713C467.53 368.713 471.418 372.871 477.9 372.871C483.085 372.871 488.27 371.485 492.159 371.485C492.159 372.871 492.159 374.257 492.159 375.644C492.159 378.416 486.974 378.416 481.789 377.03Z" fill="#233862"/>
<path fill-rule="evenodd" clip-rule="evenodd" d="M532.344 303.564L542.714 331.287L555.677 368.713C555.677 368.713 558.269 368.713 562.158 367.327C564.751 367.327 568.64 364.554 568.64 364.554C568.64 364.554 564.751 324.356 558.269 302.178C556.973 296.634 554.38 291.089 553.084 289.703C542.714 275.842 532.344 303.564 532.344 303.564Z" fill="#233862"/>
<path fill-rule="evenodd" clip-rule="evenodd" d="M542.714 259.208C549.195 256.436 567.343 259.208 585.491 263.366L589.38 256.436L629.565 253.663C629.565 253.663 642.527 284.159 634.75 303.564C634.75 306.337 632.157 309.109 628.268 309.109C628.268 309.109 603.639 309.109 597.158 309.109C576.417 309.109 554.38 293.861 551.788 293.861C546.603 292.475 545.306 302.178 540.121 313.267C536.232 324.357 497.344 359.01 497.344 359.01C497.344 359.01 490.863 360.396 488.27 359.01C485.678 357.624 484.381 356.238 484.381 356.238C484.381 356.238 528.455 263.366 542.714 259.208Z" fill="#1F3B7A"/>
<path fill-rule="evenodd" clip-rule="evenodd" d="M589.38 198.218C603.639 206.535 632.157 223.168 632.157 223.168C632.157 223.168 643.823 227.327 649.008 223.168C659.379 216.238 664.564 196.832 646.416 180.198C637.342 173.267 630.861 170.495 629.564 158.02C629.564 151.089 620.49 127.525 604.935 128.911C603.639 128.911 595.861 130.297 590.676 133.069C577.713 140 568.639 194.059 589.38 198.218Z" fill="#233862"/>
<path fill-rule="evenodd" clip-rule="evenodd" d="M601.046 191.287C601.046 191.287 608.824 194.059 612.713 191.287C617.898 188.515 620.49 181.584 620.49 181.584C619.194 181.584 616.602 178.812 615.305 166.337L614.009 167.723L599.75 173.267C599.75 173.267 601.046 177.426 601.046 182.97C602.343 185.742 602.343 189.901 601.046 191.287Z" fill="#FFB27D"/>
<path fill-rule="evenodd" clip-rule="evenodd" d="M599.75 173.267C599.75 173.267 601.046 177.426 601.046 182.97C610.12 180.198 612.713 171.881 614.009 167.723L599.75 173.267Z" fill="#ED975D"/>
<path fill-rule="evenodd" clip-rule="evenodd" d="M597.157 177.426C597.157 177.426 617.898 174.654 615.305 162.178C614.009 148.317 615.305 140 602.343 141.386C589.38 141.386 588.084 146.931 588.084 152.476C586.787 156.634 591.972 178.812 597.157 177.426Z" fill="#FFB27D"/>
<path fill-rule="evenodd" clip-rule="evenodd" d="M588.083 144.158C588.083 144.158 601.046 156.634 608.824 158.02C617.898 158.02 621.787 155.247 621.787 155.247C621.787 155.247 616.602 151.089 612.713 144.158C612.713 141.386 610.12 140 608.824 140C602.343 138.614 590.676 138.614 588.083 144.158Z" fill="#233862"/>
<path fill-rule="evenodd" clip-rule="evenodd" d="M595.861 144.159C595.861 144.159 591.973 148.317 590.676 151.089C589.38 153.862 589.38 162.178 589.38 164.951C589.38 164.951 582.899 151.089 586.788 144.159C590.676 137.228 595.861 144.159 595.861 144.159Z" fill="#233862"/>
<path fill-rule="evenodd" clip-rule="evenodd" d="M585.492 221.782C585.492 264.752 585.492 255.049 589.38 259.208C590.677 260.594 593.269 260.594 597.158 261.98C610.121 261.98 630.861 260.594 632.158 257.822C634.75 249.505 632.158 246.732 634.75 234.257C636.046 232.871 636.046 231.485 636.046 230.099C638.639 220.396 639.935 217.624 633.454 203.762C626.972 191.287 620.491 180.198 619.195 180.198C602.343 191.287 601.047 182.97 601.047 182.97C601.047 182.97 584.195 200.99 585.492 221.782Z" fill="white"/>
<path fill-rule="evenodd" clip-rule="evenodd" d="M542.714 331.287L555.677 368.713C555.677 368.713 558.269 368.713 562.158 367.327C564.751 367.327 568.639 364.554 568.639 364.554C568.639 364.554 564.751 324.356 558.269 302.178L542.714 331.287Z" fill="#2B478B"/>
<path fill-rule="evenodd" clip-rule="evenodd" d="M601.047 182.97C601.047 182.97 584.195 185.743 582.899 194.059C580.306 200.99 568.64 248.119 568.64 248.119C568.64 248.119 577.714 249.505 581.602 245.347C585.491 241.188 595.861 205.149 595.861 205.149L601.047 182.97Z" fill="white"/>
<path fill-rule="evenodd" clip-rule="evenodd" d="M597.158 261.98C610.121 261.98 630.861 260.594 632.157 257.822C634.75 249.505 632.157 246.733 634.75 234.257L629.565 216.238C629.565 216.238 630.861 235.644 624.38 241.188C619.195 246.733 602.343 250.891 599.751 255.05C598.454 257.822 597.158 259.208 597.158 261.98Z" fill="#EBF3FF"/>
<path fill-rule="evenodd" clip-rule="evenodd" d="M611.417 253.663C611.417 253.663 599.75 250.891 597.158 250.891C595.861 252.277 590.676 256.436 590.676 257.822C589.38 259.208 594.565 256.436 595.861 256.436C597.158 256.436 599.75 257.822 601.047 257.822C607.528 259.208 610.12 259.208 610.12 259.208L611.417 253.663Z" fill="#FFB27D"/>
<path fill-rule="evenodd" clip-rule="evenodd" d="M619.195 180.198C619.195 180.198 636.046 181.584 641.231 189.901C649.009 202.376 664.564 252.277 655.49 259.208C646.416 266.138 610.121 260.594 610.121 260.594C610.121 260.594 608.824 255.049 610.121 252.277C611.417 249.505 638.639 243.96 639.935 242.574C641.231 241.188 624.38 217.623 624.38 213.465C624.38 209.307 619.195 180.198 619.195 180.198Z" fill="white"/>
<path fill-rule="evenodd" clip-rule="evenodd" d="M597.158 255.05C597.158 255.05 594.565 257.822 593.269 259.208H591.973L593.269 256.436L597.158 255.05Z" fill="#FFB27D"/>
<path fill-rule="evenodd" clip-rule="evenodd" d="M597.158 250.891L590.676 255.05C591.973 255.05 594.565 255.05 594.565 255.05L597.158 250.891Z" fill="#FFB27D"/>
<path fill-rule="evenodd" clip-rule="evenodd" d="M593.269 264.752H534.937L518.085 217.624H576.417L593.269 264.752Z" fill="#B3B3B3"/>
<path fill-rule="evenodd" clip-rule="evenodd" d="M534.936 261.98H611.417V264.753H534.936V261.98Z" fill="#666666"/>
<path fill-rule="evenodd" clip-rule="evenodd" d="M550.492 241.188C549.195 239.802 550.492 238.416 551.788 238.416C553.084 238.416 555.677 239.802 555.677 241.188C555.677 242.574 555.677 243.961 553.084 243.961C551.788 243.961 550.492 242.574 550.492 241.188Z" fill="white"/>
<path fill-rule="evenodd" clip-rule="evenodd" d="M402.716 101.188C402.716 99.802 404.012 98.4159 405.308 98.4159C406.605 98.4159 407.901 99.802 407.901 101.188C407.901 102.574 406.605 103.96 405.308 103.96C404.012 103.96 402.716 102.574 402.716 101.188Z" fill="#B3B3B3"/>
<defs>
<linearGradient id="paint0_linear_16_177" x1="98.41" y1="109.905" x2="456.147" y2="237.409" gradientUnits="userSpaceOnUse">
<stop stop-color="#8CB0FF"/>
<stop offset="1" stop-color="#407CFF"/>
</linearGradient>
</defs>
</svg>
