<svg width="715" height="420" viewBox="0 0 715 420" fill="none" xmlns="http://www.w3.org/2000/svg">
<path d="M96.5391 418.177C96.5391 418.177 -6.05804 391.081 0.282203 245.545C6.62245 100.009 129.201 34.0817 191.435 78.7311C217.942 97.753 272.161 102.076 316.341 62.9483C435.919 -67.6471 722.494 10.5803 666.43 245.545C639.302 359.252 755.484 304.515 699.588 418.177H96.5391Z" fill="#C6D7FF"/>
<path d="M478.855 175.427C477.995 174.191 476.988 173.073 475.86 172.098C474.265 170.817 472.581 168.414 473.075 167.636C473.569 166.857 478.365 163.201 478.365 163.201L480.922 169.777L478.855 175.427Z" fill="#F98D3D"/>
<path d="M520.234 98.7144L561.983 81.5045L585.336 104.925L545.65 121.025L520.234 98.7144Z" fill="#407CFF"/>
<path d="M497.458 191.488L480.837 169.294L478.856 175.427C478.856 175.427 495.879 215.695 503.677 211.949C507.308 210.205 497.458 191.488 497.458 191.488Z" fill="#F98D3D"/>
<path d="M549.412 119.082C549.412 119.082 541.304 124.05 546.279 133.679C546.279 133.679 539.166 132.328 537.646 130.12C537.738 130.599 537.886 131.063 538.088 131.503C538.088 131.503 529.766 130.405 528.231 127.177C525.071 120.527 532.742 120.947 536.059 114.04C540.394 105.018 547.193 97.9279 556.806 102.908C556.806 102.908 570.249 102.129 564.17 120.059C558.09 137.99 563.837 139.559 563.837 139.559C563.837 139.559 562.032 139.948 561.261 139.726C561.261 139.726 560.247 138.971 560.19 138.258C560.19 138.258 560.153 139.341 560.359 139.742C560.359 139.742 553.995 138.648 551.528 135.361C549.061 132.075 547.567 122.614 549.412 119.082Z" fill="#C94C43"/>
<path d="M537.703 147.926H537.677C537.631 147.928 537.631 147.926 537.703 147.926Z" fill="#FFB27D"/>
<path d="M557.417 142.023C557.653 144.247 557.937 146.236 558.064 147.186C558.158 147.868 559.637 159.985 556.941 160.105C554.246 160.226 547.545 174.586 544.531 174.469C541.162 174.337 538.167 147.926 537.718 147.926C538.583 147.537 541.214 138.85 542.049 135.537C543.06 131.518 543.85 127.177 543.85 127.177L557.555 128.076L558.371 128.131C557.898 129.935 557.523 131.765 557.248 133.613C557.218 133.839 557.185 134.073 557.155 134.298C556.9 136.191 557.121 139.282 557.417 142.023Z" fill="#F98D3D"/>
<path d="M541.947 125.74C541.947 125.74 539.723 118.412 540.172 112.79C540.494 108.779 546.641 97.3984 559.845 103.223C559.845 103.223 563.072 102.421 566.149 106.085C568.594 108.997 571.765 114.702 563.783 125.771L561.466 129.614L541.947 125.74Z" fill="#C94C43"/>
<path d="M557.416 142.023C547.829 139.103 543.76 127.586 543.76 127.586C547.814 127.71 553.096 130.638 557.237 133.613C557.207 133.839 557.173 134.073 557.143 134.298C556.9 136.191 557.121 139.282 557.416 142.023Z" fill="#ED701B"/>
<path d="M558.093 137.978C558.093 137.978 540.771 133.524 543.605 122.349C546.439 111.174 546.106 103.071 557.285 105.443C568.463 107.814 569.522 112.665 569.451 116.633C569.38 120.601 562.672 138.846 558.093 137.978Z" fill="#F98D3D"/>
<path d="M565.21 107.331C565.21 107.331 557.154 119.14 549.412 119.082C541.67 119.024 539.046 116.138 539.046 116.138C543.452 113.857 546.958 110.054 548.966 105.38C548.966 105.38 563.237 100.124 565.21 107.331Z" fill="#C94C43"/>
<path d="M563.769 108.075C563.769 108.075 566.55 111.968 566.685 115.052C566.82 118.136 565.719 124.097 567.411 124.35C567.411 124.35 573.236 116.419 570.518 110.278C567.639 103.768 563.769 108.075 563.769 108.075Z" fill="#C94C43"/>
<path d="M564.312 108.69C564.312 108.69 557.454 121.488 547.192 123.365C547.192 123.365 558.483 117.451 561.564 108.604C564.645 99.7579 564.312 108.69 564.312 108.69Z" fill="#C94C43"/>
<path d="M555.39 130.813C555.39 130.813 555.607 132.515 556.648 132.916C557.688 133.317 560.462 134.049 560.743 133.866C561.216 133.397 561.657 132.893 562.061 132.359C562.061 132.359 557.696 130.619 555.39 130.813Z" fill="white"/>
<path d="M548.926 301.771C548.701 302.725 548.484 303.671 548.267 304.61C546.961 310.252 545.744 315.485 544.98 319.869C543.984 325.565 543.749 329.805 545.055 331.585C548.424 336.183 547.571 360.787 546.459 378.495C545.804 389.035 545.055 397.134 545.055 397.134L538.934 403.691C538.934 403.691 536.995 393.229 534.551 380.536C531.264 363.474 527.063 342.378 525.405 337.215C524.091 333.119 522.182 315.636 520.489 297.788C520.407 296.896 520.321 296.005 520.239 295.109C519.947 291.994 519.666 288.879 519.396 285.838C517.88 268.956 520.074 253.054 520.074 253.054C520.074 253.054 528.037 246.236 538.29 245.317C544.333 244.772 550.015 246.77 552.823 254.495C556.911 265.728 552.767 285.122 548.926 301.771Z" fill="#F98D3D"/>
<path d="M548.921 301.767C540.535 295.467 528.736 284.246 524.453 265.88C523.633 256.741 530.559 248.062 538.304 245.317C544.346 244.768 550.029 246.77 552.837 254.491C556.91 265.724 552.77 285.126 548.921 301.767Z" fill="#F98D3D"/>
<path d="M579.511 190.764L620.729 201.841V206.844C620.729 206.844 579.71 206.346 577.063 201.592C574.416 196.838 579.511 190.764 579.511 190.764Z" fill="#F98D3D"/>
<path d="M620.74 355.768L618.815 364.038C618.815 364.038 610.299 359.463 599.491 353.549C582.645 344.325 560.235 331.838 555.84 328.333C552.946 326.021 549.102 313.472 545.575 299.275C540.293 278.11 535.64 253.292 535.64 253.292C535.64 253.292 543.453 222.022 564.379 241.159C576.898 252.61 574.955 274.679 573.581 291.842C572.668 303.356 572.013 312.666 576.164 315.076C582.128 318.537 596.578 331.184 606.791 343.561C610.452 348 613.567 352.404 615.555 356.337L620.74 355.768Z" fill="#F98D3D"/>
<path d="M620.738 201.841C620.738 201.841 628.304 197.948 631.31 197.589C634.316 197.231 639.367 197.091 639.367 197.589C639.367 198.088 633.953 201.588 632.512 201.841C631.071 202.094 628.304 204.22 629.143 204.469C629.981 204.719 634.436 203.656 634.496 204.469C634.556 205.283 631.789 205.782 631.31 206.416C630.831 207.051 629.143 207.791 626.444 207.417C623.744 207.043 620.742 206.852 620.742 206.852L620.738 201.841Z" fill="#F98D3D"/>
<path d="M620.738 319.725C594.121 359.584 525.452 364.054 525.452 364.054C514.304 321.73 518.871 214.717 521.424 174.94C521.267 167.994 521.525 162.118 522.622 159.86C524.329 156.356 533.609 150.231 536.945 147.194C537.406 147.001 537.889 146.87 538.382 146.805C538.88 148.627 545.069 170.466 545.683 170.011C546.296 169.555 556.722 148.794 557.819 146.357C558.942 146.392 559.691 146.419 559.927 146.431C561.769 146.524 571.701 148.592 572.532 150.258C572.824 150.839 575.676 158.7 579.27 169.104C579.27 169.113 579.27 169.122 579.27 169.131C585.986 188.65 595.836 184.986 599.748 190.768C602.207 194.397 601.148 201.172 596.588 207.028C596.214 207.526 595.791 208.013 595.353 208.492C591.883 212.311 587.177 214.57 579.517 213.398C577.612 213.106 573.76 211.19 570.615 208.363C578.144 237.811 620.738 319.725 620.738 319.725Z" fill="#407CFF"/>
<path d="M538.829 145.784L535.224 147.926C535.224 147.926 545.062 176.875 545.548 176.739C546.035 176.603 560.815 146.524 560.815 146.524L557.82 145.216L545.691 169.999L538.829 145.784Z" fill="#1F3B7A"/>
<path d="M569.508 108.46C569.508 108.46 556.896 101.105 536.059 114.04L536.957 110.485C537.351 108.912 538.053 107.44 539.019 106.163C539.986 104.885 541.195 103.828 542.572 103.06C545.713 101.315 550.569 99.61 557.487 99.6685C559.819 99.685 562.102 100.368 564.087 101.642C566.072 102.917 567.681 104.734 568.74 106.895L569.508 108.46Z" fill="#407CFF"/>
<path d="M506.656 117.894L506.346 116.8C517.517 113.358 519.913 101.292 520.321 98.4768C520.347 98.3012 520.422 98.1374 520.536 98.0053C520.651 97.8732 520.799 97.7787 520.965 97.7331C521.043 97.711 521.125 97.7098 521.204 97.7295C521.283 97.7492 521.355 97.7891 521.416 97.8458C521.476 97.9024 521.521 97.9738 521.547 98.0535C521.574 98.1332 521.581 98.2185 521.567 98.3016C521.051 101.564 518.307 114.301 506.656 117.894Z" fill="#EFCBAB"/>
<path d="M506.345 116.8H504.858L505.427 118.677L506.655 117.894L506.345 116.8Z" fill="#D8A987"/>
<path d="M504.859 116.8C504.859 116.8 502.808 117.396 502.374 116.8C502.374 116.8 502.329 118.603 503.059 119.078C503.059 119.078 504.706 119.136 505.428 118.689L504.859 116.8Z" fill="#EFCBAB"/>
<path d="M539.567 148.405C539.567 148.405 542.862 154.705 555.979 148.966L545.673 170.022L539.567 148.405Z" fill="white"/>
<path d="M535.224 147.926C535.224 147.926 533.513 207.849 519.287 219.464C518.349 220.259 517.259 220.839 516.09 221.165C508.91 223.069 503.695 218.623 500.165 212.459C495.257 203.893 493.595 192.029 494.43 189.292C496.013 184.086 499.671 193.295 507.33 190.768C514.99 188.241 517.064 156.114 522.417 151.442C523.828 150.219 535.224 147.926 535.224 147.926Z" fill="#407CFF"/>
<path d="M465.88 190.569C464.436 189.739 463.039 188.821 461.699 187.82C460.788 187.146 459.942 186.382 459.172 185.539C458.821 185.153 458.526 184.716 458.296 184.242C458.296 184.242 475.648 162.519 477.014 159.965C478.38 157.411 491.494 136.335 491.494 136.335C492.707 136.954 493.884 137.648 495.017 138.414C495.781 138.926 496.52 139.478 497.23 140.069C498.588 141.136 499.745 142.456 500.64 143.962C500.64 143.962 481.581 164.046 480.237 166.935C478.893 169.824 465.88 190.569 465.88 190.569Z" fill="#EFCBAB"/>
<path d="M461.699 187.82C460.788 187.146 459.942 186.382 459.172 185.539C458.821 185.153 458.526 184.716 458.296 184.242C458.296 184.242 475.648 162.519 477.014 159.965C478.38 157.411 491.494 136.335 491.494 136.335C492.707 136.954 493.884 137.648 495.017 138.414C495.781 138.926 496.52 139.478 497.23 140.069C491.88 145.746 477.433 161.231 476.198 163.886C475.004 166.471 465.596 181.59 461.699 187.82Z" fill="#DDB08E"/>
<path d="M479.545 155.725C479.545 155.725 474.428 160.888 473.84 164.408L479.193 168.874C479.193 168.874 483.873 164.104 485.359 160.576L479.545 155.725Z" fill="#1F3B7A"/>
<path d="M480.836 169.29C480.836 169.29 481.211 165.786 480.425 164.552C479.638 163.318 479.579 159.918 478.86 160.269C478.141 160.619 478.601 163.415 478.145 164.758C477.688 166.102 477.022 172.362 478.86 173.55C480.698 174.738 480.836 169.29 480.836 169.29Z" fill="#F98D3D"/>
<path d="M475.647 160.495C475.647 160.495 473.517 160.152 472.739 161.624C471.96 163.096 471.002 165.486 472.465 166.432C473.929 167.379 475.647 160.495 475.647 160.495Z" fill="#F98D3D"/>
<path d="M546.459 378.495C545.804 389.035 545.055 397.134 545.055 397.134L538.935 403.691C538.935 403.691 536.995 393.229 534.551 380.535C534.551 380.535 541.413 383.016 546.459 378.495Z" fill="white"/>
<path d="M551.209 406.611L547.907 408.469C546.706 408.912 545.714 409.037 544.501 409.524C542.655 410.26 541.356 411.704 541.292 411.965C540.36 415.905 539.046 415.652 539.046 415.652L525.779 415.785C525.154 415.458 526.213 412.67 526.722 412.152C527.976 410.867 531.727 411.513 533.086 407.48C533.861 405.21 537.669 398.135 537.669 398.135L537.695 398.112C537.822 398.041 538.529 397.897 542.363 398.727C544.343 399.151 545.167 394.969 545.167 394.969C545.642 395.092 546.09 395.31 546.485 395.612C547.172 396.124 547.686 396.849 547.952 397.683C548.428 399.116 550.374 401.188 551.774 402.531C552.62 403.345 553.272 403.901 553.272 403.901C553.272 403.901 553.856 404.641 551.209 406.611Z" fill="#407CFF"/>
<path d="M620.74 355.768L618.816 364.038C618.816 364.038 610.299 359.463 599.491 353.549C603.695 350.777 605.773 346.665 606.791 343.562C610.453 348.001 613.567 352.404 615.555 356.337L620.74 355.768Z" fill="white"/>
<path d="M631.749 358.976H631.7C631.449 358.914 630.304 358.521 629.544 356.64C629.042 355.394 628.893 354.366 628.421 353.136L626.549 349.756C624.58 347.058 623.891 347.689 623.891 347.689C623.891 347.689 623.374 348.378 622.614 349.281C621.36 350.776 619.432 352.86 618.07 353.397C617.274 353.694 616.591 354.25 616.123 354.982C615.843 355.401 615.645 355.873 615.539 356.372C615.539 356.372 619.582 357.104 619.23 359.175C618.545 363.185 618.706 363.917 618.777 364.046L618.8 364.073C618.8 364.073 625.695 367.827 627.9 368.566C631.827 369.871 633.89 372.647 635.148 373.912C635.4 374.166 635.706 374.356 636.04 374.466C636.375 374.576 636.729 374.604 637.076 374.547C638.113 374.376 639.453 374.029 639.749 373.379L631.749 358.976Z" fill="#407CFF"/>
<path d="M542.95 188.509C542.95 188.1 543.067 187.699 543.286 187.359C543.505 187.018 543.816 186.752 544.18 186.596C544.544 186.439 544.944 186.398 545.33 186.478C545.717 186.558 546.072 186.755 546.35 187.045C546.629 187.334 546.818 187.703 546.895 188.105C546.972 188.507 546.933 188.924 546.782 189.302C546.631 189.681 546.376 190.004 546.048 190.232C545.721 190.459 545.336 190.581 544.942 190.581C544.68 190.581 544.421 190.527 544.18 190.423C543.938 190.319 543.719 190.166 543.534 189.974C543.349 189.782 543.202 189.553 543.102 189.302C543.002 189.051 542.95 188.781 542.95 188.509Z" fill="#407CFF"/>
<path d="M542.95 203.874C542.95 203.464 543.067 203.064 543.286 202.723C543.505 202.382 543.816 202.117 544.18 201.96C544.544 201.803 544.944 201.762 545.33 201.842C545.717 201.922 546.072 202.119 546.35 202.409C546.629 202.699 546.818 203.068 546.895 203.47C546.972 203.871 546.933 204.288 546.782 204.666C546.631 205.045 546.376 205.368 546.048 205.596C545.721 205.824 545.336 205.945 544.942 205.945C544.68 205.945 544.421 205.891 544.18 205.787C543.938 205.683 543.719 205.531 543.534 205.338C543.349 205.146 543.202 204.918 543.102 204.666C543.002 204.415 542.95 204.146 542.95 203.874Z" fill="#407CFF"/>
<path d="M596.578 207.027C596.204 207.526 595.781 208.012 595.343 208.491C591.872 212.311 587.167 214.569 579.507 213.397C577.602 213.105 573.75 211.19 570.605 208.363C570.605 208.363 564.289 190.413 565.139 187.882C565.989 185.352 578.16 205.014 588.256 205.945C592.202 206.307 594.879 206.638 596.578 207.027Z" fill="#407CFF"/>
<path d="M522.313 193.073L519.318 219.464C518.379 220.259 517.29 220.839 516.121 221.165C508.94 223.069 503.726 218.623 500.195 212.459C503.875 212.992 512.8 213.818 514.747 209.776C517.203 204.652 522.313 193.073 522.313 193.073Z" fill="#407CFF"/>
<path d="M328.734 49.3198C328.734 49.3198 332.313 45.9634 333.186 43.6117C334.058 41.2599 333.934 37.3118 333.934 34.7459C333.794 34.6906 333.644 34.6688 333.494 34.6824C333.345 34.6959 333.201 34.7444 333.072 34.8241C332.943 34.9038 332.833 35.0128 332.75 35.1428C332.668 35.2729 332.614 35.4207 332.594 35.5752C332.328 36.7978 331.845 39.6246 330.853 40.1931C329.861 40.7616 327.638 40.6954 327.11 43.6117C326.582 46.528 328.734 49.3198 328.734 49.3198Z" fill="#F98D3D"/>
<path d="M320.552 49.896C320.552 49.896 317.298 42.9692 317.957 40.7148C318.616 38.4604 328.608 35.9879 329.937 37.0509C331.266 38.1139 329.937 51.068 329.937 51.068L320.552 49.896Z" fill="#F98D3D"/>
<path d="M425.716 258.54C425.716 258.54 425.237 264.26 427.15 266.993C429.063 269.727 430.1 272.215 430.737 270.969C431.373 269.723 429.7 265.42 430.257 265.518C430.815 265.615 432.361 270.653 433.144 272.23C433.926 273.807 435.596 276.291 436.711 275.045C437.827 273.799 435.674 262.037 434.798 260.546C433.922 259.054 432.092 255.741 432.092 255.741L425.716 258.54Z" fill="#F98D3D"/>
<path d="M356.999 86.1886L395.038 63.9365L420.599 96.8728L385.769 114.449L356.999 86.1886Z" fill="#407CFF"/>
<path d="M372.972 96.682C372.972 96.682 372.179 100.233 369.948 101.495C367.716 102.756 371.22 106.167 370.344 108.69C369.468 111.213 373.006 114.449 373.006 114.449L397.575 117.388C398.675 116.826 399.614 115.975 400.301 114.92C400.988 113.866 401.4 112.643 401.495 111.373C401.813 106.981 402.191 101.495 402.191 101.495L391.458 92.9791L376.001 93.7579L372.972 96.682Z" fill="#C94C43"/>
<path d="M290.422 54.0739C289.67 52.1839 289.026 50.2493 288.494 48.2801C288.13 46.9481 287.888 45.5831 287.772 44.2035C287.722 43.5741 287.761 42.9406 287.888 42.3229C287.888 42.3229 319.559 35.5168 322.666 34.2008C325.773 32.8847 353.015 23.3959 353.015 23.3959C353.705 24.9141 354.305 26.4744 354.812 28.0683C355.13 29.069 355.441 30.1787 355.688 31.3156C356.141 33.4182 356.381 35.6492 356.063 37.5843C356.063 37.5843 323.972 41.5481 320.648 43.2067C317.324 44.8654 290.422 54.0739 290.422 54.0739Z" fill="#EFCBAB"/>
<path d="M288.494 48.2801C288.13 46.9481 287.888 45.5831 287.772 44.2035C287.722 43.5741 287.761 42.9406 287.888 42.3229C287.888 42.3229 319.559 35.5168 322.666 34.2008C325.773 32.8847 353.015 23.3959 353.015 23.3959C353.705 24.9141 354.305 26.4744 354.812 28.0683C355.13 29.069 355.441 30.1787 355.688 31.3156C346.651 32.4837 322.142 35.7115 319.094 37.23C316.137 38.694 296.573 45.4962 288.494 48.2801Z" fill="#DDB08E"/>
<path d="M328.042 32.2033C328.042 32.2033 319.589 33.056 316.526 35.8789L318.316 44.1723C318.316 44.1723 326.084 43.3508 329.985 41.2132L328.042 32.2033Z" fill="#1F3B7A"/>
<path d="M335.72 415.785C335.72 415.785 335.72 410.493 336.446 408.733C337.172 406.973 339.815 399.813 339.815 399.813H350.237C350.237 399.813 352.169 406.347 352.289 408.484C352.409 410.622 352.289 415.785 352.289 415.785H335.72Z" fill="#407CFF"/>
<path d="M401.686 415.785C401.686 415.785 401.686 410.493 400.96 408.733C400.234 406.973 397.591 399.813 397.591 399.813H387.202C387.202 399.813 385.267 406.347 385.147 408.484C385.027 410.622 385.147 415.785 385.147 415.785H401.686Z" fill="#407CFF"/>
<path d="M375.695 117.996C375.695 117.996 373.61 129.579 371.405 134.567L358.849 140.98L376.444 177.113L400.571 154.456L392.541 138.196C392.541 138.196 391.793 122.096 394.241 116.578C396.689 111.061 375.695 117.996 375.695 117.996Z" fill="#F98D3D"/>
<path d="M375.397 119.592C375.397 119.592 377.524 128.582 383.907 129.412C390.29 130.241 392.847 122.999 392.847 122.999L375.397 119.592Z" fill="#ED701B"/>
<path d="M383.664 126.036C379.067 125.214 371.534 117.47 372.702 109.574L374.526 97.2465C374.952 94.3613 377.236 92.3093 379.598 92.687L397.193 95.5021C399.559 95.8915 401.143 98.5469 400.716 101.432L398.998 113.066C397.751 121.352 388.931 126.99 383.664 126.036Z" fill="#F98D3D"/>
<path d="M337.022 232.585C336.988 231.145 338.83 289.896 336.123 323.253C333.447 356.197 336.123 402.032 336.123 402.032C336.123 402.032 344.816 407.02 354.239 402.032C354.239 402.032 364.571 338.399 364.507 323.253C364.436 307.125 375.738 235.101 375.738 235.101L337.022 232.585Z" fill="#1F3B7A"/>
<path d="M401.308 402.032C401.308 402.032 392.619 407.02 383.196 402.032C383.196 402.032 372.864 338.399 372.927 323.252C372.957 316.442 370.958 299.657 368.633 282.544C365.455 259.132 361.678 235.101 361.678 235.101L401.933 232.488C401.933 232.488 398.612 290.316 401.33 323.252C404.048 356.189 401.308 402.032 401.308 402.032Z" fill="#1F3B7A"/>
<path d="M379.891 110.411C378.176 110.134 374.803 109.188 374.65 105.992C374.611 105.561 374.667 105.126 374.814 104.721C374.962 104.316 375.196 103.952 375.5 103.655C375.867 103.34 376.298 103.113 376.76 102.991C377.222 102.869 377.705 102.856 378.173 102.951L383.451 103.792C384.454 103.955 385.109 104.364 385.401 105.018C385.892 106.116 385.181 107.534 384.851 108.09C383.728 109.998 382.459 110.773 380.853 110.52C380.793 110.516 380.422 110.493 379.891 110.411ZM378.131 103.309C377.714 103.223 377.284 103.235 376.871 103.342C376.458 103.449 376.073 103.649 375.743 103.928C375.476 104.188 375.271 104.507 375.141 104.862C375.011 105.217 374.961 105.598 374.994 105.976C375.069 107.615 376.069 108.815 377.967 109.543C378.902 109.889 379.88 110.095 380.872 110.154H380.89C382.347 110.384 383.511 109.667 384.548 107.896C384.784 107.506 385.51 106.132 385.079 105.17C384.84 104.637 384.271 104.294 383.391 104.154L378.131 103.309Z" fill="#132644"/>
<path d="M392.062 112.358C391.53 112.272 391.171 112.175 391.104 112.159C389.501 111.898 388.509 110.761 387.993 108.593C387.839 107.954 387.57 106.385 388.367 105.478C388.835 104.948 389.58 104.757 390.583 104.921L395.858 105.762C396.333 105.818 396.789 105.984 397.195 106.245C397.601 106.507 397.946 106.859 398.205 107.276C398.409 107.654 398.527 108.074 398.55 108.506C398.574 108.938 398.502 109.37 398.34 109.768C397.269 112.786 393.777 112.63 392.062 112.358ZM390.516 105.291C389.636 105.151 388.996 105.291 388.614 105.735C387.925 106.513 388.24 108.071 388.33 108.503C388.813 110.52 389.715 111.567 391.167 111.797H391.19C392.152 112.051 393.144 112.161 394.136 112.124C396.158 112.023 397.457 111.19 397.999 109.652C398.143 109.303 398.208 108.925 398.189 108.546C398.17 108.168 398.068 107.799 397.891 107.467C397.657 107.098 397.348 106.787 396.986 106.556C396.623 106.326 396.217 106.181 395.794 106.132L390.516 105.291Z" fill="#132644"/>
<path d="M384.751 106.595C384.711 106.589 384.674 106.571 384.644 106.543C384.614 106.516 384.593 106.48 384.582 106.439C384.574 106.412 384.571 106.383 384.574 106.355C384.577 106.326 384.586 106.299 384.599 106.274C384.612 106.249 384.63 106.227 384.652 106.209C384.673 106.191 384.698 106.178 384.724 106.171C384.818 106.143 387.03 105.509 388.715 106.813C388.737 106.83 388.756 106.852 388.77 106.877C388.784 106.902 388.794 106.929 388.798 106.958C388.801 106.987 388.8 107.016 388.793 107.044C388.786 107.072 388.773 107.098 388.756 107.121C388.74 107.144 388.719 107.163 388.696 107.178C388.672 107.193 388.646 107.202 388.619 107.206C388.592 107.21 388.564 107.208 388.537 107.201C388.511 107.194 388.486 107.181 388.464 107.164C386.941 105.995 384.863 106.583 384.84 106.591C384.811 106.6 384.78 106.602 384.751 106.595Z" fill="#132644"/>
<path d="M380.104 140.956L368.207 135.599C368.207 135.599 362.06 186.45 370.266 189.596C370.266 189.596 393.686 146.341 392.091 140.789L380.104 140.956Z" fill="white"/>
<path d="M372.579 132.375C372.579 132.375 369.21 132.974 367.477 134.711C367.477 134.711 370.026 143.328 376.798 145.897L379.703 140.953C379.703 140.953 374.196 138.239 372.579 132.375Z" fill="#D2E3FC"/>
<path d="M379.703 140.956C379.703 140.956 390.78 140.513 392.431 134.96C393.861 136.717 394.621 138.959 394.565 141.26C394.565 141.26 391.057 146.766 382.294 146.828L379.703 140.956Z" fill="#D2E3FC"/>
<path d="M380.628 117.388C380.628 117.388 386.52 117.661 389.122 118.751C389.122 118.751 387.325 120.966 384.971 120.589C382.616 120.211 380.972 119.035 380.628 117.388Z" fill="#FFF0E6"/>
<path d="M338.894 99.3451C333.548 102.849 326.248 107.596 320.288 111.349C320.018 110.422 319.807 109.478 319.655 108.522C317.667 95.4009 320.55 49.896 320.55 49.896C321.821 49.2594 323.185 48.8475 324.586 48.6773C328.464 48.3502 329.924 51.0563 329.924 51.0563C329.924 51.0563 336.681 91.0867 338.894 99.3451Z" fill="#F98D3D"/>
<path d="M433.562 257.621L429.53 259.366C423.08 261.752 416.124 258.532 414.017 251.757C411.175 242.631 410.883 232.799 409.831 224.708C409.315 220.729 408.708 212.525 406.398 206.136L410.449 347.599C349.746 352.073 320.127 315.78 320.127 315.78C318.562 277.483 333.274 191.184 338.635 161.281C336.048 155.207 317.671 137.767 314.616 120.643C313.19 112.692 317.656 107.066 323.08 103.27C329.905 98.4846 338.246 96.5962 338.246 96.5962L357.862 123.875C358.488 124.556 359.041 125.307 359.51 126.114C361.007 129.322 368.869 134.641 368.869 134.641C368.846 134.808 369.715 180.629 371.317 182.093C373.627 181.181 389.107 148.946 392.528 138.204C397.946 139.762 403.246 141.732 408.386 144.099C408.386 144.099 419.011 149.997 420.516 175.703C421.792 197.507 434.599 225.331 437.504 250.613C437.67 252.068 437.375 253.54 436.663 254.805C435.952 256.07 434.863 257.059 433.562 257.621Z" fill="#407CFF"/>
<path d="M366.684 133.052C366.684 133.052 368.117 177.483 369.948 188.603L397.19 139.644L393.447 138.196L371.902 178.775L369.78 134.633L366.684 133.052Z" fill="#1F3B7A"/>
<path d="M372.579 131.324C372.579 131.324 369.21 131.923 367.477 133.66C367.477 133.66 370.026 142.277 376.798 144.846L379.703 140.953C379.703 140.953 374.196 137.191 372.579 131.324Z" fill="white"/>
<path d="M379.703 140.956C379.703 140.956 390.78 139.465 392.431 133.913C393.862 135.668 394.621 137.909 394.565 140.209C394.565 140.209 391.057 145.714 382.294 145.781L379.703 140.956Z" fill="white"/>
<path d="M365.462 195.444C366.575 195.444 367.476 194.506 367.476 193.349C367.476 192.192 366.575 191.254 365.462 191.254C364.35 191.254 363.448 192.192 363.448 193.349C363.448 194.506 364.35 195.444 365.462 195.444Z" fill="#407CFF"/>
<path d="M359.667 212.194C359.667 211.78 359.785 211.375 360.007 211.03C360.228 210.685 360.543 210.417 360.911 210.259C361.279 210.1 361.685 210.059 362.075 210.14C362.466 210.221 362.825 210.421 363.107 210.714C363.388 211.008 363.58 211.381 363.657 211.788C363.734 212.195 363.694 212.616 363.541 212.999C363.388 213.381 363.129 213.708 362.797 213.938C362.466 214.168 362.076 214.29 361.677 214.289C361.144 214.288 360.632 214.067 360.256 213.674C359.879 213.281 359.667 212.749 359.667 212.194Z" fill="#407CFF"/>
<path d="M359.75 107.043L360.42 106.381C353.682 98.9829 356.812 89.1554 357.65 86.9127C357.702 86.7732 357.714 86.6211 357.684 86.4748C357.655 86.3284 357.586 86.1939 357.485 86.0872C357.437 86.0371 357.377 86.0005 357.312 85.9806C357.246 85.9607 357.177 85.9581 357.111 85.9732C357.044 85.9883 356.982 86.0206 356.93 86.067C356.879 86.1135 356.839 86.1726 356.815 86.2391C355.872 88.8556 352.72 99.345 359.75 107.043Z" fill="#EFCBAB"/>
<path d="M360.421 106.385L361.503 107.031L360.327 108.149L359.751 107.043L360.421 106.385Z" fill="#D8A987"/>
<path d="M361.503 107.031C361.503 107.031 362.757 108.363 363.311 108.121C363.311 108.121 362.615 109.453 361.892 109.48C361.892 109.48 360.668 108.799 360.327 108.149L361.503 107.031Z" fill="#EFCBAB"/>
<path d="M373.591 99.3453C373.591 99.3453 378.308 99.6763 379.704 97.1921C379.704 97.1921 383.538 98.185 385.226 96.6938C385.226 96.6938 391.141 97.9358 391.298 95.4517C391.298 95.4517 395.817 104.855 400.769 102.889C405.722 100.922 392.848 91.3906 392.848 91.3906L376.002 93.7268L373.591 99.3453Z" fill="#C94C43"/>
<path d="M373.938 92.3132L372.972 96.6818C372.972 96.6818 386.131 91.8226 402.191 101.494L402.003 94.4586C401.985 93.7792 401.828 93.1117 401.542 92.5007C401.256 91.8896 400.848 91.3491 400.345 90.9154C397.44 88.4273 390.492 83.5408 377.629 87.4111C375.824 87.9757 374.357 90.4131 373.938 92.3132Z" fill="#407CFF"/>
<path d="M316.437 38.4409C316.388 38.1723 315.523 36.2878 316.71 34.5473C317.897 32.8068 325.695 30.1241 326.417 31.5375C327.14 32.9509 326.683 37.8569 324.171 38.9354C321.659 40.0139 316.627 39.5311 316.437 38.4409Z" fill="#F98D3D"/>
<path d="M338.632 161.273C336.045 155.199 317.668 137.76 314.613 120.636C313.187 112.685 317.653 107.058 323.077 103.262C323.077 103.262 320.536 115.286 327.746 126.137C334.956 136.989 338.632 161.273 338.632 161.273Z" fill="#407CFF"/>
<path d="M429.531 259.374C423.081 261.76 416.125 258.54 414.018 251.765C411.176 242.639 410.884 232.807 409.832 224.716C409.316 220.737 408.709 212.533 406.399 206.144C406.617 206.494 413.602 217.98 419.876 236.569C426.252 255.445 424.26 258.205 429.531 259.374Z" fill="#407CFF"/>
<path d="M194.487 307.509C196.916 303.549 176.446 259.765 187.434 235.387C188.804 232.35 214.317 236.886 214.317 236.886C214.317 236.886 219.535 298.456 216.604 314.759C214.534 326.269 210.476 360.237 208.278 379.183L208.256 379.366C207.735 383.871 207.316 387.512 207.058 389.774C206.859 391.484 207.053 393.218 207.623 394.836C209.252 399.469 212.782 409.063 214.549 410.383C214.549 410.383 204.894 413.256 203.041 412.127C201.188 410.998 196.475 393.305 196.475 393.305C197.293 391.658 197.584 389.783 197.306 387.952C196.931 385.541 196.385 381.765 195.76 377.112C187.434 342.061 188.688 316.967 194.487 307.509Z" fill="#F98D3D"/>
<path d="M139.957 386.079C141.285 384.843 142.196 383.195 142.555 381.379C143.034 378.989 143.797 375.251 144.801 370.668C148.919 334.846 158.615 311.819 167.262 305.103C170.879 302.292 166.607 253.804 185.168 235.018C187.482 232.681 209.809 246.309 209.809 246.309C209.809 246.309 193.767 305.819 185.494 319.984C179.646 329.991 164.309 360.276 155.815 377.194C153.752 381.286 152.097 384.591 151.071 386.651C150.307 388.178 149.9 389.871 149.881 391.592C149.828 396.525 149.192 409.74 151.064 410.893C152.137 411.553 153.14 412.329 154.059 413.206C154.059 413.206 145.254 412.427 144.179 412.357C143.105 412.287 136.366 390.327 136.235 389.906C137.591 388.396 138.961 387.009 139.957 386.079Z" fill="#F98D3D"/>
<path d="M131.866 398.005L129.653 411.477L130.825 412.38L137.755 401.976L131.866 398.005Z" fill="#407CFF"/>
<path d="M132.106 399.033C139.668 403.156 140.784 416.905 141.989 419.864L155.803 419.907C157.888 419.175 157.069 416.103 154.062 413.225C154.062 413.225 145.257 412.446 144.183 412.376C143.109 412.306 136.37 390.346 136.239 389.926C133.064 393.508 129.991 397.88 132.106 399.033Z" fill="#0582C1"/>
<path d="M144.184 353.47C144.794 370.672 177.696 367.366 177.696 367.366L182.047 345.488L184.929 330.964L185.891 326.152L184.446 325.439L163.516 315.106L156.961 311.866L156.695 312.727L145.408 349.482L144.184 353.47Z" fill="#1F3B7A"/>
<path d="M145.403 349.498C154.908 339.332 182.046 345.488 182.046 345.488L184.928 330.964L184.446 325.439L163.515 315.106L156.694 312.727L145.407 349.482L145.403 349.498Z" fill="#1F3B7A"/>
<path d="M193.974 407.019L195.778 419.86H197.773L198.713 409.908L193.974 407.019Z" fill="#407CFF"/>
<path d="M193.974 407.023C198.171 409.036 202.764 417.535 204.894 419.872L222.325 420C224.511 418.143 216.885 412.139 214.549 410.379C214.549 410.379 204.895 413.252 203.041 412.123C201.188 410.994 196.475 393.301 196.475 393.301C194.409 397.444 190.886 405.535 193.974 407.023Z" fill="#0582C1"/>
<path d="M185.891 319.809L190.218 369.215C198.26 379.818 219.501 373.304 219.501 373.304C219.501 373.304 221.114 332.491 221.938 330.863L218.861 329.921L185.891 319.809Z" fill="#1F3B7A"/>
<path d="M185.891 319.809L190.218 369.215C190.443 344.9 220.68 347.345 220.68 347.345L218.861 329.94L185.891 319.809Z" fill="#1F3B7A"/>
<path d="M222.929 87.733L178.568 69.4446L153.755 94.3327L195.923 111.437L222.929 87.733Z" fill="#407CFF"/>
<path d="M202.153 96.1549C202.153 96.1549 202.246 101.653 206.128 103.366C214.162 106.909 206.503 111.017 214.394 116.811C216.206 118.146 217.516 126.436 204.968 127.67C192.419 128.904 190.862 130.006 190.862 130.006C190.862 130.006 181.548 136.217 171.23 129.831C165.241 126.132 172.784 115.814 170.04 113.197C166.345 109.67 165.855 98.0939 171.23 93.3165C176.606 88.539 185.205 85.7628 185.205 85.7628L202.153 96.1549Z" fill="#132644"/>
<path d="M237.358 108.112L237.687 106.944C225.82 103.284 223.274 90.4622 222.836 87.4758C222.807 87.2911 222.726 87.1192 222.605 86.981C222.483 86.8428 222.326 86.7442 222.151 86.6971C222.068 86.6736 221.981 86.6723 221.897 86.6932C221.813 86.7141 221.736 86.7566 221.672 86.8167C221.609 86.8768 221.56 86.9526 221.532 87.0372C221.504 87.1218 221.497 87.2124 221.511 87.3006C222.061 90.7621 224.978 104.296 237.358 108.112Z" fill="#EFCBAB"/>
<path d="M237.688 106.952H239.268L238.661 108.945L237.358 108.112L237.688 106.952Z" fill="#D8A987"/>
<path d="M239.268 106.952C239.268 106.952 241.45 107.583 241.911 106.952C241.911 106.952 241.959 108.868 241.184 109.374C241.184 109.374 239.432 109.436 238.661 108.945L239.268 106.952Z" fill="#EFCBAB"/>
<path d="M204.89 131.077C204.01 130.96 201.345 128.741 200.139 125.361C198.687 121.288 197.436 116.857 197.436 116.857L193.584 117.515L183.282 119.263L182.439 119.408C183.196 121.481 183.821 123.604 184.311 125.762C185.015 128.635 185.34 131.594 185.277 134.558C185.172 136.839 184.023 137.447 183.405 137.902C183.117 138.093 194.262 176.126 199.653 174.234C204.317 172.591 205.324 130.948 204.89 131.077Z" fill="#F98D3D"/>
<path d="M185.27 134.558C191.454 131.957 197.422 116.857 197.422 116.857C196.103 116.733 194.776 116.959 193.566 117.515C190.151 118.937 186.677 122.34 184.308 125.762C185.01 128.635 185.334 131.594 185.27 134.558Z" fill="#ED701B"/>
<path d="M181.306 128.414C181.306 128.414 199.698 125.299 197.665 113.431C195.633 101.563 196.636 93.1413 184.806 94.6209C172.976 96.1005 171.479 101.053 171.228 105.192C170.977 109.331 176.48 128.916 181.306 128.414Z" fill="#F98D3D"/>
<path d="M179.68 139.452C179.68 139.452 148.645 129.718 146.44 127.039C144.235 124.36 138.867 88.4728 138.863 83.3098L134.348 83.9834C134.348 83.9834 131.002 124.765 134.884 134.032C138.766 143.299 177.898 157.861 177.898 157.861L179.68 139.452Z" fill="#F98D3D"/>
<path d="M203.939 130.606C203.939 130.606 200.128 142.964 185.221 135.188L200.891 171.041L204.983 138.985L203.939 130.606Z" fill="white"/>
<path d="M216.622 134.258C216.622 134.258 214.75 140.686 250.689 161.062L277.198 142.182L280.38 144.954C280.38 144.954 254.964 176.815 250.996 176.138C247.028 175.46 219.741 156.767 219.741 156.767L216.622 134.258Z" fill="#F98D3D"/>
<path d="M118.925 293.605C119.812 296.287 120.881 298.901 122.122 301.427C125.948 309.382 133.458 321.553 146.021 328.854C160.269 337.144 206.432 352.994 238.137 345.312C238.137 345.312 235.142 240.963 228.474 198.043C228.32 197.047 228.164 196.086 228.006 195.162C229.938 202.868 239.859 205.402 243.928 203.981C252.86 200.866 255.967 193.632 256.39 185.989C257.046 174.222 251.333 161.459 250.678 161.07C236.029 152.418 233.311 138.685 226.194 133.783C219.83 129.403 204.68 130.551 203.939 130.629L200.618 164.92L185.206 135.212C185.183 135.212 160.333 132.957 146.437 127.035C146.437 127.035 104.882 186.845 156.342 186.059C156.342 199.835 150.154 212.353 144.183 230.972C138.253 249.436 118.925 293.605 118.925 293.605Z" fill="#407CFF"/>
<path d="M185.314 119.754C185.314 119.754 185.109 121.701 183.937 122.172C182.765 122.643 179.635 123.554 179.313 123.34C178.766 122.82 178.255 122.26 177.782 121.666C177.782 121.666 182.694 119.594 185.314 119.754Z" fill="white"/>
<path d="M138.969 83.3332C138.969 83.3332 140.871 81.9588 139.867 78.1819C139.197 75.655 139.65 73.603 139.119 73.6653C138.587 73.7276 138.145 77.01 137.823 77.8198C137.554 78.5012 133.425 70.3791 132.365 71.0138C131.306 71.6484 129.25 74.8607 134.185 85.9653L138.969 83.3332Z" fill="#F98D3D"/>
<path d="M277.187 142.182C277.187 142.182 280.009 135.22 280.949 133.783C282.821 130.945 288.114 129.165 288.459 130.423C288.803 131.68 285.056 133.538 284.895 136.427C284.85 137.233 286.433 135.671 287.41 135.064C287.998 134.702 288.35 135.002 288.043 135.453C286.486 137.813 285.636 140.235 284.146 141.126C282.656 142.018 280.369 144.938 280.369 144.938L277.187 142.182Z" fill="#F98D3D"/>
<path d="M203.939 130.621L200.619 164.913L185.266 134.562L179.681 134.581L202.266 177.322L208.061 130.438L203.939 130.621Z" fill="#1F3B7A"/>
<path d="M173.723 95.0568C173.723 95.0568 168.329 101.676 185.329 104.892C190.787 105.932 193.527 111.418 192.037 116.051C189.832 122.924 195.406 130.321 203.612 127.658C210.145 125.536 199.494 93.803 193.711 93.3241C187.927 92.8452 173.723 95.0568 173.723 95.0568Z" fill="#132644"/>
<path d="M179.68 96.5753C179.68 96.5753 174.226 100.652 173.761 103.915C173.297 107.178 172.024 111.846 169.939 108.548C167.854 105.25 167.506 100.796 169.939 97.7823C172.373 94.7686 177.801 93.4136 178.976 94.4532C180.152 95.4928 179.68 96.5753 179.68 96.5753Z" fill="#132644"/>
<path d="M170.04 94.6831C170.04 94.6831 180.466 85.3384 202.61 99.0907L202.905 93.4138C202.052 90.038 201.033 90.0653 198.039 88.4222C194.699 86.5688 189.541 84.7544 182.192 84.8167C177.138 84.8595 174.192 84.1859 171.897 88.8621L170.04 94.6831Z" fill="#407CFF"/>
<path d="M308.035 159.898C309.352 158.381 310.579 156.783 311.711 155.112C312.484 153.985 313.151 152.783 313.702 151.522C313.953 150.946 314.121 150.335 314.2 149.708C314.2 149.708 286.542 132.276 284.034 129.959C281.526 127.643 258.907 109.218 258.907 109.218C257.771 110.406 256.704 111.665 255.714 112.987C255.092 113.82 254.445 114.755 253.842 115.74C252.719 117.566 251.798 119.583 251.461 121.514C251.461 121.514 280.433 136.411 283.031 139.129C285.629 141.847 308.035 159.898 308.035 159.898Z" fill="#EFCBAB"/>
<path d="M311.711 155.112C312.484 153.985 313.151 152.783 313.702 151.522C313.953 150.946 314.121 150.335 314.2 149.708C314.2 149.708 286.542 132.276 284.034 129.959C281.526 127.643 258.907 109.218 258.907 109.218C257.771 110.406 256.704 111.665 255.714 112.987C255.092 113.82 254.445 114.755 253.842 115.74C261.988 119.968 284.045 131.552 286.411 134.04C288.747 136.466 304.995 149.685 311.711 155.112Z" fill="#DDB08E"/>
<path d="M279.608 126.206C279.608 126.206 287.301 129.948 289.281 133.674L284.927 140.865C284.927 140.865 277.889 137.392 274.895 134.02L279.608 126.206Z" fill="#1F3B7A"/>
<path d="M284.146 141.142C285.335 140.61 286.396 139.813 287.254 138.806C288.418 137.295 289.998 134.85 288.043 135.469C286.089 136.088 282.611 138.634 281.305 138.872C279.998 139.109 280.466 140.169 280.376 140.468C280.287 140.768 284.146 141.142 284.146 141.142Z" fill="#F98D3D"/>
<path d="M118.925 293.605C119.812 296.287 120.881 298.901 122.122 301.427C130.451 292.265 142.06 277.676 150.15 260.12C164.107 229.839 156.342 186.059 156.342 186.059C156.342 199.835 150.154 212.353 144.183 230.972C138.253 249.435 118.925 293.605 118.925 293.605Z" fill="#407CFF"/>
<path d="M204.968 189.692C204.968 189.406 204.887 189.127 204.734 188.889C204.581 188.652 204.365 188.466 204.111 188.357C203.857 188.248 203.578 188.219 203.308 188.275C203.039 188.331 202.791 188.468 202.597 188.67C202.403 188.872 202.271 189.13 202.217 189.41C202.164 189.69 202.191 189.98 202.296 190.244C202.401 190.508 202.579 190.734 202.808 190.893C203.036 191.051 203.305 191.136 203.579 191.136C203.948 191.136 204.301 190.984 204.561 190.713C204.822 190.442 204.968 190.075 204.968 189.692Z" fill="#407CFF"/>
<path d="M204.968 215.946C204.968 215.661 204.887 215.381 204.734 215.144C204.581 214.906 204.365 214.721 204.111 214.612C203.857 214.502 203.578 214.474 203.308 214.53C203.039 214.585 202.791 214.723 202.597 214.925C202.403 215.127 202.271 215.384 202.217 215.665C202.164 215.945 202.191 216.235 202.296 216.499C202.401 216.763 202.579 216.989 202.808 217.147C203.036 217.306 203.305 217.391 203.579 217.391C203.948 217.391 204.301 217.239 204.561 216.968C204.822 216.697 204.968 216.33 204.968 215.946Z" fill="#407CFF"/>
<path d="M228.474 198.043C228.319 197.047 228.163 196.086 228.006 195.162C229.938 202.868 239.859 205.402 243.928 203.981C252.86 200.866 255.967 193.632 256.39 185.989C255.428 186.511 240.929 194.216 234.187 189.692C227.317 185.078 223.065 174.635 222.934 174.312L228.474 198.043Z" fill="#407CFF"/>
</svg>
