<svg width="715" height="420" viewBox="0 0 715 420" fill="none" xmlns="http://www.w3.org/2000/svg">
<mask id="mask0_97_70" style="mask-type:luminance" maskUnits="userSpaceOnUse" x="0" y="0" width="715" height="420">
<path d="M715 0H0V420H715V0Z" fill="white"/>
</mask>
<g mask="url(#mask0_97_70)">
<path d="M364.702 419.709C535.275 419.709 673.552 412.321 673.552 403.209C673.552 394.096 535.275 386.709 364.702 386.709C194.128 386.709 55.8521 394.096 55.8521 403.209C55.8521 412.321 194.128 419.709 364.702 419.709Z" fill="black" fill-opacity="0.2"/>
<path d="M408.234 403.209H321.166L335.9 297.287H393.5L408.234 403.209Z" fill="#407BFF"/>
<path opacity="0.6" d="M408.234 403.209H321.166L331.249 330.738L335.916 297.287H393.484L400.366 346.641L408.234 403.209Z" fill="white"/>
<path opacity="0.1" d="M400.367 346.64L331.25 330.738L335.917 297.287H393.485L400.367 346.64Z" fill="black"/>
<path d="M569.98 36.1038H159.423C158.043 36.1038 156.677 36.3524 155.402 36.8359C154.128 37.3194 152.97 38.0282 151.994 38.9222C151.019 39.8151 150.247 40.8762 149.72 42.0431C149.193 43.21 148.924 44.4604 148.926 45.7236V300.042C148.926 302.589 150.032 305.032 152 306.833C153.969 308.635 156.639 309.647 159.423 309.647H569.98C572.764 309.647 575.434 308.635 577.403 306.833C579.371 305.032 580.478 302.589 580.478 300.042V45.7522C580.484 44.4869 580.217 43.2332 579.692 42.0632C579.167 40.8931 578.395 39.8288 577.419 38.9317C576.444 38.0356 575.285 37.3236 574.008 36.8391C572.732 36.3535 571.363 36.1038 569.98 36.1038Z" fill="#407BFF"/>
<path opacity="0.7" d="M569.98 36.1038H159.423C158.043 36.1038 156.677 36.3524 155.402 36.8359C154.128 37.3194 152.97 38.0282 151.994 38.9222C151.019 39.8151 150.247 40.8762 149.72 42.0431C149.193 43.21 148.924 44.4604 148.926 45.7236V300.042C148.926 302.589 150.032 305.032 152 306.833C153.969 308.635 156.639 309.647 159.423 309.647H569.98C572.764 309.647 575.434 308.635 577.403 306.833C579.371 305.032 580.478 302.589 580.478 300.042V45.7522C580.484 44.4869 580.217 43.2332 579.692 42.0632C579.167 40.8931 578.395 39.8288 577.419 38.9317C576.444 38.0356 575.285 37.3236 574.008 36.8391C572.732 36.3535 571.363 36.1038 569.98 36.1038Z" fill="white"/>
<path d="M566.666 45.5195H162.751V290.757H566.666V45.5195Z" fill="#407BFF"/>
<path d="M437.816 395.25H291.57C290.655 395.25 289.914 395.93 289.914 396.766V401.562C289.914 402.399 290.655 403.078 291.57 403.078H437.816C438.731 403.078 439.472 402.399 439.472 401.562V396.766C439.472 395.93 438.731 395.25 437.816 395.25Z" fill="#407BFF"/>
<path opacity="0.7" d="M437.816 395.25H291.57C290.655 395.25 289.914 395.93 289.914 396.766V401.562C289.914 402.399 290.655 403.078 291.57 403.078H437.816C438.731 403.078 439.472 402.399 439.472 401.562V396.766C439.472 395.93 438.731 395.25 437.816 395.25Z" fill="white"/>
<path opacity="0.2" d="M566.666 45.7522H162.751V82.3081H566.666V45.7522Z" fill="black"/>
<path opacity="0.4" d="M335.838 82.7461H162.751V290.757H335.838V82.7461Z" fill="white"/>
<path d="M504.494 135.802V139.446H500.512" stroke="white" stroke-miterlimit="10"/>
<path d="M492.103 139.446H361.644" stroke="white" stroke-miterlimit="10" stroke-dasharray="5.28 5.28"/>
<path d="M357.437 139.446H353.455V135.802" stroke="white" stroke-miterlimit="10"/>
<path d="M353.455 129.199V66.4794" stroke="white" stroke-miterlimit="10" stroke-dasharray="4.53 4.53"/>
<path d="M353.455 63.1848V59.5413H357.437" stroke="white" stroke-miterlimit="10"/>
<path d="M365.847 59.5414H496.307" stroke="white" stroke-miterlimit="10" stroke-dasharray="5.28 5.28"/>
<path d="M500.512 59.5414H504.494V63.1849" stroke="white" stroke-miterlimit="10"/>
<path d="M504.495 69.7876V132.507" stroke="white" stroke-miterlimit="10" stroke-dasharray="4.53 4.53"/>
<path d="M507.028 57.2234H501.978V61.8444H507.028V57.2234Z" fill="#407BFF" stroke="white" stroke-miterlimit="10"/>
<path d="M507.028 137.143H501.978V141.763H507.028V137.143Z" fill="#407BFF" stroke="white" stroke-miterlimit="10"/>
<path d="M355.971 57.2234H350.922V61.8444H355.971V57.2234Z" fill="#407BFF" stroke="white" stroke-miterlimit="10"/>
<path d="M355.971 137.143H350.922V141.763H355.971V137.143Z" fill="#407BFF" stroke="white" stroke-miterlimit="10"/>
<path d="M431.508 57.2234H426.458V61.8444H431.508V57.2234Z" fill="#407BFF" stroke="white" stroke-miterlimit="10"/>
<path d="M431.508 137.143H426.458V141.763H431.508V137.143Z" fill="#407BFF" stroke="white" stroke-miterlimit="10"/>
<path d="M507.028 97.1763H501.978V101.796H507.028V97.1763Z" fill="#407BFF" stroke="white" stroke-miterlimit="10"/>
<path d="M355.971 97.1763H350.922V101.796H355.971V97.1763Z" fill="#407BFF" stroke="white" stroke-miterlimit="10"/>
<path opacity="0.7" d="M490.78 86.3748H453.809C452.146 86.3748 450.798 87.6083 450.798 89.1296V98.1813C450.798 99.7026 452.146 100.936 453.809 100.936H490.78C492.443 100.936 493.791 99.7026 493.791 98.1813V89.1296C493.791 87.6083 492.443 86.3748 490.78 86.3748Z" fill="white"/>
<path opacity="0.7" d="M427.063 86.3748H390.092C388.429 86.3748 387.081 87.6083 387.081 89.1296V98.1813C387.081 99.7026 388.429 100.936 390.092 100.936H427.063C428.727 100.936 430.075 99.7026 430.075 98.1813V89.1296C430.075 87.6083 428.727 86.3748 427.063 86.3748Z" fill="white"/>
<path opacity="0.7" d="M345.045 263.602H308.074C306.41 263.602 305.062 264.836 305.062 266.357V275.409C305.062 276.93 306.41 278.163 308.074 278.163H345.045C346.708 278.163 348.056 276.93 348.056 275.409V266.357C348.056 264.836 346.708 263.602 345.045 263.602Z" fill="white"/>
<path d="M540.001 58.7543H553.446" stroke="white" stroke-width="1.5" stroke-linecap="round" stroke-linejoin="round"/>
<path d="M540.001 64.5845H553.446" stroke="white" stroke-width="1.5" stroke-linecap="round" stroke-linejoin="round"/>
<path d="M540.001 70.4149H553.446" stroke="white" stroke-width="1.5" stroke-linecap="round" stroke-linejoin="round"/>
<path opacity="0.5" d="M325.611 114.988H190.133V238.954H325.611V114.988Z" fill="white"/>
<path d="M246.841 125.118V232.06" stroke="#407BFF" stroke-miterlimit="10"/>
<path d="M305.269 232.06C289.769 232.06 274.904 226.426 263.944 216.397C252.983 206.368 246.825 192.765 246.825 178.581C246.825 164.402 252.982 150.803 263.939 140.777C274.896 130.751 289.758 125.118 305.254 125.118" stroke="#407BFF" stroke-miterlimit="10"/>
<path d="M307.803 122.814H302.752V127.436H307.803V122.814Z" fill="white" stroke="#407BFF" stroke-miterlimit="10"/>
<path d="M307.803 229.743H302.752V234.363H307.803V229.743Z" fill="white" stroke="#407BFF" stroke-miterlimit="10"/>
<path d="M249.373 176.278H244.323V180.899H249.373V176.278Z" fill="white" stroke="#407BFF" stroke-miterlimit="10"/>
<path d="M248.148 125.117C248.148 125.354 248.072 125.585 247.927 125.782C247.784 125.978 247.579 126.131 247.342 126.222C247.102 126.312 246.84 126.336 246.586 126.29C246.333 126.244 246.101 126.13 245.917 125.963C245.735 125.795 245.611 125.583 245.56 125.351C245.51 125.118 245.536 124.878 245.634 124.66C245.734 124.441 245.901 124.255 246.116 124.124C246.331 123.993 246.583 123.922 246.841 123.922C247.187 123.926 247.516 124.053 247.761 124.276C248.005 124.499 248.143 124.802 248.148 125.117Z" fill="white" stroke="#407BFF" stroke-miterlimit="10"/>
<path d="M248.148 232.06C248.148 232.296 248.072 232.526 247.928 232.722C247.786 232.919 247.583 233.072 247.345 233.163C247.107 233.254 246.845 233.279 246.592 233.233C246.339 233.189 246.107 233.076 245.923 232.91C245.741 232.744 245.615 232.533 245.563 232.302C245.51 232.072 245.534 231.831 245.63 231.612C245.727 231.394 245.892 231.206 246.104 231.074C246.317 230.941 246.568 230.868 246.825 230.864C246.999 230.863 247.169 230.893 247.33 230.952C247.491 231.01 247.636 231.098 247.76 231.209C247.882 231.321 247.98 231.454 248.046 231.6C248.113 231.746 248.148 231.902 248.148 232.06Z" fill="white" stroke="#407BFF" stroke-miterlimit="10"/>
<path opacity="0.7" d="M471.315 265.366H430.298C427.153 265.366 424.14 264.223 421.917 262.19C419.695 260.155 418.446 257.397 418.446 254.522C418.446 251.645 419.695 248.887 421.917 246.853C424.14 244.82 427.153 243.677 430.298 243.677H471.315C474.458 243.677 477.472 244.82 479.695 246.853C481.917 248.887 483.166 251.645 483.166 254.522C483.166 257.397 481.917 260.155 479.695 262.19C477.472 264.223 474.458 265.366 471.315 265.366Z" fill="white"/>
<path opacity="0.7" d="M507.347 172.882H380.63C379.941 172.882 379.281 172.633 378.794 172.187C378.307 171.741 378.033 171.137 378.033 170.507C378.046 169.885 378.325 169.294 378.812 168.86C379.298 168.426 379.951 168.185 380.63 168.189H507.33C507.67 168.187 508.007 168.247 508.323 168.365C508.638 168.482 508.924 168.656 509.165 168.876C509.406 169.095 509.598 169.356 509.728 169.644C509.859 169.931 509.927 170.24 509.927 170.551C509.914 171.171 509.637 171.762 509.155 172.197C508.673 172.633 508.023 172.879 507.347 172.882Z" fill="white"/>
<path opacity="0.7" d="M507.347 190.184H380.63C380.29 190.186 379.953 190.127 379.638 190.008C379.322 189.891 379.036 189.717 378.794 189.497C378.554 189.278 378.362 189.017 378.232 188.73C378.1 188.442 378.033 188.134 378.033 187.822C378.033 187.193 378.307 186.589 378.794 186.142C379.281 185.697 379.941 185.447 380.63 185.447H507.33C508.019 185.447 508.68 185.697 509.166 186.142C509.653 186.589 509.927 187.193 509.927 187.822C509.927 188.449 509.654 189.05 509.17 189.493C508.686 189.935 508.03 190.184 507.347 190.184Z" fill="white"/>
<path opacity="0.7" d="M507.345 207.543H428.417C427.731 207.543 427.074 207.296 426.587 206.853C426.1 206.41 425.825 205.81 425.82 205.182C425.82 204.553 426.094 203.948 426.582 203.502C427.068 203.057 427.729 202.807 428.417 202.807H507.33C508.019 202.807 508.679 203.057 509.166 203.502C509.653 203.948 509.927 204.553 509.927 205.182C509.922 205.807 509.649 206.406 509.166 206.848C508.683 207.289 508.029 207.54 507.345 207.543Z" fill="white"/>
<path opacity="0.4" d="M184.463 55.8831H175.511V64.0746H184.463V55.8831Z" fill="black"/>
<path opacity="0.4" d="M199.564 55.8831H195.2C193.933 55.8831 192.906 56.8225 192.906 57.982V61.9757C192.906 63.1341 193.933 64.0746 195.2 64.0746H199.564C200.831 64.0746 201.858 63.1341 201.858 61.9757V57.982C201.858 56.8225 200.831 55.8831 199.564 55.8831Z" fill="black"/>
<path opacity="0.4" d="M215.174 55.8831H214.41C212.149 55.8831 210.316 57.5599 210.316 59.6292V60.3285C210.316 62.3968 212.149 64.0746 214.41 64.0746H215.174C217.435 64.0746 219.268 62.3968 219.268 60.3285V59.6292C219.268 57.5599 217.435 55.8831 215.174 55.8831Z" fill="black"/>
<path opacity="0.9" d="M202.94 257.83V254.638L201.156 254.492C200.902 253.456 200.449 252.47 199.818 251.577L200.965 250.309L198.496 248.05L197.111 249.099C196.136 248.522 195.057 248.108 193.925 247.875L193.765 246.243H190.277L190.101 247.875C188.969 248.109 187.891 248.523 186.916 249.099L185.53 248.05L183.06 250.309L184.207 251.577C183.565 252.463 183.111 253.452 182.869 254.492L181.07 254.638V257.83L182.869 257.991C183.112 259.031 183.566 260.019 184.207 260.906L183.06 262.188L185.53 264.433L186.916 263.383C187.884 263.971 188.965 264.386 190.101 264.608L190.277 266.254H193.765L193.925 264.608C195.061 264.387 196.143 263.971 197.111 263.383L198.496 264.433L200.965 262.188L199.818 260.906C200.453 260.017 200.907 259.029 201.156 257.991L202.94 257.83ZM191.965 260.555C191.02 260.555 190.096 260.299 189.31 259.819C188.525 259.339 187.911 258.655 187.55 257.857C187.188 257.058 187.094 256.179 187.278 255.33C187.462 254.482 187.917 253.703 188.586 253.092C189.255 252.479 190.106 252.063 191.032 251.894C191.96 251.726 192.921 251.813 193.794 252.144C194.666 252.474 195.414 253.034 195.938 253.754C196.464 254.473 196.743 255.319 196.743 256.183C196.743 257.342 196.241 258.455 195.344 259.275C194.448 260.095 193.233 260.555 191.965 260.555Z" fill="white"/>
<path opacity="0.6" d="M217.087 266.838V264.389L215.686 264.258C215.495 263.437 215.138 262.655 214.635 261.955L215.526 260.949L213.599 259.185L212.516 260.017C211.745 259.555 210.885 259.229 209.983 259.054L209.856 257.757H207.116L206.988 259.054C206.086 259.229 205.228 259.555 204.456 260.017L203.373 259.185L201.429 260.949L202.337 261.955C201.833 262.655 201.476 263.437 201.285 264.258L199.884 264.389V266.882L201.285 267.013C201.476 267.834 201.833 268.615 202.337 269.316L201.429 270.321L203.373 272.085L204.456 271.254C205.228 271.717 206.086 272.042 206.988 272.216L207.116 273.499H209.856L209.983 272.216C210.885 272.042 211.745 271.717 212.516 271.254L213.599 272.085L215.526 270.321L214.635 269.316C215.138 268.615 215.495 267.834 215.686 267.013L217.087 266.838ZM208.486 268.981C207.75 268.984 207.032 268.787 206.42 268.416C205.806 268.043 205.329 267.514 205.045 266.894C204.762 266.273 204.686 265.591 204.828 264.931C204.969 264.271 205.321 263.665 205.84 263.189C206.359 262.711 207.019 262.387 207.74 262.254C208.46 262.122 209.207 262.189 209.886 262.446C210.565 262.702 211.146 263.138 211.554 263.696C211.963 264.255 212.181 264.912 212.181 265.585C212.184 266.03 212.089 266.471 211.904 266.883C211.719 267.295 211.448 267.669 211.105 267.985C210.761 268.3 210.353 268.551 209.904 268.722C209.454 268.893 208.973 268.981 208.486 268.981Z" fill="white"/>
<path opacity="0.4" d="M202.942 273.936V271.837L201.764 271.735C201.605 271.045 201.309 270.388 200.887 269.796L201.652 268.966L200.059 267.508L199.135 268.193C198.489 267.808 197.771 267.536 197.016 267.391L196.905 266.313H194.579L194.468 267.391C193.713 267.536 192.994 267.808 192.349 268.193L191.426 267.508L189.833 268.966L190.597 269.796C190.176 270.388 189.879 271.045 189.721 271.735L188.526 271.837V273.936L189.721 274.039C189.876 274.734 190.174 275.397 190.597 275.991L189.833 276.822L191.426 278.28L192.349 277.58C192.991 277.976 193.71 278.253 194.468 278.396L194.579 279.475H196.873L196.984 278.396C197.742 278.253 198.461 277.976 199.104 277.58L200.026 278.28L201.619 276.822L200.856 275.991C201.279 275.397 201.577 274.734 201.731 274.039L202.942 273.936ZM195.726 275.729C195.115 275.714 194.522 275.535 194.022 275.215C193.522 274.894 193.136 274.446 192.913 273.925C192.69 273.405 192.641 272.836 192.769 272.289C192.898 271.743 193.2 271.242 193.638 270.853C194.074 270.463 194.629 270.199 195.228 270.095C195.829 269.991 196.449 270.051 197.012 270.268C197.575 270.486 198.056 270.85 198.393 271.315C198.732 271.781 198.912 272.328 198.912 272.886C198.912 273.266 198.829 273.642 198.668 273.992C198.507 274.341 198.271 274.657 197.974 274.923C197.677 275.187 197.326 275.396 196.939 275.534C196.553 275.672 196.141 275.739 195.726 275.729Z" fill="white"/>
<path d="M503.57 58.7108L510.324 75.2389L521.617 64.8902L503.57 58.7108Z" fill="#407BFF"/>
<path d="M514.449 66.3534L511.925 68.6618L517.524 73.7843L520.047 71.4759L514.449 66.3534Z" fill="#407BFF"/>
<path opacity="0.4" d="M521.617 64.8902L503.57 58.7108L510.324 75.2389L514.72 71.2167L517.507 73.7822L520.024 71.479L517.237 68.9135L521.617 64.8902Z" fill="white"/>
<path d="M226.852 117.786L243.848 123.616L234.943 115.468C234.614 115.642 234.231 115.711 233.854 115.667C233.477 115.622 233.127 115.465 232.857 115.22C232.527 114.919 232.342 114.511 232.342 114.084C232.342 113.657 232.527 113.248 232.857 112.947C233.186 112.645 233.633 112.476 234.099 112.476C234.565 112.476 235.012 112.645 235.342 112.947C235.608 113.195 235.78 113.515 235.829 113.86C235.877 114.205 235.801 114.555 235.612 114.857L244.516 123.004L238.145 107.452L232.506 108.588L232.299 106.738L231.232 105.761L224.987 111.474L226.055 112.451L228.093 112.641L226.852 117.786Z" fill="#263238"/>
<path opacity="0.2" d="M226.852 117.786L243.848 123.616L234.943 115.468C234.614 115.642 234.231 115.711 233.854 115.667C233.477 115.622 233.127 115.465 232.857 115.22C232.527 114.919 232.342 114.511 232.342 114.084C232.342 113.657 232.527 113.248 232.857 112.947C233.186 112.645 233.633 112.476 234.099 112.476C234.565 112.476 235.012 112.645 235.342 112.947C235.608 113.195 235.78 113.515 235.829 113.86C235.877 114.205 235.801 114.555 235.612 114.857L244.516 123.004L238.145 107.452L232.506 108.588L232.299 106.738L231.232 105.761L224.987 111.474L226.055 112.451L228.093 112.641L226.852 117.786Z" fill="white"/>
<g opacity="0.1">
<path opacity="0.1" d="M161.956 250.193L221.817 45.5195H161.956V250.193Z" fill="#7E40FF"/>
<path opacity="0.1" d="M361.212 45.5195L289.483 290.757H267.134L338.864 45.5195H361.212Z" fill="#7E40FF"/>
<path opacity="0.1" d="M427.367 45.5195L355.638 290.757H347.642L419.371 45.5195H427.367Z" fill="#7E40FF"/>
</g>
<path d="M670.381 99.6826C676.035 105.644 704.804 156.354 699.244 168.189C693.685 180.024 647.586 166.382 647.586 166.382L650.341 149.664C650.341 149.664 668.246 150.247 669.966 148.687C671.686 147.127 645.738 123.427 645.738 123.427L670.381 99.6826Z" fill="#263238"/>
<g opacity="0.2">
<path opacity="0.2" d="M699.214 168.189C698.53 169.559 697.339 170.664 695.853 171.308L694.929 171.688H694.802C694.516 171.797 694.223 171.89 693.925 171.964C692.63 172.345 691.296 172.599 689.943 172.722L688.78 172.824C688.206 172.824 687.633 172.897 687.044 172.912H685.451C670 172.912 647.524 166.28 647.524 166.28L650.279 149.561C650.279 149.561 668.184 150.144 669.904 148.585C670.318 148.206 669.092 146.515 667.004 144.212C661.939 138.513 651.793 129.024 647.603 125.147L645.708 123.397L670.382 99.6826C676.036 105.586 704.805 156.295 699.214 168.189Z" fill="white"/>
</g>
<path opacity="0.2" d="M695.882 171.264L694.959 171.643H694.831C694.546 171.753 694.253 171.845 693.955 171.92C692.661 172.3 691.325 172.554 689.973 172.678L688.81 172.781C688.237 172.781 687.664 172.854 687.073 172.868H685.481C670.03 172.868 647.553 166.236 647.553 166.236L650.309 149.518C650.309 149.518 670.476 151.077 672.196 149.518C672.515 148.905 670.284 146.836 666.988 144.197C661.921 138.498 651.775 129.01 647.586 125.132L659.245 113.734L668.118 112.859C668.118 112.859 687.758 141.952 695.882 171.264Z" fill="black"/>
<path d="M612.255 97.9634C609.069 100.076 607.476 103.078 608.75 104.667L692.921 210.852C694.178 212.441 697.795 212.003 700.981 209.891C704.166 207.777 705.759 204.76 704.484 203.186L620.315 96.9858C619.057 95.4116 615.457 95.8348 612.255 97.9634Z" fill="#263238"/>
<path opacity="0.7" d="M620.316 96.9859L704.485 203.171C705.743 204.745 704.167 207.747 700.981 209.876C697.795 212.003 694.18 212.412 692.937 210.838L608.768 104.639C608.446 104.086 608.303 103.459 608.357 102.834C608.411 102.21 608.658 101.612 609.07 101.112C609.5 100.409 610.036 99.7661 610.663 99.2023C611.151 98.741 611.684 98.321 612.256 97.9486C615.457 95.8497 619.057 95.4117 620.316 96.9859Z" fill="white"/>
<path opacity="0.3" d="M704.485 203.171C705.744 204.745 704.166 207.747 700.98 209.876C697.794 212.003 694.179 212.412 692.936 210.838C692.235 209.964 693.972 208.637 694.991 206.728L609.07 101.14C609.5 100.438 610.035 99.7958 610.663 99.2308L694.848 205.431C695.342 204.97 695.875 204.546 696.441 204.162C699.626 202.033 703.227 201.597 704.485 203.171Z" fill="black"/>
<path d="M601.837 95.0182C599.144 97.6419 598.221 100.85 599.782 102.205L704.436 191.86C706.029 193.201 709.454 192.151 712.145 189.514C714.838 186.875 715.762 183.684 714.2 182.313L609.547 92.658C607.985 91.3313 604.529 92.3956 601.837 95.0182Z" fill="#407BFF"/>
<path opacity="0.7" d="M609.547 92.6716L714.202 182.327C715.795 183.654 714.838 186.875 712.147 189.514C709.454 192.151 705.998 193.186 704.437 191.86L599.782 102.205C599.356 101.713 599.089 101.121 599.013 100.497C598.937 99.874 599.054 99.2424 599.352 98.6775C599.638 97.9126 600.035 97.1879 600.531 96.5204C600.925 96.0041 601.361 95.5164 601.837 95.0625C604.53 92.3955 607.986 91.3312 609.547 92.6716Z" fill="white"/>
<path opacity="0.3" d="M714.201 182.327C715.794 183.654 714.839 186.875 712.146 189.514C709.455 192.151 705.998 193.186 704.437 191.86C703.577 191.117 705.01 189.528 705.615 187.487L599.353 98.706C599.638 97.9421 600.035 97.2164 600.531 96.5488L705.202 186.219C705.587 185.701 706.019 185.213 706.492 184.762C709.184 182.036 712.641 180.987 714.201 182.327Z" fill="black"/>
<path d="M626.99 381.141L619.026 381.258C610.918 346.407 605.183 303.277 601.615 270.744C601.057 265.643 600.548 260.818 600.022 256.314C599.815 254.172 599.607 252.116 599.417 250.134C598.461 240.354 597.824 232.643 597.409 227.804C597.123 224.306 596.979 222.382 596.979 222.382H625.939L625.667 229.101L624.712 251.271L624.616 253.807L624.011 268.456L623.007 293.395C632.899 328.522 626.99 381.141 626.99 381.141Z" fill="#EBB376"/>
<path d="M691.661 379.276L683.808 380.631C668.086 344.673 653.319 298.628 643.713 266.459C642.233 261.474 640.863 256.81 639.636 252.583C639.636 252.364 639.525 252.161 639.46 251.956C637.039 243.561 635.176 236.87 634.013 232.629L632.627 227.483L660.981 222.994L662.574 233.926L664.948 249.959L665.41 253.107L667.002 264.054L671.319 293.409C687.695 326.496 691.661 379.276 691.661 379.276Z" fill="#EBB376"/>
<path opacity="0.2" d="M665.029 249.989L639.639 252.583C639.639 252.364 639.527 252.161 639.464 251.956C637.042 243.561 635.178 236.87 634.016 232.629L662.688 233.926L665.029 249.989Z" fill="black"/>
<path opacity="0.2" d="M625.606 229.101L624.713 251.271L624.618 253.807L600.087 256.299C599.88 254.157 599.673 252.101 599.481 250.12C598.526 240.339 597.889 232.629 597.475 227.789L625.606 229.101Z" fill="black"/>
<path d="M603.43 405.367C604.915 404.263 606.603 403.415 608.416 402.859C608.416 402.859 613.848 397.932 616.476 383.095L623.581 381.39C624.788 381.126 626.055 381.206 627.211 381.62C628.368 382.035 629.357 382.763 630.048 383.706C630.245 383.971 630.395 384.261 630.494 384.566C630.861 386.159 631.117 387.77 631.259 389.392C631.656 394.816 631.693 400.258 631.37 405.687H630.079L629.57 395.484C629.379 392.001 626.464 396.081 625.636 399.857C624.808 403.632 623.039 407.567 614.724 407.756C605.007 407.888 600.977 407.538 603.43 405.367Z" fill="#263238"/>
<path d="M630.303 383.91C630.764 380.441 630.908 374.407 630.908 374.407L615.105 376.011C615.105 376.011 617.017 382.876 615.44 388.035C623.405 386.039 630.303 383.91 630.303 383.91Z" fill="#263238"/>
<path d="M667.72 405.366C669.205 404.268 670.894 403.424 672.705 402.874C672.705 402.874 678.138 397.947 680.749 383.108L687.871 381.403C689.078 381.14 690.345 381.221 691.501 381.635C692.657 382.049 693.647 382.777 694.338 383.721C694.533 383.984 694.684 384.275 694.784 384.581C695.151 386.172 695.406 387.785 695.548 389.405C695.943 394.83 695.975 400.272 695.643 405.702H694.433L693.923 395.498C693.733 392.014 690.817 396.096 689.989 399.871C689.161 403.646 687.392 407.582 679.062 407.771C669.297 407.887 665.267 407.538 667.72 405.366Z" fill="#263238"/>
<path d="M694.578 383.91C695.055 380.441 695.199 374.407 695.199 374.407L679.397 376.011C679.397 376.011 681.308 382.876 679.731 388.035C687.696 386.039 694.578 383.91 694.578 383.91Z" fill="#263238"/>
<path d="M667.769 242.832L637.71 246.344L636.547 246.475L630.367 225.749L628.774 247.963L596.564 246.417C582.229 169.355 606.744 151.15 606.744 151.15L650.438 159.196C670.221 189.979 665.522 225.749 665.522 225.749L667.769 242.832Z" fill="#7E40FF"/>
<path d="M626.384 55.1393C626.384 58.1713 624.919 60.6194 623.198 60.6194C621.478 60.6194 619.917 58.1713 619.917 55.1393C619.917 52.1072 621.382 49.6592 623.198 49.6592C625.014 49.6592 626.384 52.1072 626.384 55.1393Z" stroke="#263238" stroke-width="0.5" stroke-linecap="round" stroke-linejoin="round"/>
<path d="M647.968 73.4469C647.852 73.5464 647.724 73.6342 647.587 73.7093C645.768 74.9767 643.695 75.9034 641.485 76.4345C635.034 77.8045 630.622 76.9889 627.739 74.3208C623.709 70.3133 622.705 63.2146 623.278 54.6442C623.378 51.2334 624.067 47.8586 625.318 44.6446C625.318 44.6446 625.318 44.5134 625.318 44.4849C625.318 44.4553 625.412 44.2363 625.476 44.1199C626.266 42.3077 627.54 40.7049 629.183 39.4597C630.824 38.2145 632.782 37.366 634.875 36.9926C636.689 36.6213 638.542 36.4308 640.402 36.4245C658.673 36.2933 661.954 63.9572 647.968 73.4469Z" fill="#EBB376"/>
<path opacity="0.2" d="M647.586 73.7526C645.754 74.947 643.68 75.7944 641.485 76.2451C635.034 77.6151 630.621 76.609 627.738 73.8986C631.599 74.7724 635.667 74.4646 639.319 73.0237C640.668 72.5688 642.112 72.3974 643.543 72.5233C644.975 72.6502 646.356 73.0702 647.586 73.7526Z" fill="black"/>
<path d="M649.434 88.8388C650.565 93.59 643.827 95.5292 643.827 95.5292C632.82 91.1557 630.782 85.865 630.782 85.865C639.973 81.4925 637.313 69.0883 637.313 69.0883L639.176 69.9336L652.286 72.2801C652.286 72.2801 648.653 78.6647 648.176 80.1225C645.69 87.7746 649.434 88.8388 649.434 88.8388Z" fill="#EBB376"/>
<path d="M625.3 44.5717C625.3 44.5717 624.298 56.2322 636.452 61.3198C636.452 61.3198 641.66 73.4903 649.322 73.6511C659.788 73.8839 668.995 60.2852 665.379 46.423C660.647 28.4371 630.876 26.9793 625.3 44.5717Z" fill="#263238"/>
<path d="M630.271 57.9524C630.271 56.1306 631.864 53.0552 635.051 53.4773C638.236 53.9005 640.052 61.159 632.152 62.7766C630.956 63.0104 630.271 61.7863 630.271 57.9524Z" fill="#EBB376"/>
<path d="M647.586 32.124C647.586 32.124 635.384 29.2962 628.63 33.8008C620.746 39.0482 617.751 44.4701 627.037 52.8944C627.037 52.8944 647.538 46.8166 654.355 48.0988C658.34 48.8351 662.252 49.873 666.048 51.2039C667.529 38.8144 654.404 29.5882 647.586 32.124Z" fill="#263238"/>
<path d="M630.271 55.1393C630.271 55.1393 633.457 68.6364 628.455 80.151C628.455 80.151 657.446 89.3487 667.529 84.3489C677.612 79.3501 668.374 62.5734 667.943 52.8944C667.513 43.2164 662.925 28.9173 647.586 32.1239C632.246 35.3305 630.271 55.1393 630.271 55.1393Z" fill="#263238"/>
<path d="M619.838 54.2793H632.088" stroke="#263238" stroke-width="0.5" stroke-linecap="round" stroke-linejoin="round"/>
<path opacity="0.2" d="M637.711 246.344L636.548 246.475L630.367 225.749C630.367 225.749 643.62 205.037 639.478 194.25C640.068 195.009 654.341 214.38 637.711 246.344Z" fill="black"/>
<path d="M612.891 87.7892C612.891 87.7892 627.465 83.0369 649.432 88.8387C671.398 94.6393 672.226 103.196 672.226 103.196C672.226 103.196 658.305 132.07 656.107 164.763L598.857 162.81C598.857 162.81 592.024 116.663 612.891 87.7892Z" fill="#263238"/>
<path opacity="0.2" d="M672.229 103.196C672.229 103.196 658.307 132.07 656.109 164.764L598.859 162.811C598.175 157.489 597.824 152.136 597.808 146.778C597.695 138.934 598.227 131.095 599.401 123.325C601.312 111.227 605.247 98.3125 612.892 87.7311C612.892 87.7311 627.468 82.9788 649.434 88.7806C671.401 94.5812 672.229 103.196 672.229 103.196Z" fill="white"/>
<path opacity="0.2" d="M612.095 125.351C612.095 125.351 609.723 138.644 597.76 146.836C597.646 138.992 598.179 131.153 599.352 123.384L612.095 125.351Z" fill="black"/>
<path d="M548.842 86.8711L541.626 77.0756C541.626 77.0756 540.527 72.8196 539.125 71.8579C537.723 70.8963 523.866 65.4881 522.193 65.5177C520.52 65.5463 520.6 75.3999 522.193 77.0756C523.786 78.7525 532.611 82.3378 534.936 82.7017C537.261 83.0667 536.114 82.7017 536.114 82.7017L542.487 94.3633L548.842 86.8711Z" fill="#EBB376"/>
<path d="M612.893 87.7893C597.434 93.7127 582.52 100.762 568.291 108.866L544.987 79.7141C544.987 79.7141 538.71 81.4925 536.385 91.491C536.385 91.491 548.349 133.193 563.895 137.332C579.441 141.472 612.128 125.278 612.128 125.278C612.128 125.278 621.59 103.618 612.893 87.7893Z" fill="#263238"/>
<path opacity="0.2" d="M612.893 87.7893C597.434 93.7127 582.52 100.762 568.291 108.866L544.987 79.7141C544.987 79.7141 538.71 81.4925 536.385 91.491C536.385 91.491 548.349 133.193 563.895 137.332C579.441 141.472 612.128 125.278 612.128 125.278C612.128 125.278 621.59 103.618 612.893 87.7893Z" fill="white"/>
<path d="M627.627 85.9528C627.627 85.9528 632.708 119.244 648.812 120.584C664.917 121.926 672.134 97.2632 669.409 94.3486C666.685 91.4329 645.929 85.7338 627.627 85.9528Z" fill="#263238"/>
<path opacity="0.3" d="M627.627 85.9528C627.627 85.9528 632.708 119.244 648.812 120.584C664.917 121.926 672.134 97.2632 669.409 94.3486C666.685 91.4329 645.929 85.7338 627.627 85.9528Z" fill="white"/>
<path d="M54.6562 392.175H66.4598L67.4314 367.163H55.6279L54.6562 392.175Z" fill="#B97964"/>
<path d="M68.0846 390.921H53.7484C53.5122 390.917 53.2822 390.99 53.0985 391.126C52.915 391.262 52.7898 391.453 52.7449 391.665L50.4192 401.27C50.3701 401.475 50.3658 401.687 50.4066 401.893C50.4474 402.1 50.5324 402.296 50.6568 402.473C50.7812 402.649 50.9426 402.801 51.1314 402.92C51.3203 403.039 51.5329 403.122 51.7573 403.165H52.1395C56.7748 403.092 60.104 402.83 65.966 402.83C69.566 402.83 80.3022 403.18 85.3358 403.18C90.3694 403.18 90.9269 398.705 88.9039 398.297C79.8084 396.475 72.9749 393.924 70.0598 391.577C69.5158 391.138 68.8099 390.904 68.0846 390.921Z" fill="#263238"/>
<path d="M68.8971 392.423C68.843 392.409 68.7945 392.381 68.7577 392.342C68.7209 392.303 68.6973 392.255 68.69 392.205C68.68 392.156 68.6869 392.106 68.7098 392.061C68.7328 392.016 68.7704 391.98 68.8174 391.956C69.2476 391.708 73.0547 389.566 74.3608 390.178C74.5083 390.241 74.6324 390.343 74.7173 390.47C74.8023 390.597 74.8446 390.744 74.8387 390.892C74.8822 391.148 74.8506 391.41 74.747 391.65C74.6434 391.892 74.4716 392.102 74.2494 392.263C73.5899 392.685 72.7891 392.881 71.9874 392.816C70.9449 392.787 69.9089 392.654 68.8971 392.423ZM69.7095 392.059C71.0868 392.485 72.59 392.417 73.9149 391.869C74.0527 391.754 74.1581 391.611 74.222 391.451C74.2858 391.292 74.3061 391.119 74.2811 390.951C74.2811 390.747 74.1856 390.644 74.1059 390.644C73.9928 390.591 73.8666 390.566 73.7396 390.571C72.3055 390.829 70.938 391.334 69.7095 392.059Z" fill="#407BFF"/>
<path d="M68.8184 392.466C68.7767 392.441 68.7431 392.407 68.7208 392.365C68.6984 392.324 68.6881 392.279 68.6909 392.233C68.6909 392.087 68.9936 388.983 70.2839 387.962C70.442 387.832 70.6298 387.736 70.8337 387.681C71.0375 387.625 71.2524 387.612 71.4626 387.642C71.6744 387.644 71.8793 387.71 72.044 387.832C72.2088 387.954 72.3239 388.123 72.3705 388.312C72.6095 389.449 70.252 391.825 69.0254 392.437H68.898L68.8184 392.466ZM70.7139 388.283C69.8873 389.255 69.4039 390.435 69.3281 391.665C70.5387 390.82 72.036 389.027 71.8927 388.327C71.8927 388.327 71.8927 388.065 71.4786 388.065H71.351C71.1163 388.062 70.889 388.14 70.7139 388.283Z" fill="#407BFF"/>
<path opacity="0.2" d="M55.6289 367.177H67.4324L66.9226 380.076H55.1191L55.6289 367.177Z" fill="black"/>
<path d="M115.395 392.977L127.581 394.158L129.859 370.136L117.689 368.956L115.395 392.977Z" fill="#B97964"/>
<path d="M128.855 390.571H114.614C114.38 390.573 114.153 390.647 113.97 390.783C113.788 390.918 113.661 391.105 113.611 391.315L111.285 400.935C111.228 401.137 111.215 401.347 111.248 401.553C111.28 401.76 111.357 401.959 111.474 402.137C111.591 402.317 111.746 402.473 111.93 402.597C112.113 402.72 112.322 402.809 112.543 402.859H112.926C117.561 402.786 120.89 402.524 126.769 402.524C130.352 402.524 141.104 402.859 146.122 402.859C151.14 402.859 151.713 398.384 149.69 397.976C140.595 396.169 133.761 393.603 130.846 391.257C130.298 390.809 129.588 390.565 128.855 390.571Z" fill="#263238"/>
<path d="M129.668 392.073C129.613 392.059 129.565 392.031 129.528 391.992C129.491 391.953 129.468 391.905 129.461 391.854C129.449 391.804 129.456 391.752 129.483 391.706C129.509 391.661 129.552 391.626 129.604 391.607C130.018 391.358 133.825 389.216 135.131 389.843C135.279 389.902 135.404 390 135.489 390.125C135.574 390.25 135.616 390.396 135.609 390.543C135.648 390.799 135.615 391.06 135.516 391.302C135.415 391.543 135.25 391.759 135.035 391.927C134.364 392.337 133.562 392.526 132.758 392.467C131.716 392.436 130.68 392.305 129.668 392.073ZM130.48 391.723C131.859 392.145 133.363 392.072 134.685 391.519C134.824 391.406 134.93 391.262 134.995 391.102C135.059 390.941 135.078 390.77 135.052 390.601C135.052 390.397 134.956 390.309 134.876 390.309C134.771 390.252 134.648 390.225 134.526 390.237C133.105 390.491 131.753 390.995 130.543 391.723H130.48Z" fill="#407BFF"/>
<path d="M129.603 392.132C129.559 392.106 129.523 392.072 129.499 392.031C129.474 391.991 129.46 391.944 129.46 391.898C129.46 391.738 129.763 388.648 131.133 387.627C131.294 387.502 131.483 387.409 131.685 387.351C131.887 387.294 132.1 387.274 132.311 387.292C132.523 387.292 132.73 387.357 132.895 387.48C133.06 387.601 133.175 387.772 133.22 387.962C133.458 389.114 131.1 391.489 129.875 392.087H129.746L129.603 392.132ZM131.483 387.934C130.657 388.901 130.173 390.075 130.098 391.3C131.308 390.47 132.805 388.663 132.662 387.962C132.662 387.962 132.662 387.7 132.247 387.7H132.136C131.895 387.706 131.664 387.789 131.483 387.934Z" fill="#407BFF"/>
<path opacity="0.2" d="M117.689 368.956L129.859 370.136L128.663 382.526L116.493 381.345L117.689 368.956Z" fill="black"/>
<path d="M60.4548 147.856H123.104C129.045 177.605 147.683 282.857 134.255 376.695L113.053 374.291C113.053 374.291 115.012 249.799 96.3112 203.754C94.1608 228.387 91.5325 254.594 89.382 268.544C83.9343 302.87 72.2741 377.861 72.2741 377.861H50.7539C50.7539 377.861 55.1663 306.061 57.2052 272.333C59.4353 235.675 60.4548 155.377 60.4548 147.856Z" fill="#263238"/>
<path d="M136.739 381.156L110.503 377.585L111.316 370.938L138.602 374.218L136.739 381.156Z" fill="#407BFF"/>
<path d="M74.9347 377.992H49.48V371.04L75.8904 370.588L74.9347 377.992Z" fill="#407BFF"/>
<path opacity="0.2" d="M96.375 203.71C99.4492 211.779 101.788 220.067 103.368 228.489C105.12 206.625 98.1113 183.304 98.1113 183.304L96.375 203.71Z" fill="black"/>
<path d="M58.7184 157.826L57.2847 164.749C57.2847 164.749 101.106 169.938 128.36 169.792L127.405 165.041L58.7184 157.826Z" fill="#407BFF"/>
<path d="M147.65 97.8757C147.65 97.8757 162.799 141.603 173.137 144.518C183.475 147.434 209.775 111.3 209.775 111.3C209.775 111.3 233.397 111.096 234.448 109.624C235.5 108.151 228.316 92.9204 226.595 92.9055C224.875 92.8907 204.295 99.9747 203.514 101.17C202.733 102.365 179.11 123.033 178.027 122.421C176.945 121.809 167.96 95.8202 167.96 95.8202L147.65 97.8757Z" fill="#B97964"/>
<path d="M212.897 108.94C213.086 108.904 213.272 108.86 213.456 108.807L213.185 108.646C213.098 108.751 213.001 108.849 212.897 108.94Z" fill="#B97964"/>
<path d="M139.05 92.8326L140.897 95.9366L149.515 110.513L151.315 113.53L175.512 105.834C175.512 105.834 165.444 71.4644 161.956 67.9373L139.05 92.8326Z" fill="#7E40FF"/>
<path opacity="0.2" d="M140.897 95.9365L149.515 110.513C154.852 100.936 153.306 87.8179 153.306 87.8179L140.897 95.9365Z" fill="black"/>
<path d="M162.279 67.9737C157.721 63.1559 152.138 59.2384 145.873 56.4571C139.608 53.6757 132.79 52.0888 125.834 51.7937C102.131 50.7738 94.6762 52.931 86.0108 60.0149C73.3471 70.3636 57.5933 159.465 57.5933 159.465C80.7052 165.353 104.714 167.741 128.669 166.535C128.669 166.535 128.956 141.756 137.509 125.124C147.144 106.599 155.418 87.5053 162.279 67.9737Z" fill="#7E40FF"/>
<path opacity="0.4" d="M137.028 88.9255L141.743 89.3487L138.286 91.7978L137.028 88.9255Z" fill="white"/>
<path d="M118.551 54.7891C121.115 61.4943 130.656 64.5549 135.659 64.9929C137.5 65.2584 139.386 64.9633 141.028 64.1518C142.668 63.3404 143.972 62.0582 144.738 60.503C144.738 60.503 139.019 57.8941 139.593 54.9647C139.997 53.1726 140.8 51.4757 141.951 49.9797C142.545 49.1249 143.195 48.3029 143.893 47.5158L134.735 29.5447C132.696 37.3279 126.435 52.2829 118.551 54.7891Z" fill="#B97964"/>
<path opacity="0.2" d="M134.365 37.8379C130.001 46.5838 136.165 52.6035 139.59 54.9066C139.995 53.1145 140.798 51.4175 141.947 49.9216L134.365 37.8379Z" fill="black"/>
<path d="M165.078 14.502C165.078 14.502 168.008 29.3109 159.566 35.2438C151.123 41.1757 150.264 13.5107 150.264 13.5107L165.078 14.502Z" fill="#B97964"/>
<path opacity="0.4" d="M165.078 14.502C165.078 14.502 168.008 29.3109 159.566 35.2438C151.123 41.1757 150.264 13.5107 150.264 13.5107L165.078 14.502Z" fill="black"/>
<path d="M134.892 47.7052C136.774 50.1067 139.466 51.8766 142.554 52.7431C145.641 53.6085 148.954 53.5239 151.984 52.5008C155.941 51.2303 159.218 48.6224 161.143 45.2127C161.414 44.761 161.653 44.2659 161.891 43.7559C165.842 34.5583 166.671 12.1121 156.03 12.9425C147.237 13.627 138.635 11.1493 134.144 18.1021C132.86 20.0804 132.107 22.3074 131.945 24.6031C130.989 35.3306 129.874 41.5544 134.892 47.7052Z" fill="#B97964"/>
<path d="M149.037 29.9086C148.845 30.7539 149.292 31.5262 149.912 31.614C150.534 31.7018 151.139 31.0459 151.282 30.1561C151.425 29.2675 151.012 28.5386 150.407 28.4656C149.801 28.3926 149.18 29.0337 149.037 29.9086Z" fill="#263238"/>
<path d="M159.695 31.2935C159.504 32.1388 159.966 32.9111 160.571 32.9989C161.176 33.0867 161.798 32.4308 161.925 31.5411C162.053 30.6524 161.671 29.9235 161.049 29.8357C160.428 29.7479 159.822 30.4768 159.695 31.2935Z" fill="#263238"/>
<path d="M156.237 31.2786C156.955 34.0599 158.086 36.7376 159.598 39.2375C158.884 39.576 158.099 39.7696 157.296 39.8024C156.492 39.8341 155.69 39.7061 154.946 39.4268L156.237 31.2786Z" fill="#A24E3F"/>
<path d="M146.233 26.3233C146.331 26.3497 146.434 26.3519 146.532 26.3286C146.63 26.3053 146.719 26.2577 146.791 26.1921C147.278 25.7319 147.877 25.3817 148.538 25.1702C149.198 24.9575 149.903 24.8877 150.598 24.967C150.744 24.9935 150.895 24.967 151.02 24.894C151.145 24.821 151.232 24.7057 151.267 24.5735C151.283 24.5089 151.285 24.4412 151.272 24.3756C151.259 24.31 151.231 24.2466 151.192 24.1916C151.151 24.1355 151.099 24.0879 151.038 24.0508C150.977 24.0138 150.909 23.9884 150.837 23.9768C149.971 23.8604 149.088 23.9313 148.258 24.1852C147.429 24.438 146.674 24.8655 146.059 25.4336C145.955 25.532 145.897 25.6621 145.897 25.7986C145.897 25.934 145.955 26.0652 146.059 26.1625C146.108 26.2228 146.167 26.2767 146.233 26.3233Z" fill="#263238"/>
<path d="M164.791 28.5238C164.894 28.5598 165.007 28.5598 165.11 28.5238C165.18 28.5079 165.246 28.4773 165.304 28.4371C165.362 28.3958 165.409 28.344 165.444 28.2847C165.478 28.2255 165.499 28.1609 165.505 28.0943C165.509 28.0276 165.5 27.9599 165.476 27.8975C165.223 27.1199 164.77 26.4101 164.155 25.8261C163.539 25.2432 162.78 24.8031 161.939 24.5449C161.87 24.5248 161.796 24.5185 161.723 24.5248C161.65 24.5322 161.579 24.5523 161.515 24.5851C161.452 24.6179 161.395 24.6623 161.35 24.7152C161.305 24.7692 161.273 24.8295 161.254 24.8951C161.215 25.0242 161.233 25.1627 161.305 25.2802C161.377 25.3976 161.496 25.4844 161.636 25.5214C162.296 25.7436 162.89 26.1022 163.37 26.5709C163.852 27.0385 164.207 27.6024 164.409 28.2181C164.44 28.2932 164.492 28.3609 164.558 28.4148C164.625 28.4677 164.704 28.5058 164.791 28.5238Z" fill="#263238"/>
<path d="M147.556 39.8057C147.556 39.8057 149.515 43.6534 153.514 43.5084" stroke="#263238" stroke-width="0.5" stroke-linecap="round" stroke-linejoin="round"/>
<path d="M142.473 12.5638L142.633 17.315C141.725 17.6165 140.975 18.2216 140.535 19.0087C140.095 19.7958 139.996 20.7056 140.259 21.5562C141.502 25.6377 138.427 31.5558 134.875 33.7129C134.875 33.7129 134.875 31.9927 133.282 32.2551C131.689 32.5175 131.196 41.4676 133.824 45.9712C133.824 45.9712 128.201 41.2338 126.528 31.6574C124.936 22.8099 125.238 17.1986 126.528 12.9573L142.473 12.5638Z" fill="#B97964"/>
<path opacity="0.4" d="M142.473 12.5638L142.633 17.315C141.725 17.6165 140.975 18.2216 140.535 19.0087C140.095 19.7958 139.996 20.7056 140.259 21.5562C141.502 25.6377 138.427 31.5558 134.875 33.7129C134.875 33.7129 134.875 31.9927 133.282 32.2551C131.689 32.5175 131.196 41.4676 133.824 45.9712C133.824 45.9712 128.201 41.2338 126.528 31.6574C124.936 22.8099 125.238 17.1986 126.528 12.9573L142.473 12.5638Z" fill="black"/>
<path d="M125.638 18.2631C131.322 18.7719 137.06 18.4524 142.634 17.3152C158.675 14.4005 165.508 19.7928 165.508 19.7928C166.618 18.8798 167.493 17.7521 168.069 16.4921C168.644 15.231 168.907 13.8695 168.837 12.5058C168.376 8.27828 161.956 7.56416 161.956 7.56416C161.956 7.56416 160.029 2.79817 155.776 1.35515C151.523 -0.0878706 147.255 3.52709 147.255 3.52709C147.255 3.52709 141.949 -1.16696 135.769 0.1745C133.688 0.564878 131.818 1.59742 130.469 3.09969C129.121 4.6009 128.377 6.48084 128.362 8.42427C128.362 8.42427 121.114 9.095 121.273 12.5058C121.433 15.9166 125.638 18.2631 125.638 18.2631Z" fill="#263238"/>
<path d="M150.281 36.1176C153.158 36.1176 155.491 33.6579 155.491 30.6227C155.491 27.5875 153.158 25.1278 150.281 25.1278C147.405 25.1278 145.073 27.5875 145.073 30.6227C145.073 33.6579 147.405 36.1176 150.281 36.1176Z" stroke="#263238" stroke-width="0.5" stroke-linecap="round" stroke-linejoin="round"/>
<path d="M168.581 31.4395C168.438 32.3514 168.011 33.2073 167.351 33.9034C166.692 34.6006 165.826 35.1095 164.86 35.3687C163.893 35.6289 162.866 35.6289 161.899 35.3697C160.932 35.1105 160.067 34.6017 159.408 33.9055C158.747 33.2094 158.32 32.3546 158.175 31.4416C158.032 30.5297 158.177 29.5987 158.594 28.7597C159.013 27.9208 159.685 27.2088 160.532 26.7105C161.379 26.2112 162.365 25.9456 163.372 25.9446C164.856 26.0483 166.235 26.6841 167.21 27.7124C168.185 28.7418 168.677 30.08 168.581 31.4395Z" stroke="#263238" stroke-width="0.5" stroke-linecap="round" stroke-linejoin="round"/>
<path d="M155.474 31.2787C155.474 31.2787 157.162 30.3171 158.165 31.4395" stroke="#263238" stroke-width="0.5" stroke-linecap="round" stroke-linejoin="round"/>
<path d="M145.07 30.6228L135.942 29.5003C134.746 29.3596 133.538 29.658 132.581 30.3319L132.183 30.6228" stroke="#263238" stroke-width="0.5" stroke-linecap="round" stroke-linejoin="round"/>
<path d="M125.542 32.6339C126.458 35.1983 128.445 37.3258 131.069 38.552C134.558 40.141 137.043 37.4591 136.692 34.0917C136.374 31.0893 134.191 26.5709 130.32 26.3963C129.495 26.3709 128.674 26.5338 127.935 26.8724C127.195 27.2099 126.559 27.7113 126.085 28.3313C125.61 28.9502 125.312 29.6685 125.217 30.4196C125.123 31.1708 125.235 31.9325 125.542 32.6339Z" fill="#B97964"/>
<path opacity="0.2" d="M67.3369 111.038C82.374 105.324 94.2571 81.7253 94.2571 81.7253L85.7191 77.0027L74.1227 85.5296L73.0713 89.0716C71.4785 94.4798 69.9811 100.237 68.5474 106.067C68.1333 107.729 67.7351 109.39 67.3369 111.038Z" fill="black"/>
<path d="M150.152 113.545L176.085 104.828L176.834 106.84L150.885 115.293L150.152 113.545Z" fill="#407BFF"/>
<path d="M82.9604 173.526L7.7901 162.619L0.438477 205.044L75.6087 215.951L82.9604 173.526Z" fill="#407BFF"/>
<path d="M34.3796 178.772L19.1035 186.015L31.1778 197.224" stroke="white" stroke-width="2" stroke-linecap="round" stroke-linejoin="round"/>
<path d="M48.9702 199.804L64.2303 192.56L52.1719 181.351" stroke="white" stroke-width="2" stroke-linecap="round" stroke-linejoin="round"/>
<path d="M36.4976 197.996L46.8515 180.579" stroke="white" stroke-width="2" stroke-linecap="round" stroke-linejoin="round"/>
<path d="M76.7179 63.7974C76.7179 63.7974 48.3801 89.8151 44.5252 94.8731C40.6703 99.9311 33.2793 156.004 33.2793 156.004C33.2793 156.004 31.6863 156.499 31.5908 157.709C31.4952 158.918 31.3358 174.66 31.5908 175.389C31.8456 176.118 44.8757 183.479 46.8031 181.73C48.7304 179.981 51.4065 162.155 51.4065 162.155L44.5252 156.004C44.5252 156.004 52.4898 114.71 57.5393 108.02C62.5889 101.33 83.1692 87.0169 83.1692 87.0169L76.7179 63.7974Z" fill="#B97964"/>
<path d="M98.494 53.3175C102.62 61.3197 99.4816 78.1694 91.8675 84.1161C83.8113 90.2288 75.2947 95.8158 66.3809 100.835L52.4907 84.1743C52.4907 84.1743 67.273 70.9681 76.2251 63.3605C82.314 57.9587 90.104 54.4463 98.494 53.3175Z" fill="#7E40FF"/>
<path d="M52.4908 83.1101L50.7705 85.2535L65.2819 102.613L67.3368 101.272L52.4908 83.1101Z" fill="#407BFF"/>
</g>
</svg>
