<svg width="249" height="249" viewBox="0 0 249 249" fill="none" xmlns="http://www.w3.org/2000/svg">
<path fill-rule="evenodd" clip-rule="evenodd" d="M124.039 248.074C192.539 248.074 248.074 192.543 248.074 124.035C248.074 55.5312 192.539 0 124.039 0C55.5352 0 0 55.5312 0 124.035C0 192.543 55.5352 248.074 124.039 248.074ZM59.9609 91.1445C59.9609 73.9492 73.9492 59.9609 91.1445 59.9609H156.926C174.125 59.9609 188.113 73.9492 188.113 91.1445V156.922C188.113 174.125 174.125 188.113 156.926 188.113H91.1445C73.9492 188.113 59.9609 174.125 59.9609 156.922V91.1445ZM91.1445 203.754H156.926C182.75 203.754 203.758 182.742 203.758 156.922V91.1445C203.758 65.3242 182.75 44.3164 156.926 44.3164H91.1445C65.3242 44.3164 44.3164 65.3242 44.3164 91.1445V156.922C44.3164 182.742 65.3242 203.754 91.1445 203.754ZM124.039 99.2383C110.363 99.2383 99.2383 110.363 99.2383 124.035C99.2383 137.711 110.363 148.832 124.039 148.832C137.711 148.832 148.836 137.711 148.836 124.035C148.836 110.363 137.711 99.2383 124.039 99.2383ZM124.039 164.473C101.734 164.473 83.5938 146.336 83.5938 124.035C83.5938 101.738 101.734 83.5938 124.039 83.5938C146.336 83.5938 164.48 101.738 164.48 124.035C164.48 146.336 146.336 164.473 124.039 164.473ZM166.395 91.418C171.77 91.418 176.129 87.0547 176.129 81.6797C176.129 76.3008 171.77 71.9414 166.395 71.9414C161.016 71.9414 156.656 76.3008 156.656 81.6797C156.656 87.0547 161.016 91.418 166.395 91.418Z" fill="white"/>
</svg>
