<svg width="174" height="73" viewBox="0 0 174 73" fill="none" xmlns="http://www.w3.org/2000/svg">
<path d="M2.76375 55.2H4.80375V72H2.76375V55.2ZM15.6066 65.28C15.6066 64.368 15.4066 63.68 15.0066 63.216C14.6066 62.752 14.0226 62.52 13.2546 62.52C12.6946 62.52 12.1986 62.64 11.7666 62.88C11.3506 63.104 11.0226 63.424 10.7826 63.84C10.5586 64.256 10.4466 64.736 10.4466 65.28V72H8.52656V60.96H10.4466V62.688C10.8146 62.016 11.2706 61.52 11.8146 61.2C12.3746 60.88 13.0146 60.72 13.7346 60.72C14.9026 60.72 15.8226 61.112 16.4946 61.896C17.1826 62.664 17.5266 63.712 17.5266 65.04V72H15.6066V65.28ZM20.1759 66.48C20.1759 65.36 20.4239 64.368 20.9199 63.504C21.4319 62.64 22.1199 61.96 22.9839 61.464C23.8479 60.968 24.8159 60.72 25.8879 60.72C26.9759 60.72 27.9439 60.968 28.7919 61.464C29.6559 61.96 30.3359 62.64 30.8319 63.504C31.3439 64.368 31.5999 65.36 31.5999 66.48C31.5999 67.584 31.3439 68.576 30.8319 69.456C30.3359 70.32 29.6559 71 28.7919 71.496C27.9439 71.992 26.9759 72.24 25.8879 72.24C24.8159 72.24 23.8479 71.992 22.9839 71.496C22.1199 71 21.4319 70.32 20.9199 69.456C20.4239 68.576 20.1759 67.584 20.1759 66.48ZM22.1199 66.48C22.1199 67.248 22.2799 67.928 22.5999 68.52C22.9359 69.112 23.3839 69.584 23.9439 69.936C24.5199 70.272 25.1679 70.44 25.8879 70.44C26.6079 70.44 27.2479 70.272 27.8079 69.936C28.3839 69.584 28.8319 69.112 29.1519 68.52C29.4879 67.928 29.6559 67.248 29.6559 66.48C29.6559 65.712 29.4879 65.032 29.1519 64.44C28.8319 63.832 28.3839 63.36 27.8079 63.024C27.2479 62.688 26.6079 62.52 25.8879 62.52C25.1679 62.52 24.5199 62.688 23.9439 63.024C23.3839 63.36 22.9359 63.832 22.5999 64.44C22.2799 65.032 22.1199 65.712 22.1199 66.48ZM32.0859 60.96H34.2459L37.3659 68.76L40.4859 60.96H42.6459L37.3659 72.84L32.0859 60.96ZM45.3203 68.592C45.3203 69.008 45.4163 69.368 45.6083 69.672C45.8163 69.976 46.0963 70.208 46.4483 70.368C46.8163 70.512 47.2323 70.584 47.6963 70.584C48.2883 70.584 48.8163 70.464 49.2803 70.224C49.7603 69.984 50.1363 69.648 50.4083 69.216C50.6963 68.768 50.8403 68.256 50.8403 67.68L51.2243 69.12C51.2243 69.824 51.0083 70.408 50.5763 70.872C50.1603 71.336 49.6403 71.68 49.0163 71.904C48.4083 72.128 47.8003 72.24 47.1923 72.24C46.5203 72.24 45.8883 72.104 45.2963 71.832C44.7203 71.544 44.2563 71.136 43.9043 70.608C43.5523 70.08 43.3763 69.44 43.3763 68.688C43.3763 67.616 43.7523 66.76 44.5043 66.12C45.2723 65.464 46.3363 65.136 47.6963 65.136C48.4963 65.136 49.1603 65.232 49.6883 65.424C50.2323 65.6 50.6643 65.808 50.9843 66.048C51.3043 66.272 51.5203 66.456 51.6323 66.6V67.728C51.0723 67.344 50.4963 67.072 49.9043 66.912C49.3123 66.736 48.6803 66.648 48.0083 66.648C47.3843 66.648 46.8723 66.728 46.4723 66.888C46.0883 67.048 45.8003 67.272 45.6083 67.56C45.4163 67.848 45.3203 68.192 45.3203 68.592ZM45.0323 63.504L44.0963 62.088C44.5123 61.784 45.0803 61.48 45.8003 61.176C46.5363 60.872 47.4163 60.72 48.4403 60.72C49.3043 60.72 50.0563 60.856 50.6963 61.128C51.3523 61.384 51.8563 61.76 52.2083 62.256C52.5763 62.752 52.7603 63.36 52.7603 64.08V72H50.8403V64.344C50.8403 63.96 50.7763 63.648 50.6483 63.408C50.5203 63.152 50.3363 62.952 50.0963 62.808C49.8723 62.664 49.6083 62.56 49.3043 62.496C49.0003 62.432 48.6803 62.4 48.3443 62.4C47.8003 62.4 47.3043 62.464 46.8563 62.592C46.4243 62.72 46.0563 62.872 45.7523 63.048C45.4483 63.224 45.2083 63.376 45.0323 63.504ZM52.0603 57.12V55.2H62.7403V57.12H58.4203V72H56.3803V57.12H52.0603ZM66.6579 72.24C65.6339 72.24 64.7219 72 63.9219 71.52C63.1379 71.024 62.5219 70.344 62.0739 69.48C61.6419 68.616 61.4259 67.616 61.4259 66.48C61.4259 65.328 61.6499 64.32 62.0979 63.456C62.5619 62.592 63.2019 61.92 64.0179 61.44C64.8499 60.96 65.8099 60.72 66.8979 60.72C67.9859 60.72 68.9139 60.952 69.6819 61.416C70.4659 61.864 71.0659 62.512 71.4819 63.36C71.8979 64.208 72.1059 65.216 72.1059 66.384C72.1059 66.496 72.0979 66.616 72.0819 66.744C72.0819 66.856 72.0819 66.928 72.0819 66.96H62.6499V65.328H70.5699L69.8019 66.432C69.8499 66.352 69.8979 66.232 69.9459 66.072C69.9939 65.896 70.0179 65.752 70.0179 65.64C70.0179 64.984 69.8819 64.416 69.6099 63.936C69.3539 63.456 68.9939 63.08 68.5299 62.808C68.0659 62.536 67.5219 62.4 66.8979 62.4C66.1619 62.4 65.5299 62.56 65.0019 62.88C64.4899 63.184 64.0899 63.632 63.8019 64.224C63.5299 64.8 63.3859 65.512 63.3699 66.36C63.3699 67.224 63.5059 67.96 63.7779 68.568C64.0499 69.176 64.4499 69.64 64.9779 69.96C65.5059 70.28 66.1459 70.44 66.8979 70.44C67.6499 70.44 68.3139 70.28 68.8899 69.96C69.4659 69.624 69.9539 69.12 70.3539 68.448L71.9139 69.432C71.3379 70.36 70.6099 71.064 69.7299 71.544C68.8659 72.008 67.8419 72.24 66.6579 72.24ZM75.6015 66.48C75.6015 67.248 75.7615 67.928 76.0815 68.52C76.4175 69.112 76.8655 69.584 77.4255 69.936C78.0015 70.272 78.6495 70.44 79.3695 70.44C79.9615 70.44 80.5135 70.352 81.0255 70.176C81.5535 69.984 82.0095 69.736 82.3935 69.432C82.7775 69.112 83.0495 68.776 83.2095 68.424V70.824C82.8255 71.272 82.2735 71.624 81.5535 71.88C80.8495 72.12 80.1215 72.24 79.3695 72.24C78.2975 72.24 77.3295 71.992 76.4655 71.496C75.6015 71 74.9135 70.32 74.4015 69.456C73.9055 68.576 73.6575 67.584 73.6575 66.48C73.6575 65.36 73.9055 64.368 74.4015 63.504C74.9135 62.64 75.6015 61.96 76.4655 61.464C77.3295 60.968 78.2975 60.72 79.3695 60.72C80.1215 60.72 80.8495 60.848 81.5535 61.104C82.2735 61.344 82.8255 61.688 83.2095 62.136V64.536C83.0495 64.168 82.7775 63.832 82.3935 63.528C82.0095 63.224 81.5535 62.984 81.0255 62.808C80.5135 62.616 79.9615 62.52 79.3695 62.52C78.6495 62.52 78.0015 62.688 77.4255 63.024C76.8655 63.36 76.4175 63.832 76.0815 64.44C75.7615 65.032 75.6015 65.712 75.6015 66.48ZM88.1184 53.28V72H86.1984V53.28H88.1184ZM93.2784 65.28C93.2784 64.368 93.0784 63.68 92.6784 63.216C92.2944 62.752 91.7104 62.52 90.9264 62.52C90.3664 62.52 89.8704 62.64 89.4384 62.88C89.0224 63.12 88.6944 63.448 88.4544 63.864C88.2304 64.28 88.1184 64.752 88.1184 65.28H87.4944C87.4944 64.4 87.6624 63.624 87.9984 62.952C88.3344 62.264 88.7904 61.72 89.3664 61.32C89.9584 60.92 90.6384 60.72 91.4064 60.72C92.1744 60.72 92.8384 60.88 93.3984 61.2C93.9744 61.52 94.4144 62 94.7184 62.64C95.0384 63.28 95.1984 64.08 95.1984 65.04V72H93.2784V65.28ZM106.747 66.912C107.131 67.584 107.531 68.176 107.947 68.688C108.379 69.2 108.859 69.6 109.387 69.888C109.915 70.176 110.515 70.32 111.187 70.32C112.083 70.32 112.803 70.072 113.347 69.576C113.891 69.08 114.163 68.448 114.163 67.68C114.163 66.928 113.987 66.328 113.635 65.88C113.283 65.432 112.819 65.072 112.243 64.8C111.683 64.512 111.083 64.256 110.443 64.032C110.027 63.888 109.563 63.704 109.051 63.48C108.539 63.24 108.051 62.944 107.587 62.592C107.123 62.224 106.739 61.776 106.435 61.248C106.147 60.72 106.003 60.072 106.003 59.304C106.003 58.472 106.211 57.728 106.627 57.072C107.043 56.416 107.619 55.904 108.355 55.536C109.091 55.152 109.931 54.96 110.875 54.96C111.787 54.96 112.579 55.136 113.251 55.488C113.939 55.824 114.523 56.264 115.003 56.808C115.483 57.336 115.859 57.896 116.131 58.488L114.379 59.496C114.171 59.08 113.907 58.672 113.587 58.272C113.267 57.872 112.875 57.544 112.411 57.288C111.963 57.032 111.411 56.904 110.755 56.904C109.843 56.904 109.179 57.128 108.763 57.576C108.347 58.008 108.139 58.496 108.139 59.04C108.139 59.504 108.259 59.936 108.499 60.336C108.739 60.72 109.139 61.088 109.699 61.44C110.275 61.776 111.051 62.112 112.027 62.448C112.475 62.608 112.947 62.816 113.443 63.072C113.939 63.328 114.395 63.656 114.811 64.056C115.243 64.44 115.595 64.912 115.867 65.472C116.139 66.016 116.275 66.672 116.275 67.44C116.275 68.176 116.131 68.84 115.843 69.432C115.571 70.024 115.187 70.528 114.691 70.944C114.211 71.36 113.659 71.68 113.035 71.904C112.427 72.128 111.787 72.24 111.115 72.24C110.203 72.24 109.355 72.048 108.571 71.664C107.803 71.264 107.123 70.744 106.531 70.104C105.955 69.448 105.483 68.752 105.115 68.016L106.747 66.912ZM120.016 66.48C120.016 67.248 120.176 67.928 120.496 68.52C120.832 69.112 121.28 69.584 121.84 69.936C122.416 70.272 123.064 70.44 123.784 70.44C124.376 70.44 124.928 70.352 125.44 70.176C125.968 69.984 126.424 69.736 126.808 69.432C127.192 69.112 127.464 68.776 127.624 68.424V70.824C127.24 71.272 126.688 71.624 125.968 71.88C125.264 72.12 124.536 72.24 123.784 72.24C122.712 72.24 121.744 71.992 120.88 71.496C120.016 71 119.328 70.32 118.816 69.456C118.32 68.576 118.072 67.584 118.072 66.48C118.072 65.36 118.32 64.368 118.816 63.504C119.328 62.64 120.016 61.96 120.88 61.464C121.744 60.968 122.712 60.72 123.784 60.72C124.536 60.72 125.264 60.848 125.968 61.104C126.688 61.344 127.24 61.688 127.624 62.136V64.536C127.464 64.168 127.192 63.832 126.808 63.528C126.424 63.224 125.968 62.984 125.44 62.808C124.928 62.616 124.376 62.52 123.784 62.52C123.064 62.52 122.416 62.688 121.84 63.024C121.28 63.36 120.832 63.832 120.496 64.44C120.176 65.032 120.016 65.712 120.016 66.48ZM132.533 53.28V72H130.613V53.28H132.533ZM137.693 65.28C137.693 64.368 137.493 63.68 137.093 63.216C136.709 62.752 136.125 62.52 135.341 62.52C134.781 62.52 134.285 62.64 133.853 62.88C133.437 63.12 133.109 63.448 132.869 63.864C132.645 64.28 132.533 64.752 132.533 65.28H131.909C131.909 64.4 132.077 63.624 132.413 62.952C132.749 62.264 133.205 61.72 133.781 61.32C134.373 60.92 135.053 60.72 135.821 60.72C136.589 60.72 137.253 60.88 137.813 61.2C138.389 61.52 138.829 62 139.133 62.64C139.453 63.28 139.613 64.08 139.613 65.04V72H137.693V65.28ZM142.262 66.48C142.262 65.36 142.51 64.368 143.006 63.504C143.518 62.64 144.206 61.96 145.07 61.464C145.934 60.968 146.902 60.72 147.974 60.72C149.062 60.72 150.03 60.968 150.878 61.464C151.742 61.96 152.422 62.64 152.918 63.504C153.43 64.368 153.686 65.36 153.686 66.48C153.686 67.584 153.43 68.576 152.918 69.456C152.422 70.32 151.742 71 150.878 71.496C150.03 71.992 149.062 72.24 147.974 72.24C146.902 72.24 145.934 71.992 145.07 71.496C144.206 71 143.518 70.32 143.006 69.456C142.51 68.576 142.262 67.584 142.262 66.48ZM144.206 66.48C144.206 67.248 144.366 67.928 144.686 68.52C145.022 69.112 145.47 69.584 146.03 69.936C146.606 70.272 147.254 70.44 147.974 70.44C148.694 70.44 149.334 70.272 149.894 69.936C150.47 69.584 150.918 69.112 151.238 68.52C151.574 67.928 151.742 67.248 151.742 66.48C151.742 65.712 151.574 65.032 151.238 64.44C150.918 63.832 150.47 63.36 149.894 63.024C149.334 62.688 148.694 62.52 147.974 62.52C147.254 62.52 146.606 62.688 146.03 63.024C145.47 63.36 145.022 63.832 144.686 64.44C144.366 65.032 144.206 65.712 144.206 66.48ZM155.363 66.48C155.363 65.36 155.611 64.368 156.107 63.504C156.619 62.64 157.307 61.96 158.171 61.464C159.035 60.968 160.003 60.72 161.075 60.72C162.163 60.72 163.131 60.968 163.979 61.464C164.843 61.96 165.523 62.64 166.019 63.504C166.531 64.368 166.787 65.36 166.787 66.48C166.787 67.584 166.531 68.576 166.019 69.456C165.523 70.32 164.843 71 163.979 71.496C163.131 71.992 162.163 72.24 161.075 72.24C160.003 72.24 159.035 71.992 158.171 71.496C157.307 71 156.619 70.32 156.107 69.456C155.611 68.576 155.363 67.584 155.363 66.48ZM157.307 66.48C157.307 67.248 157.467 67.928 157.787 68.52C158.123 69.112 158.571 69.584 159.131 69.936C159.707 70.272 160.355 70.44 161.075 70.44C161.795 70.44 162.435 70.272 162.995 69.936C163.571 69.584 164.019 69.112 164.339 68.52C164.675 67.928 164.843 67.248 164.843 66.48C164.843 65.712 164.675 65.032 164.339 64.44C164.019 63.832 163.571 63.36 162.995 63.024C162.435 62.688 161.795 62.52 161.075 62.52C160.355 62.52 159.707 62.688 159.131 63.024C158.571 63.36 158.123 63.832 157.787 64.44C157.467 65.032 157.307 65.712 157.307 66.48ZM169.425 53.28H171.345V72H169.425V53.28Z" fill="#8CB0FF"/>
<path fill-rule="evenodd" clip-rule="evenodd" d="M79.427 3.95973C74.7545 2.81391 66.6626 2.03682 62.4711 6.02746C57.8356 10.4409 55.5373 14.3496 54.8127 16.9902L63.4366 23.266L68.6774 21.7254C68.81 19.9268 70.3112 18.5088 72.1437 18.5088C74.0633 18.5088 75.6195 20.0649 75.6195 21.9846C75.6195 23.9042 74.0633 25.4604 72.1437 25.4604C71.1417 25.4604 70.2388 25.0364 69.6045 24.3581L62.7345 26.0923L53.5021 19.0323C51.012 19.672 47.1424 21.3588 45.7943 24.565C44.2048 28.3456 44.2741 29.9299 44.3535 31.7481C44.3699 32.1217 44.3866 32.5051 44.3895 32.9194L63.9282 37.3799L68.0008 34.2025L68.0472 34.1709C67.9261 33.8175 67.8604 33.4384 67.8604 33.0439C67.8604 31.1243 69.4165 29.5681 71.3362 29.5681C73.2558 29.5681 74.812 31.1243 74.812 33.0439C74.812 34.9635 73.2558 36.5197 71.3362 36.5197C70.6711 36.5197 70.0496 36.3329 69.5213 36.0089L64.6655 40.2413L43.5785 35.1676L43.5649 35.2031C41.7802 37.807 40.0365 43.8399 47.3391 47.1402L91.3301 47.0544L90.1897 35.8175L86.0755 32.8926C85.4704 33.4032 84.6887 33.711 83.835 33.711C81.9154 33.711 80.3592 32.1548 80.3592 30.2352C80.3592 28.3156 81.9154 26.7594 83.835 26.7594C85.7546 26.7594 87.3108 28.3156 87.3108 30.2352C87.3108 30.4193 87.2965 30.6 87.2689 30.7763L92.6474 34.5185L93.8034 47.0496L128.388 46.9822C130.489 45.5369 133.848 41.3577 130.477 36.2037L130.424 35.9418L109.745 31.4464L105.502 34.6342C105.613 34.9736 105.673 35.3359 105.673 35.7122C105.673 37.6318 104.117 39.188 102.197 39.188C100.277 39.188 98.7212 37.6318 98.7212 35.7122C98.7212 33.7926 100.277 32.2364 102.197 32.2364C102.904 32.2364 103.562 32.4475 104.111 32.8101L109.149 28.6553L129.959 33.6639L129.951 33.6232C130.384 30.3229 129.231 23.898 121.156 24.6002C121.835 22.1367 122.395 16.2723 119.207 12.5226C116.019 8.773 110.436 8.18668 108.043 8.36222L107.982 8.33511L103.479 12.1189L103.602 17.4447C105.132 17.8091 106.27 19.1847 106.27 20.826C106.27 22.7456 104.714 24.3018 102.794 24.3018C100.874 24.3018 99.3181 22.7456 99.3181 20.826C99.3181 19.4556 100.111 18.2704 101.263 17.7044L101.074 11.0481L105.37 7.09273C104.063 4.98198 100.126 0.772033 94.315 0.0940419C89.1742 -0.505719 84.3535 1.89135 81.875 3.65208L82.7291 13.8393L87.0623 16.5104C87.6529 16.0468 88.3975 15.7703 89.2067 15.7703C91.1263 15.7703 92.6825 17.3264 92.6825 19.2461C92.6825 21.1657 91.1263 22.7219 89.2067 22.7219C87.287 22.7219 85.7309 21.1657 85.7309 19.2461C85.7309 18.9934 85.7578 18.7471 85.809 18.5098L80.3768 15.0505L79.427 3.95973Z" fill="#8CB0FF"/>
</svg>
