<svg width="249" height="249" viewBox="0 0 249 249" fill="none" xmlns="http://www.w3.org/2000/svg">
<path fill-rule="evenodd" clip-rule="evenodd" d="M124.035 248.074C192.535 248.074 248.074 192.543 248.074 124.035C248.074 55.5312 192.535 0 124.035 0C55.5312 0 0 55.5312 0 124.035C0 192.543 55.5312 248.074 124.035 248.074ZM196.133 62.9219C187.625 70.0781 176.715 70.5391 176.715 70.5391C170.895 64.0469 162.445 59.9609 153.035 59.9609C135.465 59.9609 121.223 74.1992 121.223 91.7656C121.223 94.0547 121.473 96.293 121.934 98.4453C78.582 99.8164 54.7305 65.9258 54.7305 65.9258C42.3906 93.8945 63.3047 108.391 63.3047 108.391C56.7031 109.008 50.6172 105.41 50.6172 105.41C50.207 130.582 73.3203 137.328 73.3203 137.328C67.9961 139.918 60.5312 137.883 60.5312 137.883C70.6484 160.035 89.9375 160.523 89.9375 160.523C77.5977 175.664 44.8594 175.082 44.8594 175.082C58.8438 183.062 102.664 200.625 145.383 173.684C189.344 145.965 185.703 92.4727 185.703 92.4727C196.875 85.75 200.945 75.1367 200.945 75.1367C192.555 79.457 186.426 79.9492 186.426 79.9492C193.992 73.2891 196.133 62.9219 196.133 62.9219Z" fill="white"/>
</svg>
