<svg width="249" height="249" viewBox="0 0 249 249" fill="none" xmlns="http://www.w3.org/2000/svg">
<path fill-rule="evenodd" clip-rule="evenodd" d="M124.031 248.074C192.543 248.074 248.07 192.543 248.07 124.035C248.07 55.5312 192.543 0 124.031 0C55.5312 0 0 55.5312 0 124.035C0 192.543 55.5312 248.074 124.031 248.074ZM197.012 124.035C197.012 105.418 196.09 88.0312 189.34 81.0938C183.781 75.3906 175.363 74.7773 159.691 74.2266C143.793 73.6719 124.031 73.4375 124.031 73.4375C124.031 73.4375 104.281 73.6719 88.3828 74.2266C72.7109 74.7773 64.2812 75.3906 58.7305 81.0938C51.9805 88.0312 51.0625 105.418 51.0625 124.035C51.0625 142.656 51.9805 160.043 58.7305 166.973C64.2812 172.684 72.7109 173.293 88.3828 173.844C104.281 174.402 124.031 174.633 124.031 174.633C124.031 174.633 143.793 174.402 159.691 173.844C175.363 173.293 183.781 172.684 189.34 166.973C196.09 160.043 197.012 142.656 197.012 124.035ZM146.301 124.035L107.223 101.477V146.598L146.301 124.035Z" fill="white"/>
</svg>
