<svg width="91" height="48" viewBox="0 0 91 48" fill="none" xmlns="http://www.w3.org/2000/svg">
<path fill-rule="evenodd" clip-rule="evenodd" d="M38.2398 3.95973C33.5673 2.81391 25.4753 2.03682 21.2839 6.02746C16.6484 10.4409 14.35 14.3496 13.6255 16.9902L22.2494 23.266L27.4901 21.7254C27.6227 19.9268 29.124 18.5088 30.9564 18.5088C32.8761 18.5088 34.4322 20.0649 34.4322 21.9846C34.4322 23.9042 32.8761 25.4604 30.9564 25.4604C29.9545 25.4604 29.0516 25.0364 28.4173 24.3581L21.5472 26.0923L12.3148 19.0323C9.82469 19.672 5.95514 21.3588 4.60708 24.565C3.01755 28.3456 3.08681 29.9299 3.16629 31.7481C3.18262 32.1217 3.19938 32.5051 3.20228 32.9194L22.7409 37.3799L26.8136 34.2025L26.8599 34.1709C26.7388 33.8175 26.6731 33.4384 26.6731 33.0439C26.6731 31.1243 28.2293 29.5681 30.1489 29.5681C32.0685 29.5681 33.6247 31.1243 33.6247 33.0439C33.6247 34.9635 32.0685 36.5197 30.1489 36.5197C29.4838 36.5197 28.8623 36.3329 28.3341 36.0089L23.4782 40.2413L2.39122 35.1676L2.37765 35.2031C0.592945 37.807 -1.1508 43.8399 6.15188 47.1402L50.1429 47.0544L49.0025 35.8175L44.8882 32.8926C44.2832 33.4032 43.5014 33.711 42.6477 33.711C40.7281 33.711 39.1719 32.1548 39.1719 30.2352C39.1719 28.3156 40.7281 26.7594 42.6477 26.7594C44.5674 26.7594 46.1235 28.3156 46.1235 30.2352C46.1235 30.4193 46.1092 30.6 46.0817 30.7763L51.4601 34.5185L52.6161 47.0496L87.2011 46.9822C89.3018 45.5369 92.6606 41.3577 89.2901 36.2037L89.2366 35.9418L68.5582 31.4464L64.3152 34.6342C64.4258 34.9736 64.4856 35.3359 64.4856 35.7122C64.4856 37.6318 62.9294 39.188 61.0098 39.188C59.0901 39.188 57.534 37.6318 57.534 35.7122C57.534 33.7926 59.0901 32.2364 61.0098 32.2364C61.7168 32.2364 62.3745 32.4475 62.9233 32.8101L67.9614 28.6553L88.7718 33.6639L88.7635 33.6232C89.1965 30.3229 88.0437 23.898 79.9686 24.6002C80.6474 22.1367 81.208 16.2723 78.0201 12.5226C74.8322 8.773 69.2487 8.18668 66.8554 8.36222L66.7951 8.33511L62.2912 12.1189L62.4151 17.4447C63.9448 17.8091 65.0824 19.1847 65.0824 20.826C65.0824 22.7456 63.5262 24.3018 61.6066 24.3018C59.687 24.3018 58.1308 22.7456 58.1308 20.826C58.1308 19.4556 58.9239 18.2704 60.0761 17.7044L59.8863 11.0481L64.1829 7.09273C62.876 4.98198 58.9391 0.772032 53.1278 0.0940419C47.987 -0.505719 43.1662 1.89135 40.6878 3.65208L41.5418 13.8393L45.875 16.5104C46.4657 16.0468 47.2103 15.7703 48.0194 15.7703C49.939 15.7703 51.4952 17.3264 51.4952 19.2461C51.4952 21.1657 49.939 22.7219 48.0194 22.7219C46.0998 22.7219 44.5436 21.1657 44.5436 19.2461C44.5436 18.9934 44.5706 18.7471 44.6218 18.5098L39.1895 15.0505L38.2398 3.95973Z" fill="#8CB0FF"/>
</svg>
